<?xml version="1.0" encoding="utf-8"?>
<!-- Generator: Adobe Illustrator 28.1.0, SVG Export Plug-In . SVG Version: 6.00 Build 0)  -->
<svg version="1.1" id="Layer_1" xmlns="http://www.w3.org/2000/svg" xmlns:xlink="http://www.w3.org/1999/xlink" x="0px" y="0px"
	 viewBox="0 0 48 48" style="enable-background:new 0 0 48 48;" xml:space="preserve">
<style type="text/css">
	.st0{fill:#800080;}
	.st1{fill-rule:evenodd;clip-rule:evenodd;}
	.st2{fill-rule:evenodd;clip-rule:evenodd;fill:#800080;}
	.st3{fill-rule:evenodd;clip-rule:evenodd;fill:#762E82;}
	.st4{fill:#762E82;}
	.st5{fill:#0066AD;}
	.st6{fill:#F4A033;}
	.st7{fill-rule:evenodd;clip-rule:evenodd;fill:#004669;}
	.st8{fill-rule:evenodd;clip-rule:evenodd;fill:#F6C40B;}
	.st9{fill:#004669;}
	.st10{fill-rule:evenodd;clip-rule:evenodd;fill:#E71C24;}
	.st11{fill-rule:evenodd;clip-rule:evenodd;fill:#224094;}
	.st12{fill:#204391;}
	.st13{fill:#E61F29;}
	.st14{fill:#3BB53F;}
	.st15{fill:#020202;}
	.st16{fill:#DB7031;}
	.st17{fill:#D82C32;}
	.st18{fill:#1A171B;}
	.st19{fill:#E38833;}
	.st20{clip-path:url(#SVGID_00000072989332059444899890000017600143981044516775_);}
	.st21{clip-path:url(#SVGID_00000161621675524790133630000012725262164360930707_);}
	.st22{fill:#FFFFFF;}
	.st23{fill:#2DB674;}
	.st24{fill:none;}
	.st25{fill:url(#SVGID_00000132770233755865304890000017836132976272798882_);}
	.st26{fill:url(#SVGID_00000003079822977209366980000001707732448152174511_);}
	.st27{fill:url(#SVGID_00000092432790016236886350000001975614413755228822_);}
	.st28{fill:url(#SVGID_00000164501175723587184650000016819606995233552042_);}
	.st29{fill:url(#SVGID_00000080924557259412553590000018190532066227577527_);}
	.st30{fill:url(#SVGID_00000017486221162086466080000008398053684936440731_);}
	.st31{fill:url(#SVGID_00000090295234293864044880000017081348071426100157_);}
	.st32{fill:url(#SVGID_00000106851841355845744390000014087194927436714678_);}
	.st33{fill:url(#SVGID_00000078765815050069387730000016589695616178569360_);}
	.st34{fill:url(#SVGID_00000112596875464746475660000002518713931580082846_);}
	.st35{fill:url(#SVGID_00000109744641896573064170000003490562634568773775_);}
	.st36{fill:url(#SVGID_00000171712532988276364220000014913702581757231285_);}
	.st37{fill:#1A2E35;}
	.st38{fill:#C27460;}
	.st39{fill:#7C4235;}
	.st40{fill:#FF735D;}
	.st41{fill:#762E86;}
	.st42{fill:none;stroke:#000000;stroke-width:0.1613;stroke-linecap:round;stroke-miterlimit:10;}
	.st43{fill:#375A64;}
	.st44{opacity:0.3;}
	.st45{fill:none;stroke:#FFC7BF;stroke-width:0.1122;stroke-miterlimit:10;}
	.st46{fill:none;stroke:#44555B;stroke-width:5.608974e-03;stroke-miterlimit:10;}
	.st47{fill:#FFFFFF;stroke:#000000;stroke-width:0.1637;stroke-miterlimit:10;}
	.st48{fill:#E1E1E1;}
	.st49{fill:#578DF3;}
	.st50{fill:#B72516;}
</style>
<path class="st0" d="M7.3,28.05c-0.33,0-0.6,0.27-0.6,0.6v9.77c0,0.33,0.27,0.6,0.6,0.6h5.75c0.33,0,0.6-0.27,0.6-0.6h0v-9.77
	c0-0.33-0.27-0.6-0.6-0.6h-2.28v6.9c0,0.33-0.27,0.6-0.6,0.6c-0.33,0-0.6-0.27-0.6-0.6v-6.9H7.3z"/>
<path d="M36,9.71c-0.11-0.11-0.26-0.18-0.42-0.18l-14.74,0c-0.33,0-0.6,0.27-0.6,0.6v1.71l-5.68,1.52
	c-0.32,0.09-0.51,0.41-0.42,0.73l2.94,10.98l-2.55,2.55c-0.32-0.47-0.87-0.78-1.48-0.78H7.3c-0.99,0-1.8,0.81-1.8,1.8v9.77
	c0,0.99,0.81,1.8,1.8,1.8h5.75c0.84,0,1.55-0.58,1.74-1.36l0.71,0.62c0.55,0.48,1.25,0.74,1.98,0.74h18.09c0.33,0,0.6-0.27,0.6-0.6
	V10.13C36.18,9.98,36.11,9.82,36,9.71z M13.65,38.41L13.65,38.41c0,0.33-0.27,0.6-0.6,0.6H7.3c-0.33,0-0.6-0.27-0.6-0.6v-9.77
	c0-0.33,0.27-0.6,0.6-0.6h2.28v6.9c0,0.33,0.27,0.6,0.6,0.6c0.33,0,0.6-0.27,0.6-0.6v-6.9h2.28c0.33,0,0.6,0.27,0.6,0.6V38.41z
	 M15.45,14.37l4.79-1.28v2.22l-0.4,0.11c-0.15,0.04-0.28,0.14-0.36,0.28c-0.08,0.14-0.1,0.3-0.06,0.45
	c0.23,0.86-0.28,1.75-1.14,1.98c-0.15,0.04-0.28,0.14-0.36,0.28c-0.08,0.14-0.1,0.3-0.06,0.46l2.34,8.65h-1.2l-0.62-2.42
	c-0.02-0.08-0.05-0.15-0.1-0.21L15.45,14.37z M20.24,18.06v5.06l-1.09-4.05C19.6,18.83,19.98,18.48,20.24,18.06z M28.85,39.01H17.49
	c-0.44,0-0.87-0.16-1.2-0.45l-1.45-1.26v-8.29l2.62-2.62l0.47,1.86c0.07,0.27,0.31,0.45,0.58,0.45l11.78,0
	c0.46,0,0.84,0.38,0.84,0.84c0,0.46-0.38,0.84-0.84,0.84h-6.04c-0.33,0-0.6,0.27-0.6,0.6s0.27,0.6,0.6,0.6h7.91
	c0.46,0,0.84,0.38,0.84,0.84c0,0.46-0.38,0.84-0.84,0.84h-7.91c-0.33,0-0.6,0.27-0.6,0.6c0,0.33,0.27,0.6,0.6,0.6h6.63
	c0.46,0,0.84,0.38,0.84,0.84c0,0.46-0.38,0.84-0.84,0.84h-6.63c-0.33,0-0.6,0.27-0.6,0.6c0,0.33,0.27,0.6,0.6,0.6h4.59
	c0.46,0,0.84,0.38,0.84,0.84C29.69,38.64,29.31,39.01,28.85,39.01z M32.61,17.98v12.45c-0.14-0.03-0.29-0.05-0.44-0.05h-0.02
	c0.12-0.26,0.18-0.54,0.18-0.84c0-1.12-0.91-2.04-2.04-2.04h-0.96c1.02-0.44,1.74-1.46,1.74-2.64c0-1.58-1.29-2.87-2.87-2.87
	s-2.87,1.29-2.87,2.87c0,1.18,0.72,2.2,1.74,2.64h-3.28V16.12c1.07-0.23,1.91-1.08,2.15-2.15h4.51c0.23,1.07,1.08,1.91,2.15,2.15
	L32.61,17.98C32.61,17.98,32.61,17.98,32.61,17.98z M28.21,26.54c-0.92,0-1.67-0.75-1.67-1.67s0.75-1.67,1.67-1.67
	c0.92,0,1.67,0.75,1.67,1.67S29.13,26.54,28.21,26.54z M34.98,39.01L34.98,39.01H30.7c0.12-0.26,0.18-0.54,0.18-0.84
	c0-0.3-0.07-0.58-0.18-0.84h0.19c1.12,0,2.04-0.91,2.04-2.04c0-0.33-0.08-0.64-0.22-0.91c0.86-0.24,1.5-1.03,1.5-1.96
	c0-0.45-0.15-0.87-0.4-1.21V17.83c0,0,0,0,0,0v-2.25c0-0.33-0.27-0.6-0.6-0.6c-0.89,0-1.61-0.72-1.61-1.61c0-0.33-0.27-0.6-0.6-0.6
	h-5.58c-0.33,0-0.6,0.27-0.6,0.6c0,0.89-0.72,1.61-1.61,1.61c-0.33,0-0.6,0.27-0.6,0.6v11.93h-1.17V10.73l13.54,0V39.01z"/>
</svg>
