<?xml version="1.0" encoding="utf-8"?>
<!-- Generator: Adobe Illustrator 28.1.0, SVG Export Plug-In . SVG Version: 6.00 Build 0)  -->
<svg version="1.1" id="Layer_1" xmlns="http://www.w3.org/2000/svg" xmlns:xlink="http://www.w3.org/1999/xlink" x="0px" y="0px"
	 viewBox="0 0 48 48" style="enable-background:new 0 0 48 48;" xml:space="preserve">
<style type="text/css">
	.st0{fill:#800080;}
	.st1{fill:#F4F4F4;}
	.st2{fill-rule:evenodd;clip-rule:evenodd;fill:#F4F4F4;}
	.st3{fill-rule:evenodd;clip-rule:evenodd;fill:#800080;}
	.st4{fill-rule:evenodd;clip-rule:evenodd;}
	.st5{fill-rule:evenodd;clip-rule:evenodd;fill:#762E81;}
	.st6{fill:#762E81;}
	.st7{fill:#0066AC;}
	.st8{fill:#F39F33;}
	.st9{fill-rule:evenodd;clip-rule:evenodd;fill:#004669;}
	.st10{fill-rule:evenodd;clip-rule:evenodd;fill:#F5C30B;}
	.st11{fill:#004669;}
	.st12{fill-rule:evenodd;clip-rule:evenodd;fill:#E61C24;}
	.st13{fill-rule:evenodd;clip-rule:evenodd;fill:#224093;}
	.st14{fill:#204390;}
	.st15{fill:#E51F29;}
	.st16{fill:#3BB43F;}
	.st17{fill:#020202;}
	.st18{fill:#DA7031;}
	.st19{fill:#D72C32;}
	.st20{fill:#1A171B;}
	.st21{fill:#E28733;}
	.st22{clip-path:url(#SVGID_00000041278599534327509570000013143636005304051134_);}
	.st23{clip-path:url(#SVGID_00000138574484905423724170000008022014353757391788_);}
	.st24{fill:#FFFFFF;}
	.st25{fill:#2DB574;}
	.st26{fill:none;}
	.st27{fill:url(#SVGID_00000069366885750905631770000007503542592670126523_);}
	.st28{fill:url(#SVGID_00000174588970334146415910000015860926382932575366_);}
	.st29{fill:url(#SVGID_00000137846038481368248250000000730535690316250507_);}
	.st30{fill:url(#SVGID_00000009588809097495695570000016583735952968047005_);}
	.st31{fill:url(#SVGID_00000051342532492153698480000008189557507021352596_);}
	.st32{fill:url(#SVGID_00000035523152165575147260000002863217021179333258_);}
	.st33{fill:url(#SVGID_00000091015795995171800860000006670541723691375010_);}
	.st34{fill:url(#SVGID_00000023972425853728244250000006525721749759844228_);}
	.st35{fill:url(#SVGID_00000098184870349593128800000012949370427254810040_);}
	.st36{fill:url(#SVGID_00000071531602683032270730000008664793161643290535_);}
	.st37{fill:url(#SVGID_00000126302596420690282910000015469912615978214826_);}
	.st38{fill:url(#SVGID_00000145048605288203478120000008021320172869566394_);}
	.st39{fill:#1A2E35;}
	.st40{fill:#C27460;}
	.st41{fill:#7C4235;}
	.st42{fill:#FF735D;}
	.st43{fill:#762E85;}
	.st44{fill:none;stroke:#000000;stroke-width:0.1613;stroke-linecap:round;stroke-miterlimit:10;}
	.st45{fill:#375A64;}
	.st46{opacity:0.3;}
	.st47{fill:none;stroke:#FFC7BF;stroke-width:0.1122;stroke-miterlimit:10;}
	.st48{fill:none;stroke:#44555B;stroke-width:5.608974e-03;stroke-miterlimit:10;}
	.st49{fill:#FFFFFF;stroke:#000000;stroke-width:0.1637;stroke-miterlimit:10;}
	.st50{fill:#E1E1E1;}
	.st51{fill:#578CF2;}
	.st52{fill:#B62516;}
	.st53{fill:#762E86;}
</style>
<g>
	<path class="st53" d="M15.6,25c2.99,2.99,7.75,2.99,10.74,0l9.61-9.61c2.67-2.67,2.99-6.78,0.81-9.77c0.08,0,0.08-0.08,0.16-0.08
		c0.97-0.32,1.54,0,1.86,0.24c0.4,0.32,1.05,0.24,1.45-0.16c0.32-0.4,0.24-1.05-0.16-1.45c-1.7-1.37-3.55-0.81-4.76-0.08
		c-2.91-2.34-7.27-2.18-10.1,0.57l-9.61,9.61C12.69,17.25,12.69,22.01,15.6,25z M26.66,21.77c-0.57-0.57-1.05-1.21-1.45-1.86
		c1.21,0.08,2.42,0,3.55-0.24L26.66,21.77z M26.58,6.18c2.26-2.26,5.81-2.26,7.91-0.08c2.1,2.1,2.18,5.49,0.16,7.67
		c-2.1,2.34-5.82,2.42-8.08,0.24C24.4,11.84,24.4,8.36,26.58,6.18z M23.43,12.56c0.89,2.5,3.07,4.44,5.81,4.93
		c-1.53,0.48-3.31,0.57-5.09,0.24C23.51,16.04,23.27,14.26,23.43,12.56z"/>
	<path class="st53" d="M30.21,8.2c0.4,0.4,1.05,0.4,1.45,0c0.4-0.4,0.4-1.05,0-1.45l-0.73-0.73c-0.4-0.4-1.05-0.4-1.45,0
		c-0.4,0.4-0.4,1.05,0,1.45L30.21,8.2z"/>
	<path class="st53" d="M33.12,11.11c0.4,0.4,1.05,0.4,1.45,0c0.4-0.4,0.4-1.05,0-1.45l-0.73-0.73c-0.4-0.4-1.05-0.4-1.45,0
		c-0.4,0.4-0.4,1.05,0,1.45L33.12,11.11z"/>
	<path class="st53" d="M28.84,12.48c0.4,0.4,1.05,0.4,1.45,0c0.4-0.4,0.4-1.05,0-1.45l-0.73-0.73c-0.4-0.4-1.05-0.4-1.45,0
		c-0.4,0.4-0.4,1.05,0,1.45L28.84,12.48z"/>
	<path d="M45.56,26.29c-1.53-1.53-3.96-1.53-5.49,0l-7.91,7.35c-0.57-1.13-1.7-1.86-2.99-2.02l-18.66-2.02
		c-0.32,0-0.65,0.08-0.81,0.32l-7.75,7.75c-0.4,0.4-0.4,1.05,0,1.45l8.08,8.08c0.4,0.4,1.05,0.4,1.45,0l2.26-2.26l17.61,0.65
		c0.24,0,0.57-0.08,0.73-0.32l13.41-13.41C47.09,30.25,47.09,27.83,45.56,26.29z M44.11,30.33L31.02,43.5l-17.2-0.65l-4.2-4.2
		c-0.4-0.4-1.05-0.4-1.45,0c-0.4,0.4-0.4,1.05,0,1.45l3.8,3.8l-1.13,1.13l-6.62-6.7l6.62-6.62c18.9,2.1,18.17,2.02,18.25,2.02
		c0.81,0.08,1.45,0.65,1.53,1.45c0.08,0.97-0.73,1.86-1.7,1.86l-10.26-0.49c-0.57,0-1.05,0.4-1.05,0.97s0.4,1.05,0.97,1.05
		l10.26,0.49c1.78,0.08,3.31-1.13,3.72-2.83c9.37-8.72,8.97-8.4,8.97-8.4c0.73-0.73,1.94-0.73,2.67,0
		C44.91,28.48,44.91,29.61,44.11,30.33z"/>
	<path d="M4.29,26.21c1.7,0,3.07-1.37,3.07-3.07c0-1.7-1.37-2.99-3.07-2.99c-1.7,0-2.99,1.37-2.99,2.99
		C1.3,24.84,2.67,26.21,4.29,26.21z"/>
	<path d="M11.4,10.06c2.26,0,4.04-1.78,4.04-4.04c0-2.26-1.78-4.04-4.04-4.04c-2.26,0-4.04,1.78-4.04,4.04
		C7.36,8.2,9.13,10.06,11.4,10.06z"/>
	<path d="M38.61,19.11c0,1.7,1.37,3.07,2.99,3.07c1.7,0,3.07-1.37,3.07-3.07c0-1.7-1.37-2.99-3.07-2.99
		C39.99,16.12,38.61,17.49,38.61,19.11z"/>
</g>
</svg>
