<?xml version="1.0" encoding="utf-8"?>
<!-- Generator: Adobe Illustrator 28.1.0, SVG Export Plug-In . SVG Version: 6.00 Build 0)  -->
<svg version="1.1" id="Layer_1" xmlns="http://www.w3.org/2000/svg" xmlns:xlink="http://www.w3.org/1999/xlink" x="0px" y="0px"
	 viewBox="0 0 48 48" style="enable-background:new 0 0 48 48;" xml:space="preserve">
<style type="text/css">
	.st0{fill:#800080;}
	.st1{fill:#F4F4F4;}
	.st2{fill-rule:evenodd;clip-rule:evenodd;fill:#F4F4F4;}
	.st3{fill-rule:evenodd;clip-rule:evenodd;fill:#800080;}
	.st4{fill-rule:evenodd;clip-rule:evenodd;}
	.st5{fill-rule:evenodd;clip-rule:evenodd;fill:#762E81;}
	.st6{fill:#762E81;}
	.st7{fill:#0066AC;}
	.st8{fill:#F39F33;}
	.st9{fill-rule:evenodd;clip-rule:evenodd;fill:#004669;}
	.st10{fill-rule:evenodd;clip-rule:evenodd;fill:#F5C30B;}
	.st11{fill:#004669;}
	.st12{fill-rule:evenodd;clip-rule:evenodd;fill:#E61C24;}
	.st13{fill-rule:evenodd;clip-rule:evenodd;fill:#224093;}
	.st14{fill:#204390;}
	.st15{fill:#E51F29;}
	.st16{fill:#3BB43F;}
	.st17{fill:#020202;}
	.st18{fill:#DA7031;}
	.st19{fill:#D72C32;}
	.st20{fill:#1A171B;}
	.st21{fill:#E28733;}
	.st22{clip-path:url(#SVGID_00000101092669304789532230000018279252313489676445_);}
	.st23{clip-path:url(#SVGID_00000107562929828275602050000006535360283602841775_);}
	.st24{fill:#FFFFFF;}
	.st25{fill:#2DB574;}
	.st26{fill:none;}
	.st27{fill:url(#SVGID_00000139982767103992317430000012976639368010241674_);}
	.st28{fill:url(#SVGID_00000074427147195974269630000000492980391624926887_);}
	.st29{fill:url(#SVGID_00000041994746071029632920000008372801443427661446_);}
	.st30{fill:url(#SVGID_00000145741203953886328530000002365541806579518903_);}
	.st31{fill:url(#SVGID_00000072980919830549324060000014761613134917779349_);}
	.st32{fill:url(#SVGID_00000016797768037586314640000001149250328549943691_);}
	.st33{fill:url(#SVGID_00000027590806797315496260000012261721438440108722_);}
	.st34{fill:url(#SVGID_00000141437271950694941610000010900815659176773559_);}
	.st35{fill:url(#SVGID_00000173127409917329799830000002590683227557037979_);}
	.st36{fill:url(#SVGID_00000159458247568430550540000010124860484798793370_);}
	.st37{fill:url(#SVGID_00000155839390482113702250000006321892713250730923_);}
	.st38{fill:url(#SVGID_00000006676352731814733610000010500839101006722955_);}
	.st39{fill:#1A2E35;}
	.st40{fill:#C27460;}
	.st41{fill:#7C4235;}
	.st42{fill:#FF735D;}
	.st43{fill:#762E85;}
	.st44{fill:none;stroke:#000000;stroke-width:0.1613;stroke-linecap:round;stroke-miterlimit:10;}
	.st45{fill:#375A64;}
	.st46{opacity:0.3;}
	.st47{fill:none;stroke:#FFC7BF;stroke-width:0.1122;stroke-miterlimit:10;}
	.st48{fill:none;stroke:#44555B;stroke-width:5.608974e-03;stroke-miterlimit:10;}
	.st49{fill:#FFFFFF;stroke:#000000;stroke-width:0.1637;stroke-miterlimit:10;}
	.st50{fill:#E1E1E1;}
	.st51{fill:#578CF2;}
	.st52{fill:#B62516;}
	.st53{fill:#762E86;}
</style>
<g>
	<g>
		<path class="st6" d="M11.45,8.35c0,1.3-1.05,2.35-2.35,2.35S6.75,9.65,6.75,8.35S7.8,6.01,9.1,6.01S11.45,7.05,11.45,8.35z"/>
	</g>
	<g>
		<path class="st6" d="M41.33,12.8c0,1.3-1.05,2.35-2.35,2.35s-2.35-1.05-2.35-2.35s1.05-2.35,2.35-2.35S41.33,11.5,41.33,12.8z"/>
	</g>
	<g>
		<path class="st6" d="M13.67,36.39c0,1.3-1.05,2.35-2.35,2.35s-2.35-1.05-2.35-2.35s1.05-2.35,2.35-2.35S13.67,35.1,13.67,36.39z"
			/>
	</g>
	<path d="M46.88,14.96c0-4.36-3.54-7.9-7.9-7.9c-0.46,0-0.91,0.05-1.36,0.12c-3.87-3.49-8.99-5.63-14.61-5.63
		c-3.45,0-6.7,0.81-9.6,2.24c-1.22-0.78-2.67-1.23-4.23-1.23c-4.36,0-7.9,3.54-7.9,7.9c0,1.74,0.57,3.34,1.52,4.65
		c-1.07,2.57-1.67,5.37-1.67,8.33c0,4.19,1.19,8.1,3.24,11.42c-0.58,1.1-0.92,2.36-0.92,3.69c0,4.36,3.54,7.9,7.9,7.9
		c2.07,0,3.94-0.8,5.35-2.1c2,0.61,4.11,0.96,6.31,0.96c12.09,0,21.88-9.8,21.88-21.88c0-1.02-0.1-2.01-0.23-3
		C46.03,19.02,46.88,17.09,46.88,14.96z M44.68,14.96c0,3.15-2.56,5.7-5.7,5.7c-3.15,0-5.7-2.56-5.7-5.7s2.56-5.7,5.7-5.7
		C42.12,9.25,44.68,11.81,44.68,14.96z M35.22,8c-2.47,1.34-4.14,3.95-4.14,6.95c0,1.5,0.42,2.89,1.15,4.08l-8.2,0.5l-1.25-5.82
		l6.87-8.85C31.68,5.6,33.55,6.68,35.22,8z M9.17,4.75c3.15,0,5.7,2.56,5.7,5.7s-2.56,5.7-5.7,5.7s-5.7-2.56-5.7-5.7
		S6.03,4.75,9.17,4.75z M3.28,23.43c0-2.34,0.44-4.56,1.19-6.64c1.32,0.98,2.94,1.56,4.71,1.56c0.82,0,1.62-0.13,2.36-0.36
		c0.03,0.8-0.02,1.62-0.18,2.46c-0.67,3.49-3.07,6.53-7.12,9.06C3.62,27.6,3.28,25.56,3.28,23.43z M5.64,38.55
		c0-3.15,2.56-5.7,5.7-5.7s5.7,2.56,5.7,5.7c0,3.15-2.56,5.7-5.7,5.7S5.64,41.69,5.64,38.55z M28.98,42.24
		c-0.76-4.99-4.16-7.34-5.91-8.23l2.49-6.65l10.63,0.18l3.12,7.02C36.84,38.15,33.22,40.89,28.98,42.24z M40.66,32.19L37.91,26
		c-0.17-0.39-0.56-0.65-0.99-0.65l-12.11-0.21c-0.47,0.03-0.88,0.28-1.05,0.71l-3.13,8.36c-0.1,0.28-0.09,0.59,0.04,0.86
		c0.13,0.27,0.36,0.48,0.64,0.57c0.2,0.07,4.78,1.69,5.51,7.15c-1.24,0.24-2.51,0.38-3.82,0.38c-1.68,0-3.3-0.22-4.85-0.62
		c0.69-1.17,1.09-2.54,1.09-3.99c0-4.36-3.54-7.9-7.9-7.9c-2.18,0-4.16,0.89-5.59,2.32c-0.25-0.45-0.49-0.91-0.7-1.38
		c4.8-2.91,7.67-6.51,8.47-10.73c0.26-1.35,0.28-2.66,0.15-3.9c2.05-1.43,3.4-3.8,3.4-6.49c0-1.95-0.71-3.74-1.89-5.12
		c2.4-1.04,5.03-1.63,7.82-1.63c1.5,0,2.96,0.18,4.37,0.5l-6.65,8.58c-0.2,0.26-0.27,0.59-0.21,0.9l1.55,7.24
		c0.11,0.51,0.56,0.87,1.07,0.87c0.02,0,0.05,0,0.07,0l10.84-0.66c1.35,1.08,3.06,1.73,4.92,1.73c1.33,0,2.59-0.33,3.69-0.92
		c0.04,0.49,0.07,0.99,0.07,1.49C42.73,26.58,41.98,29.55,40.66,32.19z"/>
	<g>
		<path class="st6" d="M11.32,39.29c-1.96,0-3.66,0.96-4.73,2.39c1.02,1.55,2.77,2.57,4.76,2.57c1.97,0,3.71-1.01,4.74-2.53
			C15.02,40.27,13.29,39.29,11.32,39.29z"/>
	</g>
	<g>
		<path class="st6" d="M38.98,15.7c-1.97,0-3.68,0.97-4.75,2.41c1.02,1.54,2.77,2.55,4.75,2.55c1.98,0,3.73-1.02,4.75-2.55
			C42.66,16.67,40.94,15.7,38.98,15.7z"/>
	</g>
	<g>
		<path class="st6" d="M9.1,11.25c-1.93,0-3.61,0.93-4.69,2.33c1.02,1.55,2.77,2.58,4.76,2.58c1.95,0,3.66-0.98,4.69-2.47
			C12.8,12.23,11.07,11.25,9.1,11.25z"/>
	</g>
</g>
</svg>
