<?xml version="1.0" encoding="utf-8"?>
<!-- Generator: Adobe Illustrator 28.1.0, SVG Export Plug-In . SVG Version: 6.00 Build 0)  -->
<svg version="1.1" id="Layer_1" xmlns="http://www.w3.org/2000/svg" xmlns:xlink="http://www.w3.org/1999/xlink" x="0px" y="0px"
	 viewBox="0 0 48 48" style="enable-background:new 0 0 48 48;" xml:space="preserve">
<style type="text/css">
	.st0{fill:#800080;}
	.st1{fill-rule:evenodd;clip-rule:evenodd;}
	.st2{fill-rule:evenodd;clip-rule:evenodd;fill:#800080;}
	.st3{fill-rule:evenodd;clip-rule:evenodd;fill:#762E82;}
	.st4{fill:#762E82;}
	.st5{fill:#0066AD;}
	.st6{fill:#F4A033;}
	.st7{fill-rule:evenodd;clip-rule:evenodd;fill:#004669;}
	.st8{fill-rule:evenodd;clip-rule:evenodd;fill:#F6C40B;}
	.st9{fill:#004669;}
	.st10{fill-rule:evenodd;clip-rule:evenodd;fill:#E71C24;}
	.st11{fill-rule:evenodd;clip-rule:evenodd;fill:#224094;}
	.st12{fill:#204391;}
	.st13{fill:#E61F29;}
	.st14{fill:#3BB53F;}
	.st15{fill:#020202;}
	.st16{fill:#DB7031;}
	.st17{fill:#D82C32;}
	.st18{fill:#1A171B;}
	.st19{fill:#E38833;}
	.st20{clip-path:url(#SVGID_00000095339235249552321200000006478343377214882956_);}
	.st21{clip-path:url(#SVGID_00000005235494031341291370000012853601761601389197_);}
	.st22{fill:#FFFFFF;}
	.st23{fill:#2DB674;}
	.st24{fill:none;}
	.st25{fill:url(#SVGID_00000075881337687366843940000010081683434719346865_);}
	.st26{fill:url(#SVGID_00000054982787390251468100000015402652813853636024_);}
	.st27{fill:url(#SVGID_00000026878178043746825110000016564980354957626511_);}
	.st28{fill:url(#SVGID_00000042738481101969638220000002357709344753975967_);}
	.st29{fill:url(#SVGID_00000000916703970490949750000003987591396948767401_);}
	.st30{fill:url(#SVGID_00000061467035101356565160000007395377551199850374_);}
	.st31{fill:url(#SVGID_00000049942079049445454570000008801853814251064196_);}
	.st32{fill:url(#SVGID_00000079456595906027626850000003892952875855889333_);}
	.st33{fill:url(#SVGID_00000154406677122026553200000001840490216248248209_);}
	.st34{fill:url(#SVGID_00000008842747059596824790000013075459447699781529_);}
	.st35{fill:url(#SVGID_00000076591180947670639480000014029938389105054384_);}
	.st36{fill:url(#SVGID_00000077318877518068784710000011772305646579469971_);}
	.st37{fill:#1A2E35;}
	.st38{fill:#C27460;}
	.st39{fill:#7C4235;}
	.st40{fill:#FF735D;}
	.st41{fill:#762E86;}
	.st42{fill:none;stroke:#000000;stroke-width:0.1613;stroke-linecap:round;stroke-miterlimit:10;}
	.st43{fill:#375A64;}
	.st44{opacity:0.3;}
	.st45{fill:none;stroke:#FFC7BF;stroke-width:0.1122;stroke-miterlimit:10;}
	.st46{fill:none;stroke:#44555B;stroke-width:5.608974e-03;stroke-miterlimit:10;}
	.st47{fill:#FFFFFF;stroke:#000000;stroke-width:0.1637;stroke-miterlimit:10;}
	.st48{fill:#E1E1E1;}
	.st49{fill:#578DF3;}
	.st50{fill:#B72516;}
</style>
<g>
	<g>
		<path id="_608897528_00000108988708843876484530000002583802554346003877_" class="st2" d="M4.16,21.92
			c-0.04,0-0.09-0.01-0.13-0.03l-0.56-0.26l-0.58,0.2c-0.1,0.04-0.21,0.02-0.29-0.05c-0.08-0.07-0.12-0.17-0.11-0.28l0.08-0.61
			L2.19,20.4c-0.06-0.08-0.08-0.2-0.04-0.29c0.04-0.1,0.12-0.17,0.23-0.19l0.61-0.11l0.35-0.51c0.06-0.09,0.16-0.14,0.27-0.13
			c0.11,0.01,0.2,0.07,0.25,0.16l0.3,0.54l0.59,0.18c0.1,0.03,0.18,0.11,0.21,0.21c0.03,0.1,0,0.21-0.07,0.29l-0.42,0.45l0.01,0.58
			c0,0.01,0,0.03,0,0.04C4.47,21.79,4.33,21.92,4.16,21.92C4.16,21.92,4.16,21.92,4.16,21.92L4.16,21.92z"/>
	</g>
	<g>
		<path id="_608897528_00000146464048573844753760000017316525336298827916_" class="st2" d="M25.9,10.56
			c-0.06,0-0.12-0.01-0.18-0.04l-0.77-0.37l-0.81,0.28c-0.14,0.05-0.29,0.02-0.41-0.07c-0.11-0.09-0.17-0.24-0.15-0.38l0.11-0.85
			l-0.52-0.68c-0.09-0.12-0.11-0.27-0.06-0.41c0.05-0.14,0.17-0.24,0.32-0.26l0.84-0.16l0.49-0.7c0.08-0.12,0.22-0.19,0.37-0.18
			c0.15,0.01,0.28,0.09,0.35,0.22l0.41,0.75l0.82,0.25c0.14,0.04,0.25,0.15,0.29,0.3c0.04,0.14,0,0.29-0.1,0.4L26.3,9.27l0.02,0.81
			c0,0.02,0,0.04,0,0.06C26.32,10.37,26.13,10.56,25.9,10.56C25.9,10.56,25.9,10.56,25.9,10.56L25.9,10.56z"/>
	</g>
	<path d="M18.33,15.54c-0.04-1.32,0.17-3.67-0.38-4.89c2.2-1.17,1.35-4.62-1.18-4.61H10.6c-4.82-0.29-6.97,4.32-4.22,7.74v1.76
		C6.7,23.47,18.01,23.47,18.33,15.54z M7.78,13.1c0.26-1.01,1.03-1.83,2.04-2.13h6.75c0.55,1.05,0.3,3.41,0.35,4.57
		c-0.23,6.06-8.92,6.06-9.15,0L7.78,13.1z"/>
	<path d="M44.34,19.13c-0.45-0.58-0.54-1.49-0.27-2.71c0.27-1.13,1.05-2.03,0.93-3.36c-0.13-1.43-1.61-3.17-3.15-3.17
		c-1.15,0-2.68-1.08-3.29-2.06c-0.64-1.02-2.05-1.76-3.44-1.79c-1.36-0.01-2.56,0.6-3.36,1.77c-1.11,1.61-2.03,2.15-3.01,2.72
		c-2.41,1.2-2.99,2.7-2.54,5.51c1.86,0.36,3.58,1.39,4.72,2.91v-2.28c2.59,0.75,4.11,1.3,6.79-0.95c0.14-0.11,0.23-0.27,0.25-0.44
		c0.11-0.73,0.97-1.3,1.66-0.94c0.67,1.11,0.39,3.5,0.44,4.76c0.06,3.97-4.93,6.07-7.72,3.31c0.19,1.58-0.17,3.24-1.02,4.6
		c0.45-0.29,0.94-0.53,1.45-0.73c1.42,1.2,4.01,1.2,5.43,0c2.76,1.02,4.67,3.6,4.67,6.54v0.7c0,1.55-1.26,2.81-2.81,2.81h-6.61
		c-0.58,0-1.06-0.47-1.06-1.06c0-0.58,0.47-1.06,1.06-1.06h5.9c0.51,0.01,0.86-0.56,0.63-1.01c-0.28-1.11-0.2-2.3,0.23-3.38
		c0.14-0.36-0.03-0.77-0.39-0.91c-1.44-0.48-1.48,3.04-1.35,3.9h-5.03c-3.25,0.1-3.25,4.82,0,4.92c0,0,6.68,0,6.68,0
		c0.48-0.01,0.92-0.1,1.34-0.25v0.95c0,1.17-0.95,2.11-2.11,2.11H34.1c-0.31,0.53-0.7,1.01-1.17,1.41h6.44
		c1.94,0,3.52-1.58,3.52-3.52v-1.79c2.06-1.8,1.61-5.26,0.54-7.49C46.29,26.71,46.7,22.07,44.34,19.13L44.34,19.13z"/>
	<path d="M24.67,29.26c5.12,0.09,8.38-5.87,4.86-9.81c-3.65-4.23-11.2-1.78-11.19,3.83C18.33,26.58,21.18,29.26,24.67,29.26z
		 M19.77,22.81c0.26-1.74,1.9-2.72,3.58-2.07c0.7,0.21,1.45,1.31,1.86,2.27c0.61,1.37,1.64,2.89,3.3,3.12
		C25.6,29.59,19.3,27.45,19.77,22.81z"/>
	<path d="M8.49,40.51c-1.16,0-2.11-0.95-2.11-2.11v-4.47c0.81,0.46,7.05,0.17,8.09,0.25c3.25-0.1,3.25-4.82,0-4.92H9.44
		c0.14-0.85,0.08-4.4-1.35-3.9c-0.36,0.14-0.54,0.55-0.39,0.91c0.43,1.08,0.51,2.28,0.23,3.38c-0.23,0.45,0.12,1.03,0.63,1.01
		c0,0,5.9,0,5.9,0c1.38,0.02,1.39,2.09,0,2.11H7.78c-1.55,0-2.81-1.26-2.81-2.81c-0.23-3.15,1.6-6.11,4.67-7.25
		c1.43,1.21,4,1.21,5.43,0c0.68,0.26,1.32,0.6,1.87,1.03c-0.03-0.54-0.01-1.1,0.08-1.63c-0.59-0.36-1.23-0.65-1.91-0.87
		c-0.26-0.08-0.54-0.01-0.72,0.19c-0.92,1.04-3.15,1.04-4.07,0c-0.18-0.2-0.46-0.27-0.72-0.19c-3.61,1.15-6.04,4.36-6.04,8.01
		c-0.11,1.44,0.33,2.93,1.41,3.84v5.3c0,1.94,1.58,3.52,3.52,3.52h7.87c-0.46-0.4-0.86-0.88-1.16-1.41L8.49,40.51L8.49,40.51z"/>
	<path class="st0" d="M29.59,35.29c0-1.42,0.77-2.67,1.93-3.33c-1.03-1.22-2.44-2.15-4.1-2.67c-0.25-0.08-0.53-0.01-0.71,0.18
		c-0.47,0.49-1.23,0.77-2.04,0.77c-0.81,0-1.57-0.29-2.04-0.77c-0.18-0.19-0.46-0.26-0.71-0.18c-3.62,1.12-6.04,4.26-6.04,7.82
		c-0.27,2.53,1.57,4.82,4.22,4.81c0,0,9.15,0,9.15,0c1.84,0,3.42-1.16,3.99-2.78C31.2,39.03,29.59,37.34,29.59,35.29z"/>
</g>
</svg>
