<?xml version="1.0" encoding="utf-8"?>
<!-- Generator: Adobe Illustrator 28.1.0, SVG Export Plug-In . SVG Version: 6.00 Build 0)  -->
<svg version="1.1" id="Layer_1" xmlns="http://www.w3.org/2000/svg" xmlns:xlink="http://www.w3.org/1999/xlink" x="0px" y="0px"
	 viewBox="0 0 48 48" style="enable-background:new 0 0 48 48;" xml:space="preserve">
<style type="text/css">
	.st0{fill:#800080;}
	.st1{fill-rule:evenodd;clip-rule:evenodd;}
	.st2{fill-rule:evenodd;clip-rule:evenodd;fill:#800080;}
	.st3{fill-rule:evenodd;clip-rule:evenodd;fill:#762E82;}
	.st4{fill:#762E82;}
	.st5{fill:#0066AD;}
	.st6{fill:#F4A033;}
	.st7{fill-rule:evenodd;clip-rule:evenodd;fill:#004669;}
	.st8{fill-rule:evenodd;clip-rule:evenodd;fill:#F6C40B;}
	.st9{fill:#004669;}
	.st10{fill-rule:evenodd;clip-rule:evenodd;fill:#E71C24;}
	.st11{fill-rule:evenodd;clip-rule:evenodd;fill:#224094;}
	.st12{fill:#204391;}
	.st13{fill:#E61F29;}
	.st14{fill:#3BB53F;}
	.st15{fill:#020202;}
	.st16{fill:#DB7031;}
	.st17{fill:#D82C32;}
	.st18{fill:#1A171B;}
	.st19{fill:#E38833;}
	.st20{clip-path:url(#SVGID_00000137845074794777790490000017723589016925012155_);}
	.st21{clip-path:url(#SVGID_00000079456359347950283360000009327294906698765723_);}
	.st22{fill:#FFFFFF;}
	.st23{fill:#2DB674;}
	.st24{fill:none;}
	.st25{fill:url(#SVGID_00000070808768362071602270000008763214546114449825_);}
	.st26{fill:url(#SVGID_00000135681066639045208110000000434918526959297215_);}
	.st27{fill:url(#SVGID_00000040557820381780412660000009793148229215846039_);}
	.st28{fill:url(#SVGID_00000141455768672298797160000001548262252687287448_);}
	.st29{fill:url(#SVGID_00000093887044729977115490000005815217815781761154_);}
	.st30{fill:url(#SVGID_00000084501016242575432500000007928533560061425595_);}
	.st31{fill:url(#SVGID_00000123410761652375307310000004829060429080369836_);}
	.st32{fill:url(#SVGID_00000163033233876813219780000004018270847489447824_);}
	.st33{fill:url(#SVGID_00000153694487209960200600000017778710859081388188_);}
	.st34{fill:url(#SVGID_00000032614907479924465570000015085891789222811543_);}
	.st35{fill:url(#SVGID_00000001655310501398716000000017807817702359480200_);}
	.st36{fill:url(#SVGID_00000104703402916693469050000014330078857614955943_);}
	.st37{fill:#1A2E35;}
	.st38{fill:#C27460;}
	.st39{fill:#7C4235;}
	.st40{fill:#FF735D;}
	.st41{fill:#762E86;}
	.st42{fill:none;stroke:#000000;stroke-width:0.1613;stroke-linecap:round;stroke-miterlimit:10;}
	.st43{fill:#375A64;}
	.st44{opacity:0.3;}
	.st45{fill:none;stroke:#FFC7BF;stroke-width:0.1122;stroke-miterlimit:10;}
	.st46{fill:none;stroke:#44555B;stroke-width:5.608974e-03;stroke-miterlimit:10;}
	.st47{fill:#FFFFFF;stroke:#000000;stroke-width:0.1637;stroke-miterlimit:10;}
	.st48{fill:#E1E1E1;}
	.st49{fill:#578DF3;}
	.st50{fill:#B72516;}
</style>
<g>
	<g>
		<path class="st4" d="M40.5,34.11c0,1.71-1.38,3.09-3.09,3.09c-1.71,0-3.08-1.38-3.08-3.09c0-1.71,1.38-3.08,3.08-3.08
			C39.12,31.03,40.5,32.41,40.5,34.11z"/>
	</g>
	<g>
		<path class="st4" d="M40.5,7.28c0,1.71-1.38,3.08-3.09,3.08c-1.71,0-3.08-1.38-3.08-3.08s1.38-3.08,3.08-3.08
			C39.12,4.2,40.5,5.58,40.5,7.28z"/>
	</g>
	<g>
		<path class="st4" d="M13.67,7.28c0,1.71-1.38,3.08-3.08,3.08c-1.71,0-3.08-1.38-3.08-3.08S8.88,4.2,10.59,4.2
			C12.29,4.2,13.67,5.58,13.67,7.28z"/>
	</g>
	<g>
		<path class="st4" d="M13.67,34.11c0,1.71-1.38,3.09-3.08,3.09c-1.71,0-3.08-1.38-3.08-3.09c0-1.71,1.38-3.08,3.08-3.08
			C12.29,31.03,13.67,32.41,13.67,34.11z"/>
	</g>
	<path d="M37.41,27.87c-0.3,0-0.59,0.02-0.88,0.04c-0.19,0.02-0.37,0.05-0.57,0.08c-0.31,0.05-0.63,0.11-0.93,0.19
		c-0.15,0.04-0.31,0.08-0.45,0.13c-0.15,0.05-0.29,0.09-0.44,0.15s-0.29,0.11-0.44,0.18c-0.18,0.08-0.36,0.15-0.54,0.24
		c-0.13,0.07-0.27,0.14-0.4,0.21c-0.57,0.3-1.1,0.66-1.61,1.08l-3.01-3.01c0.65-0.86,1.08-2,1.08-3.15c0-1.15-0.43-2.3-1.08-3.16
		l3.01-3.01c1.65,1.43,3.88,2.29,6.24,2.29c5.24,0,9.54-4.31,9.54-9.54c0-5.23-4.31-9.54-9.54-9.54s-9.54,4.31-9.54,9.54
		c0,2.37,0.86,4.52,2.29,6.25l-3.01,3.01c-0.86-0.65-2.01-1.08-3.16-1.08c-1.22,0-2.29,0.43-3.16,1.08l-3.01-3.01
		c1.44-1.65,2.3-3.88,2.3-6.25c0-5.23-4.24-9.54-9.54-9.54c-5.24,0-9.54,4.31-9.54,9.54c0,5.24,4.31,9.54,9.54,9.54
		c2.37,0,4.52-0.86,6.24-2.29l3.01,3.01c-0.64,0.86-1.08,2-1.08,3.16c0,1.15,0.44,2.29,1.08,3.15l-3.01,3.01
		c-1.65-1.43-3.87-2.29-6.24-2.29c-5.24,0-9.54,4.24-9.54,9.54c0,5.23,4.31,9.54,9.54,9.54c5.24,0,9.54-4.31,9.54-9.54
		c0-2.37-0.86-4.52-2.3-6.24l3.01-3.01c0.86,0.64,2.01,1.07,3.16,1.07s2.29-0.43,3.16-1.07l3.01,3.01
		c-0.75,0.86-1.34,1.87-1.72,2.98c-0.05,0.15-0.1,0.29-0.15,0.44c-0.05,0.15-0.08,0.3-0.13,0.45c-0.04,0.15-0.07,0.31-0.11,0.46
		c-0.02,0.13-0.05,0.25-0.07,0.38c-0.04,0.21-0.06,0.43-0.08,0.65c-0.02,0.29-0.04,0.58-0.04,0.88c0,5.23,4.3,9.54,9.54,9.54
		s9.54-4.31,9.54-9.54C46.96,32.11,42.65,27.87,37.41,27.87z M37.41,2.48c4.45,0,8.11,3.66,8.11,8.1c0,1.81-0.6,3.5-1.63,4.85
		c-1.48,1.97-3.84,3.26-6.48,3.26c-2.63,0-4.99-1.28-6.48-3.25c-1.02-1.36-1.63-3.04-1.63-4.86C29.31,6.14,32.89,2.48,37.41,2.48z
		 M10.59,18.69c-2.65,0-5.01-1.27-6.49-3.24c-1.02-1.35-1.61-3.04-1.61-4.86c0-4.44,3.66-8.1,8.11-8.1s8.11,3.66,8.11,8.1
		c0,1.84-0.6,3.53-1.61,4.89C15.61,17.43,13.26,18.69,10.59,18.69z M10.59,29.31c4.45,0,8.11,3.66,8.11,8.11
		c0,1.81-0.6,3.5-1.61,4.86c-1.48,1.96-3.82,3.24-6.49,3.24c-2.65,0-5-1.29-6.49-3.27c-1.02-1.36-1.62-3.04-1.62-4.84
		C2.48,32.97,6.13,29.31,10.59,29.31z M24,27.87c-2.15,0-3.87-1.72-3.87-3.87c0-2.16,1.72-3.88,3.87-3.88s3.88,1.72,3.88,3.88
		C27.88,26.15,26.15,27.87,24,27.87z M43.9,42.26c-1.48,1.97-3.84,3.27-6.49,3.27c-2.64,0-4.99-1.28-6.48-3.26
		c-1.02-1.36-1.63-3.04-1.63-4.85c0-4.45,3.66-8.11,8.11-8.11c0.14,0,0.28,0,0.41,0.01c0.28,0.02,0.55,0.05,0.82,0.08
		c0.34,0.05,0.68,0.13,1,0.22c0.01,0,0.01,0,0.01,0c2.29,0.67,4.17,2.33,5.15,4.47c0.07,0.16,0.14,0.34,0.21,0.5
		c0.07,0.18,0.13,0.37,0.18,0.56c0.06,0.2,0.11,0.41,0.15,0.61c0.11,0.54,0.17,1.09,0.17,1.64C45.52,39.22,44.92,40.9,43.9,42.26z"
		/>
	<g>
		<path class="st4" d="M37.41,38.78c-2.73,0-5.1,1.41-6.48,3.49c1.48,1.97,3.84,3.26,6.48,3.26c2.65,0,5-1.29,6.49-3.27
			C42.52,40.19,40.14,38.78,37.41,38.78z"/>
	</g>
	<g>
		<path class="st4" d="M10.59,38.78c-2.72,0-5.1,1.41-6.49,3.48c1.48,1.97,3.84,3.27,6.49,3.27c2.68,0,5.02-1.28,6.49-3.24
			C15.7,40.19,13.32,38.78,10.59,38.78z"/>
	</g>
	<g>
		<path class="st4" d="M37.41,11.95c-2.73,0-5.1,1.41-6.48,3.49c1.49,1.97,3.85,3.25,6.48,3.25c2.64,0,5-1.28,6.48-3.26
			C42.52,13.36,40.14,11.95,37.41,11.95z"/>
	</g>
	<g>
		<path class="st4" d="M10.59,18.69c2.68,0,5.02-1.25,6.5-3.22c-1.38-2.1-3.76-3.52-6.5-3.52c-2.73,0-5.11,1.41-6.49,3.5
			C5.58,17.42,7.94,18.69,10.59,18.69z"/>
	</g>
</g>
</svg>
