<?xml version="1.0" encoding="utf-8"?>
<!-- Generator: Adobe Illustrator 28.1.0, SVG Export Plug-In . SVG Version: 6.00 Build 0)  -->
<svg version="1.1" id="Layer_1" xmlns="http://www.w3.org/2000/svg" xmlns:xlink="http://www.w3.org/1999/xlink" x="0px" y="0px"
	 viewBox="0 0 48 48" style="enable-background:new 0 0 48 48;" xml:space="preserve">
<style type="text/css">
	.st0{fill:#800080;}
	.st1{fill-rule:evenodd;clip-rule:evenodd;}
	.st2{fill-rule:evenodd;clip-rule:evenodd;fill:#800080;}
	.st3{fill-rule:evenodd;clip-rule:evenodd;fill:#762E82;}
	.st4{fill:#762E82;}
</style>
<rect x="3.16" y="42.48" class="st0" width="41.76" height="3.42"/>
<g>
	<path class="st1" d="M45.05,41.68h-1.56v-17.3V20.5v-3.62v-3.87V9.39V5.52V1.84c0-0.4-0.33-0.73-0.73-0.73H22.68
		c-0.4,0-0.73,0.33-0.73,0.73v13.28H5.24c-0.4,0-0.73,0.33-0.73,0.73v25.83H2.95c-0.4,0-0.73,0.33-0.73,0.73v3.75
		c0,0.4,0.33,0.73,0.73,0.73h42.11c0.4,0,0.73-0.33,0.73-0.73v-3.75C45.78,42,45.46,41.68,45.05,41.68z M23.41,2.57h18.62v2.22
		H25.84c-0.4,0-0.73,0.33-0.73,0.73v3.87c0,0.4,0.33,0.73,0.73,0.73h16.19v2.16H25.84c-0.4,0-0.73,0.33-0.73,0.73v3.87
		c0,0.4,0.33,0.73,0.73,0.73h16.19v2.16H25.84c-0.4,0-0.73,0.33-0.73,0.73v3.87c0,0.4,0.33,0.73,0.73,0.73h16.19v16.57h-2.59V28.05
		c0-0.4-0.33-0.73-0.73-0.73H26.73c-0.4,0-0.73,0.33-0.73,0.73v13.62h-2.59V15.85V2.57z M42.03,6.25v2.41H26.57V6.25H42.03z
		 M42.03,13.74v2.41H26.57v-2.41H42.03z M42.03,21.23v2.41H26.57v-2.41H42.03z M27.46,41.68V28.78h10.53v12.89H27.46z M5.97,16.58
		h15.98v25.1H5.97V16.58z M44.32,45.43H3.68v-2.29h39.09h0h1.56V45.43z"/>
	<path class="st1" d="M19.3,26.34H8.62c-0.4,0-0.73,0.33-0.73,0.73v4.12c0,0.4,0.33,0.73,0.73,0.73H19.3c0.4,0,0.73-0.33,0.73-0.73
		v-4.12C20.03,26.66,19.7,26.34,19.3,26.34z M18.57,30.46H9.35V27.8h9.22V30.46z"/>
	<path class="st1" d="M19.3,18.59H8.62c-0.4,0-0.73,0.33-0.73,0.73v4.12c0,0.4,0.33,0.73,0.73,0.73H19.3c0.4,0,0.73-0.33,0.73-0.73
		v-4.12C20.03,18.92,19.7,18.59,19.3,18.59z M18.57,22.71H9.35v-2.66h9.22V22.71z"/>
	<path class="st1" d="M19.3,34.08H8.62c-0.4,0-0.73,0.33-0.73,0.73v4.12c0,0.4,0.33,0.73,0.73,0.73H19.3c0.4,0,0.73-0.33,0.73-0.73
		v-4.12C20.03,34.4,19.7,34.08,19.3,34.08z M18.57,38.2H9.35v-2.66h9.22V38.2z"/>
</g>
</svg>
