<?xml version="1.0" encoding="utf-8"?>
<!-- Generator: Adobe Illustrator 28.1.0, SVG Export Plug-In . SVG Version: 6.00 Build 0)  -->
<svg version="1.1" id="Layer_1" xmlns="http://www.w3.org/2000/svg" xmlns:xlink="http://www.w3.org/1999/xlink" x="0px" y="0px"
	 viewBox="0 0 48 48" style="enable-background:new 0 0 48 48;" xml:space="preserve">
<style type="text/css">
	.st0{fill:#800080;}
	.st1{fill-rule:evenodd;clip-rule:evenodd;}
	.st2{fill-rule:evenodd;clip-rule:evenodd;fill:#800080;}
	.st3{fill-rule:evenodd;clip-rule:evenodd;fill:#762E82;}
	.st4{fill:#762E82;}
</style>
<g>
	<g>
		<path d="M16.62,18.96c0,0.25,0.03,0.49,0.09,0.72c0.32,1.28,1.48,2.22,2.85,2.22h1.11c1.37,0,2.53-0.94,2.85-2.22
			c0.06-0.23,0.09-0.47,0.09-0.72c0-0.27-0.16-0.5-0.4-0.6c-0.07-0.03-0.16-0.05-0.25-0.05c-0.09,0-0.18,0.02-0.26,0.05
			c-0.24,0.1-0.4,0.33-0.4,0.6c0,0.26-0.06,0.5-0.18,0.72c-0.25,0.54-0.81,0.91-1.45,0.91h-1.11c-0.63,0-1.19-0.37-1.44-0.91
			c-0.12-0.22-0.18-0.46-0.18-0.72c0-0.27-0.17-0.5-0.4-0.6c-0.08-0.03-0.17-0.05-0.26-0.05c-0.09,0-0.18,0.02-0.26,0.05
			C16.79,18.46,16.62,18.7,16.62,18.96z"/>
		<path d="M16.24,15.33c0.36,0,0.66-0.3,0.66-0.66v-0.98V13.6v-0.35c0-0.36-0.3-0.66-0.66-0.66s-0.66,0.3-0.66,0.66v0.35v0.09v0.98
			C15.57,15.02,15.88,15.33,16.24,15.33z"/>
		<path d="M24,15.33c0.36,0,0.65-0.3,0.65-0.66v-0.98V13.6v-0.35c0-0.36-0.29-0.66-0.65-0.66c-0.37,0-0.66,0.3-0.66,0.66v0.35v0.09
			v0.98C23.33,15.02,23.63,15.33,24,15.33z"/>
		<path d="M20.12,17.11c0.36,0,0.65-0.29,0.65-0.66c0-0.36-0.29-0.65-0.65-0.65c-0.24,0-0.43-0.2-0.43-0.43
			c0-0.24,0.19-0.43,0.43-0.43c0.36,0,0.65-0.3,0.65-0.66c0-0.26-0.15-0.48-0.36-0.59c-0.09-0.04-0.19-0.07-0.29-0.07
			c-0.16,0-0.31,0.02-0.45,0.07c-0.75,0.19-1.3,0.87-1.3,1.68C18.37,16.33,19.15,17.11,20.12,17.11z"/>
		<path d="M44.87,27.74c-0.07-0.66-0.47-1.23-1.06-1.54l-8.21-4.18c-0.56-0.28-1.23-0.28-1.79,0l-7.12,3.62
			c0-0.35-0.17-0.67-0.44-0.87l-1.05-0.76c1.55-0.93,2.67-2.48,3.02-4.32h0.24c1.82,0,3.3-1.48,3.3-3.3v-0.8
			c0-1.07-0.51-2.02-1.3-2.61V8.4c0-3.76-3.06-6.81-6.81-6.81h-7.06c-3.76,0-6.81,3.05-6.81,6.81v4.58c-0.79,0.59-1.3,1.54-1.3,2.61
			v0.8c0,1.82,1.48,3.3,3.3,3.3h0.23c0.35,1.84,1.48,3.4,3.03,4.32l-0.63,0.45c-0.54,0.39-0.86,1.03-0.86,1.7v0.72l-7.18,2.35
			c-2.07,0.68-3.47,2.6-3.47,4.79v9.9c0,0.36,0.3,0.66,0.66,0.66H31c0.85,0.57,1.8,1.12,2.83,1.63c0.27,0.14,0.57,0.21,0.87,0.21
			c0.31,0,0.61-0.07,0.88-0.21c6.5-3.25,9.53-7.58,9.53-13.63C45.11,31.62,45.02,29.19,44.87,27.74z M25.38,25.76v0.58
			c-0.47,0.32-0.78,0.82-0.85,1.4c-0.1,0.93-0.16,2.26-0.2,3.35l-0.54-0.48l-0.51-0.45l-0.51-0.45l-0.94-0.82l1.78-1.63v-0.01
			l0.41-0.37c0.05-0.04,0.09-0.09,0.12-0.14h0.01c0.13-0.17,0.21-0.38,0.22-0.61v-1.1L25.38,25.76z M4.2,43.26v-9.24
			c0-1.62,1.04-3.04,2.57-3.54l6.77-2.22v4.28c0,0.43,0.24,0.81,0.63,0.98c0.39,0.18,0.84,0.11,1.16-0.17l1.71-1.51l2.09,4.26
			c0.18,0.38,0.56,0.61,0.98,0.61c0.42,0,0.8-0.23,0.98-0.61l2.09-4.26l1.12,0.99c0.05,4.26,1.64,7.66,4.92,10.43H4.2z M17.5,26.27
			l-0.32-0.3v-1.15c0.38,0.07,0.78,0.11,1.18,0.11h3.51c0.41,0,0.8-0.04,1.19-0.11v1.15l-0.32,0.3h-0.01l-0.55,0.51l-1.34,1.22
			l-0.49,0.45l-0.23,0.21l-0.23-0.21l-0.5-0.45l-1.33-1.22v-0.01L17.5,26.27z M20.85,29.79l0.01-0.01l1.31,1.15l-2.05,4.19
			l-2.05-4.18l1.31-1.16l0.01,0.01c0.21,0.19,0.47,0.28,0.73,0.28S20.63,29.98,20.85,29.79z M30.44,15.58v0.8
			c0,1.09-0.9,1.98-1.99,1.98h-0.12V13.6h0.12c0.49,0,0.94,0.18,1.29,0.47C30.18,14.44,30.44,14.98,30.44,15.58z M11.88,18.37h-0.11
			c-1.1,0-1.99-0.89-1.99-1.98v-0.8c0-0.61,0.27-1.15,0.7-1.52c0.35-0.29,0.8-0.47,1.29-0.47h0.11V18.37z M11.88,12.14v0.15h-0.11
			c-0.24,0-0.47,0.02-0.69,0.08V8.4c0-3.03,2.47-5.5,5.5-5.5h7.06c3.03,0,5.5,2.47,5.5,5.5v3.97c-0.22-0.06-0.45-0.08-0.69-0.08
			h-0.12v-0.15c0-1.93-1.57-3.5-3.5-3.5h-0.19c-0.73,0-1.48,0.21-2.17,0.6c-0.41,0.24-0.87,0.36-1.35,0.36H19.1
			c-0.47,0-0.94-0.12-1.35-0.36c-0.68-0.39-1.43-0.6-2.17-0.6h-0.18C13.46,8.64,11.88,10.21,11.88,12.14z M13.36,19.69
			c-0.1-0.39-0.15-0.8-0.15-1.22v-6.33c0-1.2,0.98-2.19,2.19-2.19h0.18c0.51,0,1.03,0.15,1.52,0.43c0.6,0.35,1.3,0.54,2,0.54h2.03
			c0.71,0,1.4-0.19,2.01-0.54c0.48-0.28,1.01-0.43,1.51-0.43h0.19c1.21,0,2.19,0.99,2.19,2.19v6.33c0,0.42-0.05,0.83-0.15,1.22
			c-0.38,1.57-1.48,2.87-2.94,3.5c-0.05,0.03-0.09,0.05-0.14,0.06c-0.6,0.25-1.25,0.38-1.93,0.38h-3.51c-0.68,0-1.34-0.13-1.93-0.38
			c-0.05-0.02-0.09-0.03-0.13-0.06C14.85,22.56,13.74,21.26,13.36,19.69z M14.86,26.15c0-0.25,0.12-0.49,0.33-0.64l0.68-0.5v1.11
			c0.01,0.23,0.08,0.44,0.23,0.61c0.03,0.05,0.07,0.1,0.12,0.14l0.41,0.37v0.01l1.77,1.62l-0.93,0.83l-0.51,0.45l-0.51,0.45
			l-1.59,1.41V26.15z M37.32,43.71c-0.47,0.31-0.96,0.6-1.48,0.87c-0.28,0.16-0.56,0.3-0.85,0.45c-0.19,0.1-0.41,0.1-0.59,0
			c-0.29-0.15-0.57-0.29-0.85-0.45c-0.4-0.21-0.78-0.43-1.15-0.66c-0.36-0.21-0.7-0.43-1.02-0.66c-3.66-2.52-5.49-5.61-5.75-9.64
			c-0.01-0.22-0.02-0.44-0.02-0.66c-0.01-0.12-0.01-0.25-0.01-0.38c0-0.01,0-0.01,0-0.02c0-0.92,0.08-3.18,0.22-4.58
			c0-0.04,0.01-0.07,0.01-0.1c0.01-0.14,0.08-0.28,0.19-0.39c0.04-0.04,0.08-0.07,0.13-0.1c0.01-0.01,0.02-0.01,0.03-0.02l0.5-0.25
			l0.28-0.15l7.44-3.78c0.18-0.09,0.4-0.09,0.59,0l8.21,4.18c0.2,0.1,0.33,0.3,0.36,0.51c0.15,1.41,0.23,3.77,0.23,4.7
			C43.8,37.38,41.77,40.9,37.32,43.71z"/>
		<path d="M42.57,28.85c-0.03-0.38-0.26-0.72-0.6-0.9l-6.77-3.44c-0.31-0.16-0.68-0.16-0.99,0l-4.88,2.48
			c-0.01,0-0.01,0.01-0.02,0.01l-0.88,0.45l-0.83,0.42l-0.16,0.08c-0.18,0.1-0.33,0.24-0.44,0.41c-0.09,0.15-0.15,0.31-0.16,0.49
			c-0.08,1.16-0.15,2.73-0.15,3.69v0.04c0,2.82,0.76,5.14,2.33,7.1c1.06,1.31,2.49,2.49,4.38,3.58c0.26,0.15,0.52,0.29,0.79,0.44
			c0.16,0.09,0.34,0.13,0.51,0.13c0.18,0,0.36-0.04,0.52-0.13c0.27-0.15,0.53-0.29,0.79-0.44h0.01c0.23-0.14,0.45-0.27,0.66-0.4
			c0.23-0.15,0.44-0.29,0.65-0.44c1.25-0.84,2.26-1.75,3.05-2.74c1.57-1.96,2.33-4.28,2.33-7.1C42.7,31.61,42.64,30.01,42.57,28.85z
			 M39.36,38.86c-0.55,0.68-1.22,1.33-2.03,1.95c-0.21,0.16-0.42,0.32-0.65,0.47c-0.21,0.15-0.43,0.3-0.66,0.44
			c-0.41,0.26-0.85,0.52-1.32,0.77c-2.07-1.12-3.59-2.31-4.65-3.63c-1.38-1.72-2.04-3.77-2.04-6.28c0-0.89,0.05-2.4,0.13-3.51
			l0.4-0.2l0.82-0.43l0.3-0.15c0.01,0,0.01,0,0.02,0l0.51-0.26l4.51-2.3l6.57,3.34c0.07,1.11,0.13,2.62,0.13,3.51
			C41.39,35.08,40.73,37.14,39.36,38.86z"/>
		<path d="M37.2,31.61c-0.24-0.67-0.72-1.2-1.36-1.51c-0.6-0.29-1.26-0.33-1.88-0.15c-0.05,0.01-0.09,0.02-0.14,0.04
			c-0.26,0.09-0.5,0.22-0.71,0.38c-0.34,0.25-0.62,0.58-0.81,0.97c-0.63,1.32-0.07,2.91,1.25,3.54c0.16,0.08,0.32,0.14,0.49,0.18
			v2.46c0,0.36,0.29,0.66,0.65,0.66c0.37,0,0.66-0.3,0.66-0.66v-2.47c0.23-0.05,0.45-0.14,0.66-0.26c0.24-0.14,0.46-0.31,0.66-0.52
			c0.16-0.19,0.3-0.4,0.41-0.63c0.13-0.26,0.21-0.53,0.24-0.8v-0.68C37.32,31.96,37.26,31.79,37.2,31.61z M36.01,32.68
			c-0.01,0.13-0.05,0.26-0.11,0.39c-0.23,0.48-0.71,0.76-1.21,0.76c-0.19,0-0.39-0.04-0.58-0.13c-0.66-0.32-0.94-1.12-0.62-1.79
			c0.15-0.32,0.42-0.56,0.76-0.68c0.34-0.12,0.7-0.1,1.02,0.05c0.41,0.19,0.67,0.57,0.74,0.98C36.05,32.4,36.05,32.54,36.01,32.68z"
			/>
	</g>
	<path class="st0" d="M4.2,34.02v9.24h25.02c-3.28-2.77-4.87-6.17-4.92-10.43l-1.12-0.99L21.1,36.1c-0.18,0.38-0.56,0.61-0.98,0.61
		c-0.42,0-0.8-0.23-0.98-0.61l-2.09-4.26l-1.71,1.51c-0.32,0.28-0.77,0.35-1.16,0.17c-0.39-0.17-0.63-0.55-0.63-0.98v-4.28
		l-6.77,2.22C5.25,30.98,4.2,32.4,4.2,34.02z"/>
</g>
</svg>
