<?xml version="1.0" encoding="utf-8"?>
<!-- Generator: Adobe Illustrator 28.1.0, SVG Export Plug-In . SVG Version: 6.00 Build 0)  -->
<svg version="1.1" id="Layer_1" xmlns="http://www.w3.org/2000/svg" xmlns:xlink="http://www.w3.org/1999/xlink" x="0px" y="0px"
	 viewBox="0 0 48 48" style="enable-background:new 0 0 48 48;" xml:space="preserve">
<style type="text/css">
	.st0{fill:#800080;}
	.st1{fill-rule:evenodd;clip-rule:evenodd;}
	.st2{fill-rule:evenodd;clip-rule:evenodd;fill:#800080;}
	.st3{fill-rule:evenodd;clip-rule:evenodd;fill:#762E82;}
	.st4{fill:#762E82;}
</style>
<g>
	<path d="M25.72,21.84l0.99-1.07c-0.56-0.66-1.26-1.05-2.09-1.16v-1.28h-1.03v1.28c-0.8,0.13-1.47,0.51-2,1.13
		c-0.53,0.62-0.8,1.35-0.8,2.18c0,0.83,0.27,1.55,0.8,2.18c0.53,0.62,1.2,1,2,1.13v1.24h1.03v-1.24c0.84-0.11,1.53-0.5,2.09-1.16
		l-0.99-1.07c-0.36,0.33-0.72,0.54-1.1,0.61v-3.37C24.99,21.3,25.36,21.51,25.72,21.84z M23.58,24.56c-0.33-0.1-0.6-0.31-0.82-0.6
		c-0.21-0.3-0.32-0.64-0.32-1.05c0-0.4,0.11-0.75,0.32-1.05s0.49-0.5,0.82-0.6V24.56z"/>
	<path d="M33.76,33.47c-0.57-0.15-1.16-0.08-1.67,0.22l-4.63,2.68c-0.01-0.19-0.03-0.37-0.08-0.56c-0.36-1.33-1.72-2.11-3.05-1.76
		l-1.97,0.53c-0.72,0.19-1.39,0.11-2.04-0.27l-2.62-1.52c-1.09-0.63-2.17-0.23-3.41,0.24c-0.66,0.25-1.4,0.53-2.27,0.7l-0.03-0.1
		c-0.06-0.24-0.22-0.44-0.43-0.56c-0.21-0.12-0.46-0.16-0.7-0.09l-2.85,0.86c-0.49,0.13-0.78,0.64-0.65,1.13l2.6,9.68
		c0.06,0.24,0.22,0.44,0.43,0.56c0.14,0.08,0.3,0.12,0.46,0.12c0.08,0,0.16-0.01,0.24-0.03l2.85-0.86c0.46-0.12,0.74-0.57,0.67-1.03
		c2.05-0.43,3.36-0.06,5.12,0.44c0.33,0.09,0.66,0.19,1.02,0.29c0.32,0.09,0.63,0.13,0.94,0.13c0.6,0,1.18-0.16,1.74-0.48
		l10.86-6.27c0.51-0.29,0.87-0.77,1.02-1.34c0.15-0.57,0.08-1.16-0.22-1.67C34.81,33.99,34.33,33.63,33.76,33.47z M34.24,35.88
		c-0.08,0.28-0.25,0.51-0.5,0.66l-10.86,6.27c-0.58,0.34-1.18,0.42-1.83,0.24c-0.35-0.09-0.68-0.19-1.01-0.28
		c-1.86-0.53-3.36-0.96-5.71-0.45l-2.01-7.51c0.93-0.19,1.72-0.49,2.37-0.74c1.2-0.45,1.85-0.67,2.46-0.32l2.62,1.52
		c0.91,0.52,1.88,0.65,2.89,0.38l1.97-0.53c0.73-0.2,1.48,0.24,1.68,0.97c0.2,0.73-0.24,1.48-0.97,1.68l-2.88,0.77
		c-0.47,0.13-0.93,0.13-1.37,0.01c-0.3-0.08-0.61,0.1-0.69,0.39c-0.08,0.3,0.1,0.61,0.39,0.69c0.31,0.08,0.62,0.12,0.94,0.12
		c0.33,0,0.67-0.05,1.01-0.14l2.88-0.77c0.56-0.15,1.02-0.48,1.34-0.9l5.7-3.29c0.25-0.14,0.54-0.18,0.82-0.11
		c0.28,0.08,0.51,0.25,0.66,0.5C34.28,35.31,34.31,35.6,34.24,35.88z"/>
	<path d="M40.02,9.24h-2.29c-0.52,0-0.95,0.34-1.11,0.8c-2.66-0.18-4.47-0.9-6.32-1.91c-0.45-0.25-0.95-0.32-1.43-0.22
		c-0.01-0.01-0.02-0.02-0.03-0.03c-0.34-0.36-1.15-0.77-2.82,0.46c-0.45-0.98-1.16-1.55-1.96-1.55c-0.79,0-1.51,0.57-1.96,1.55
		c-1.67-1.23-2.48-0.83-2.82-0.46c-0.71,0.75-0.28,2.28,1.05,3.84c-0.3,0.2-0.49,0.54-0.49,0.92v0.51c0,0.23,0.07,0.45,0.2,0.63
		c-0.94,0.75-1.81,1.66-2.57,2.67c-1.13-1.09-2.67-1.76-4.36-1.76c-3.48,0-6.3,2.82-6.3,6.3s2.82,6.3,6.3,6.3
		c0.74,0,1.46-0.14,2.12-0.37c0.53,1.74,1.54,3.09,3.03,4c1.5,0.93,3.46,1.4,5.81,1.4c5.98,0,9.27-3.04,9.27-8.55
		c0-1.13-0.21-2.31-0.61-3.47h1.21c0.98,0,1.95-0.26,2.81-0.75c0.21,0.33,0.57,0.54,0.99,0.54h2.29c0.64,0,1.17-0.52,1.17-1.17
		v-8.51C41.19,9.77,40.67,9.24,40.02,9.24z M20.1,8.65c0.07-0.04,0.55-0.03,1.52,0.73c0.23,0.18,0.54,0.24,0.82,0.16
		c0.28-0.08,0.5-0.27,0.59-0.53c0.25-0.67,0.65-1.1,1.02-1.1c0.37,0,0.77,0.43,1.02,1.1c0.1,0.26,0.32,0.46,0.59,0.53
		c0.29,0.08,0.59,0.02,0.82-0.16c0.97-0.76,1.45-0.77,1.52-0.74c0.14,0.16-0.04,1.19-1.23,2.52c-0.11,0.13-0.23,0.25-0.35,0.37
		h-4.76c-0.12-0.12-0.24-0.24-0.35-0.37C20.15,9.83,19.97,8.81,20.1,8.65z M13.11,26.43c-2.99,0-5.43-2.44-5.43-5.43
		s2.44-5.43,5.43-5.43c2.99,0,5.43,2.44,5.43,5.43S16.11,26.43,13.11,26.43z M24.07,31.21c-2.99,0-6.69-0.85-7.81-4.76c0,0,0,0,0,0
		c1.88-1.09,3.15-3.12,3.15-5.45c0-1.38-0.45-2.64-1.19-3.68c0.86-1.19,1.92-2.25,3.04-3.05h5.09c-1.06,0.67-1.41,2.08-0.78,3.17
		c0.44,0.76,1.23,1.18,2.05,1.18c0.4,0,0.81-0.1,1.18-0.32l1.29-0.74c1.38,1.99,2.13,4.18,2.13,6.21
		C32.22,29.92,27.79,31.21,24.07,31.21z M36.57,18.35c-0.77,0.55-1.67,0.83-2.62,0.83h-1.65c-0.33-0.74-0.75-1.47-1.23-2.18
		l2.52-1.46c0.27-0.15,0.36-0.5,0.2-0.76c-0.15-0.27-0.5-0.36-0.76-0.2l-4.79,2.76c-0.59,0.34-1.36,0.14-1.7-0.45
		c-0.34-0.59-0.14-1.36,0.46-1.7l3.24-1.87c0.27-0.15,0.36-0.5,0.2-0.76c-0.15-0.27-0.5-0.36-0.76-0.2l-1.39,0.8v-0.51
		c0-0.38-0.2-0.72-0.49-0.92c0.84-0.98,1.32-1.95,1.38-2.73c0.2-0.02,0.4,0.02,0.59,0.12c1.99,1.09,3.93,1.85,6.8,2.05V18.35z"/>
	<g>
		<path class="st0" d="M14.12,19.31c0-0.55-0.45-1.01-1.01-1.01s-1.01,0.45-1.01,1.01v0.45h2.01V19.31z"/>
		<path class="st0" d="M14.49,20.26h-2.75c-0.48,0-0.87,0.39-0.87,0.87v1.68c0,0.48,0.39,0.87,0.87,0.87h2.75
			c0.48,0,0.87-0.39,0.87-0.87v-1.68C15.36,20.65,14.97,20.26,14.49,20.26z"/>
		<path class="st0" d="M13.11,15.56c-2.99,0-5.43,2.44-5.43,5.43s2.44,5.43,5.43,5.43c2.99,0,5.43-2.44,5.43-5.43
			S16.11,15.56,13.11,15.56z M15.86,22.81c0,0.76-0.61,1.37-1.37,1.37h-2.75c-0.76,0-1.37-0.61-1.37-1.37v-1.68
			c0-0.71,0.55-1.29,1.24-1.36v-0.46c0-0.83,0.67-1.5,1.5-1.5c0.83,0,1.5,0.67,1.5,1.5v0.46c0.7,0.07,1.24,0.65,1.24,1.36V22.81z"/>
	</g>
</g>
</svg>
