<?xml version="1.0" encoding="utf-8"?>
<!-- Generator: Adobe Illustrator 28.1.0, SVG Export Plug-In . SVG Version: 6.00 Build 0)  -->
<svg version="1.1" id="Layer_1" xmlns="http://www.w3.org/2000/svg" xmlns:xlink="http://www.w3.org/1999/xlink" x="0px" y="0px"
	 viewBox="0 0 48 48" style="enable-background:new 0 0 48 48;" xml:space="preserve">
<style type="text/css">
	.st0{fill:#800080;}
	.st1{fill-rule:evenodd;clip-rule:evenodd;}
	.st2{fill-rule:evenodd;clip-rule:evenodd;fill:#800080;}
	.st3{fill-rule:evenodd;clip-rule:evenodd;fill:#762E82;}
	.st4{fill:#762E82;}
</style>
<g>
	<g>
		<path d="M18.78,19.65c0,0.26,0.03,0.51,0.1,0.75c0.33,1.35,1.56,2.36,3.02,2.36h1.18c1.46,0,2.68-1,3.02-2.36
			c0.06-0.24,0.09-0.49,0.09-0.75c0-0.28-0.17-0.53-0.41-0.64c-0.09-0.03-0.18-0.06-0.28-0.06c-0.1,0-0.19,0.02-0.28,0.06
			c-0.25,0.11-0.41,0.36-0.41,0.64c0,0.27-0.06,0.52-0.18,0.75c-0.28,0.57-0.87,0.97-1.54,0.97h-1.18c-0.68,0-1.27-0.4-1.54-0.97
			c-0.11-0.23-0.18-0.48-0.18-0.75c0-0.28-0.17-0.53-0.41-0.64c-0.09-0.03-0.18-0.06-0.28-0.06c-0.1,0-0.19,0.02-0.28,0.06
			C18.95,19.13,18.78,19.37,18.78,19.65z"/>
		<path d="M18.38,15.8c0.38,0,0.69-0.31,0.69-0.69v-1.03v-0.1V13.6c0-0.38-0.32-0.69-0.69-0.69c-0.38,0-0.7,0.31-0.7,0.69v0.37v0.1
			v1.03C17.68,15.49,18,15.8,18.38,15.8z"/>
		<path d="M26.58,15.8c0.38,0,0.69-0.31,0.69-0.69v-1.03v-0.1V13.6c0-0.38-0.31-0.69-0.69-0.69c-0.38,0-0.69,0.31-0.69,0.69v0.37
			v0.1v1.03C25.89,15.49,26.2,15.8,26.58,15.8z"/>
		<path d="M22.48,17.68c0.38,0,0.69-0.31,0.69-0.69c0-0.38-0.31-0.69-0.69-0.69c-0.25,0-0.45-0.21-0.45-0.46
			c0-0.25,0.2-0.45,0.45-0.45c0.38,0,0.69-0.32,0.69-0.7c0-0.26-0.15-0.5-0.38-0.61c-0.09-0.05-0.2-0.08-0.32-0.08
			c-0.18,0-0.36,0.03-0.52,0.08c-0.76,0.22-1.32,0.93-1.32,1.77C20.63,16.86,21.46,17.68,22.48,17.68z"/>
		<path d="M45.65,30.58l-3.61-5.04c-0.27-0.38-0.9-0.38-1.17,0c0,0-3.59,5.02-3.61,5.04l-7.84-2.56v-1.31
			c0-0.37-0.18-0.71-0.47-0.92l-1.09-0.8c1.63-0.99,2.82-2.64,3.19-4.58h0.24c1.93,0,3.49-1.56,3.49-3.49v-0.84
			c0-1.13-0.54-2.14-1.38-2.78V8.47c0-3.97-3.23-7.21-7.2-7.21h-7.47c-3.97,0-7.2,3.23-7.2,7.21c0,0.02,0,0.05,0.01,0.07
			c-0.01,0.03-0.01,0.05-0.01,0.07v4.68c-0.84,0.64-1.38,1.65-1.38,2.78v0.84c0,1.93,1.56,3.49,3.49,3.49h0.25
			c0.37,1.94,1.56,3.59,3.19,4.58l-0.65,0.47c-0.58,0.42-0.92,1.09-0.92,1.8v0.76l-7.6,2.49c-2.2,0.72-3.67,2.75-3.67,5.06v10.47
			c0,0.38,0.32,0.69,0.69,0.69H40c0.38,0,0.69-0.31,0.69-0.69v-8.55h2.21c0.4,0,0.72-0.32,0.72-0.72v-5.04h1.44
			C45.62,31.72,45.99,31.06,45.65,30.58z M16.92,28.55V27.7v-0.14v-0.3c0-0.26,0.13-0.52,0.34-0.68l0.72-0.53v1.16v0.01
			c0.01,0.24,0.09,0.46,0.24,0.65c0.04,0.05,0.08,0.1,0.13,0.15l0.44,0.4l1.88,1.72l-0.99,0.88l-0.54,0.48l-0.54,0.48l-1.68,1.48
			v-4.43V28.55z M15.17,19.12v-0.1v-4.95v-0.1v-1.3v-0.1v-0.15c0-1.28,1.04-2.32,2.32-2.32h0.19c0.54,0,1.09,0.15,1.6,0.45
			c0.65,0.37,1.38,0.57,2.13,0.57h2.14c0.75,0,1.48-0.19,2.13-0.57c0.51-0.3,1.07-0.45,1.6-0.45h0.19c1.28,0,2.32,1.04,2.32,2.32
			v0.15v0.1v1.3v0.1v4.95v0.1c0,0.45-0.05,0.88-0.15,1.29c-0.41,1.66-1.57,3.03-3.11,3.7c-0.05,0.02-0.09,0.04-0.14,0.06
			c-0.64,0.26-1.33,0.41-2.06,0.41h-3.71c-0.73,0-1.42-0.14-2.06-0.41c0,0,0,0-0.01,0c-0.05-0.02-0.09-0.03-0.14-0.06
			c-1.53-0.68-2.69-2.04-3.1-3.7C15.22,19.99,15.17,19.56,15.17,19.12z M13.66,19.02c-1.16,0-2.1-0.94-2.1-2.1v-0.84
			c0-0.64,0.29-1.22,0.75-1.61c0.37-0.3,0.84-0.49,1.36-0.49h0.13v0.1v4.95H13.66z M33.41,16.91c0,1.16-0.95,2.1-2.1,2.1h-0.12
			v-4.95v-0.1h0.12c0.52,0,0.99,0.19,1.36,0.49c0.46,0.39,0.75,0.97,0.75,1.61V16.91z M28.04,27.56v0.14v0.84v0.48v4.43l-1.67-1.48
			l-0.54-0.48l-0.54-0.48l-0.99-0.88l1.89-1.73l0.43-0.4c0.05-0.05,0.1-0.1,0.13-0.15c0.15-0.19,0.23-0.41,0.24-0.65v-1.16
			l1.06,0.77V27.56z M19.72,27.38l-0.34-0.32v-0.3v-0.01v-0.91c0.41,0.07,0.83,0.11,1.26,0.11h1.16h0.02h1.35h1.18
			c0.42,0,0.84-0.04,1.25-0.11v0.91v0.01v0.3l-0.34,0.32l-0.58,0.53v0.01l-1.41,1.29l-0.52,0.48l-0.25,0.23l-0.25-0.23l-0.52-0.48
			l-1.41-1.29v-0.01L19.72,27.38z M21.7,31.08l0.01,0.01c0.22,0.2,0.49,0.3,0.77,0.3c0.28,0,0.55-0.1,0.77-0.3l0.01-0.01l1.39,1.23
			l-2.17,4.43l-2.17-4.43L21.7,31.08z M12.93,8.47c0-3.21,2.61-5.81,5.81-5.81h7.47c3.2,0,5.81,2.6,5.81,5.81v4.18
			c-0.24-0.05-0.48-0.07-0.73-0.07h-0.12v-0.15c0-2.04-1.66-3.7-3.71-3.7h-0.19c-0.78,0-1.57,0.22-2.29,0.64
			c-0.44,0.25-0.93,0.38-1.43,0.38h-2.14c-0.5,0-1-0.13-1.43-0.38c-0.72-0.42-1.52-0.64-2.3-0.64h-0.19c-2.04,0-3.7,1.66-3.7,3.7
			v0.15h-0.13c-0.25,0-0.49,0.03-0.73,0.07V8.47z M39.3,45.34H5.66v-9.77c0-1.71,1.09-3.21,2.71-3.74l7.16-2.34V34
			c0,0.46,0.26,0.85,0.67,1.04c0.15,0.07,0.32,0.1,0.47,0.1c0.28,0,0.54-0.1,0.76-0.29l1.8-1.59l2.21,4.51
			c0.19,0.4,0.6,0.65,1.04,0.65c0.45,0,0.84-0.25,1.04-0.65l2.21-4.51l1.81,1.59c0.34,0.3,0.81,0.37,1.23,0.19
			c0.41-0.19,0.67-0.58,0.67-1.04v-4.52l9.87,3.23v4.05c0,0.02,0,0.03,0.01,0.05V45.34z M42.9,30.28c-0.4,0-0.72,0.33-0.72,0.72
			v5.04h-1.44V31c0-0.4-0.32-0.72-0.72-0.72h-0.76l2.2-3.08l2.2,3.08H42.9z"/>
		<path d="M4.38,28.08c0,0.4,0.32,0.72,0.72,0.72h2.88c0.4,0,0.72-0.33,0.72-0.72v-5.04h1.44c0.55,0,0.93-0.66,0.58-1.14l-3.61-5.05
			c-0.27-0.38-0.9-0.38-1.17,0c0,0-3.59,5.02-3.61,5.05c-0.33,0.46,0.02,1.14,0.58,1.14h1.44V28.08z M4.34,21.59l2.2-3.08l2.2,3.08
			H7.98c-0.4,0-0.72,0.32-0.72,0.72v5.04H5.82v-5.04c0-0.4-0.32-0.72-0.72-0.72H4.34z"/>
	</g>
	<path class="st0" d="M39.3,36.82c-0.01-0.02-0.01-0.03-0.01-0.05v-4.05l-9.87-3.23V34c0,0.46-0.26,0.85-0.67,1.04
		c-0.42,0.18-0.89,0.11-1.23-0.19l-1.81-1.59l-2.21,4.51c-0.2,0.4-0.6,0.65-1.04,0.65c-0.44,0-0.84-0.25-1.04-0.65l-2.21-4.51
		l-1.8,1.59c-0.22,0.19-0.48,0.29-0.76,0.29c-0.15,0-0.32-0.03-0.47-0.1c-0.41-0.19-0.67-0.58-0.67-1.04v-4.52l-7.16,2.34
		c-1.62,0.53-2.71,2.03-2.71,3.74v9.77H39.3V36.82z"/>
</g>
</svg>
