<?xml version="1.0" encoding="utf-8"?>
<!-- Generator: Adobe Illustrator 28.1.0, SVG Export Plug-In . SVG Version: 6.00 Build 0)  -->
<svg version="1.1" id="Layer_1" xmlns="http://www.w3.org/2000/svg" xmlns:xlink="http://www.w3.org/1999/xlink" x="0px" y="0px"
	 viewBox="0 0 48 48" style="enable-background:new 0 0 48 48;" xml:space="preserve">
<style type="text/css">
	.st0{fill:#800080;}
	.st1{fill-rule:evenodd;clip-rule:evenodd;}
	.st2{fill-rule:evenodd;clip-rule:evenodd;fill:#800080;}
	.st3{fill-rule:evenodd;clip-rule:evenodd;fill:#762E82;}
	.st4{fill:#762E82;}
</style>
<g id="_608897744_00000129167763523488949440000016038852990208288701_">
	<g>
		<path id="_608898488_00000100375554245131702410000012404822195418946231_" class="st1" d="M31.56,43.58
			c-5.28,0-10.61-2.77-12.76-4.31c-1.95-1.39-5.51-1.02-6.55-0.88c-0.49,0.07-0.96-0.24-1.09-0.72L8.35,27.2
			c-0.07-0.25-0.03-0.52,0.1-0.75c0.13-0.23,0.35-0.39,0.6-0.46l4.19-1.12c6.57-2.3,13.02,0.98,18.7,3.88
			c1.12,0.57,1.84,1.64,1.86,2.79c0.02,0.94-0.45,1.76-1.26,2.22c-1.06,0.59-3.09,0.8-6.76-1.56c-0.23-0.15-0.41-0.25-0.55-0.31
			c0.13,0.52,0.5,1.35,1.07,1.95c2.78,2.99,7.2,2.61,7.25,2.6l7.96-0.9c2.14-0.24,3.32,0.83,3.53,2c0.24,1.33-0.7,2.97-2.98,3.54
			c-1.11,0.28-3.08,0.82-6.2,1.81c-0.52,0.16-1.07-0.12-1.24-0.64c-0.16-0.52,0.12-1.07,0.64-1.24c3.16-1,5.17-1.55,6.31-1.84
			c1.14-0.29,1.58-0.93,1.52-1.28c-0.05-0.27-0.53-0.49-1.36-0.39l-7.98,0.9c-0.24,0.02-5.46,0.48-8.9-3.22
			c-1.14-1.23-2.24-3.66-1.24-4.86c0.47-0.56,1.41-0.97,3.24,0.21c2.54,1.63,4.13,1.83,4.73,1.49c0.11-0.06,0.26-0.18,0.25-0.45
			c-0.01-0.34-0.25-0.79-0.78-1.06c-5.34-2.72-11.4-5.8-17.19-3.76c-0.02,0.01-0.05,0.02-0.07,0.02l-3.28,0.88l2.33,8.7
			c1.87-0.17,5-0.17,7.1,1.32c2.07,1.47,7.29,4.18,12.27,3.93c0.54-0.03,1.01,0.39,1.04,0.93c0.03,0.54-0.39,1.01-0.93,1.04
			C32.06,43.57,31.81,43.58,31.56,43.58L31.56,43.58z"/>
	</g>
	<g>
		<path id="_608898152_00000147221788974063967380000007648488437507788186_" class="st1" d="M7.61,41.33
			c-0.17,0-0.34-0.05-0.49-0.13c-0.23-0.13-0.39-0.35-0.46-0.6l-1.99-7.42c-0.14-0.53,0.17-1.07,0.7-1.21
			c0.53-0.14,1.07,0.17,1.21,0.7l1.73,6.46l3.02-0.81L8.16,26.5L5.14,27.3l0.64,2.4c0.14,0.53-0.17,1.07-0.7,1.21
			c-0.53,0.14-1.07-0.17-1.21-0.7l-0.9-3.36c-0.14-0.53,0.17-1.07,0.7-1.21l4.93-1.32c0.53-0.14,1.07,0.17,1.21,0.7l3.68,13.74
			c0.14,0.53-0.17,1.07-0.7,1.21L7.87,41.3C7.78,41.32,7.7,41.33,7.61,41.33L7.61,41.33z"/>
	</g>
	<g>
		<path id="_608897912_00000178183995494797256320000017910941545797519785_" class="st1" d="M33.63,38.4
			c-0.41,0-0.78-0.25-0.92-0.64c-0.16-0.42-0.01-0.9,0.35-1.16l7-4.93c0.06-0.05,0.13-0.08,0.21-0.11c0.56-0.22,1.1-0.33,1.6-0.33
			c1.22,0,2.19,0.69,2.47,1.76c0.3,1.13-0.24,2.74-2.11,3.79c-0.33,0.19-0.74,0.42-1.24,0.71c-0.12,0.07-0.25,0.11-0.39,0.13
			l-6.87,0.77C33.7,38.39,33.66,38.4,33.63,38.4L33.63,38.4z M41.09,33.36L37.35,36l2.83-0.32c0.43-0.25,0.79-0.46,1.09-0.62
			c1-0.56,1.24-1.26,1.16-1.56c-0.06-0.23-0.34-0.28-0.56-0.28C41.65,33.21,41.38,33.26,41.09,33.36L41.09,33.36z"/>
	</g>
	<g>
		<path id="_608897600_00000004506502074180142460000006666526332819125899_" class="st2" d="M38.03,25.27
			c-0.14,0-0.29-0.03-0.42-0.09l-2.41-1.14l-2.52,0.88c-0.32,0.11-0.68,0.05-0.95-0.16c-0.27-0.22-0.4-0.55-0.36-0.89l0.34-2.64
			L30.1,19.1c-0.21-0.27-0.26-0.63-0.14-0.95c0.12-0.32,0.4-0.55,0.74-0.62l2.62-0.49l1.52-2.19c0.19-0.28,0.52-0.45,0.86-0.42
			c0.34,0.02,0.65,0.21,0.81,0.51l1.28,2.34l2.55,0.77c0.33,0.1,0.58,0.36,0.67,0.69c0.09,0.33,0,0.68-0.24,0.93l-1.83,1.94
			l0.06,2.55c0.01,0.05,0.01,0.09,0.01,0.14C39.02,24.83,38.58,25.28,38.03,25.27C38.03,25.27,38.03,25.27,38.03,25.27L38.03,25.27z
			 M35.25,21.99c0.14,0,0.29,0.03,0.42,0.09L37,22.71l-0.03-1.47c-0.01-0.26,0.09-0.51,0.27-0.7l1.01-1.07l-1.41-0.42
			c-0.25-0.07-0.46-0.24-0.58-0.47l-0.71-1.29l-0.84,1.21c-0.15,0.21-0.37,0.36-0.63,0.41l-1.45,0.27l0.89,1.17
			c0.16,0.21,0.23,0.47,0.19,0.72l-0.19,1.46l1.39-0.49C35.03,22.01,35.14,21.99,35.25,21.99L35.25,21.99z"/>
	</g>
	<g>
		<path id="_608897528_00000013894850997031306050000014130515448447894694_" class="st2" d="M27.31,20.53
			c-0.14,0-0.29-0.03-0.42-0.09l-1.81-0.86l-1.89,0.66c-0.32,0.11-0.68,0.05-0.95-0.16c-0.27-0.22-0.4-0.55-0.36-0.89l0.25-1.98
			l-1.21-1.59c-0.21-0.27-0.26-0.63-0.14-0.95c0.12-0.32,0.4-0.55,0.74-0.62l1.97-0.37l1.14-1.64c0.19-0.28,0.52-0.45,0.86-0.42
			c0.34,0.02,0.65,0.21,0.81,0.51l0.96,1.76l1.92,0.57c0.33,0.1,0.58,0.36,0.67,0.69c0.09,0.33,0,0.68-0.24,0.93l-1.37,1.46
			l0.04,1.88c0.01,0.05,0.01,0.09,0.01,0.14C28.31,20.09,27.86,20.53,27.31,20.53C27.32,20.53,27.31,20.53,27.31,20.53L27.31,20.53z
			 M25.14,17.53c0.14,0,0.29,0.03,0.42,0.09l0.73,0.34l-0.02-0.81c-0.01-0.26,0.09-0.51,0.27-0.7l0.55-0.59l-0.77-0.23
			c-0.25-0.07-0.46-0.24-0.58-0.47l-0.39-0.71l-0.46,0.66c-0.15,0.21-0.37,0.36-0.63,0.41l-0.79,0.15l0.49,0.64
			c0.16,0.21,0.23,0.47,0.19,0.72l-0.1,0.8l0.76-0.27C24.92,17.55,25.03,17.53,25.14,17.53L25.14,17.53z"/>
	</g>
	<g>
		<path id="_608897432_00000005252292420500354450000015241490563514926241_" class="st2" d="M35.21,13.35
			c-0.14,0-0.29-0.03-0.42-0.09l-1.81-0.86l-1.89,0.66c-0.32,0.11-0.68,0.05-0.95-0.16c-0.27-0.22-0.4-0.55-0.36-0.89l0.25-1.98
			l-1.21-1.59c-0.21-0.27-0.26-0.63-0.14-0.95c0.12-0.32,0.4-0.55,0.74-0.62l1.97-0.37l1.14-1.64c0.19-0.28,0.52-0.45,0.86-0.42
			c0.34,0.02,0.65,0.21,0.81,0.51l0.96,1.75l1.92,0.57c0.33,0.1,0.58,0.36,0.67,0.69c0.09,0.33,0,0.68-0.24,0.93l-1.37,1.46
			l0.04,1.88c0.01,0.05,0.01,0.09,0.01,0.14C36.21,12.91,35.76,13.35,35.21,13.35C35.22,13.35,35.21,13.35,35.21,13.35z
			 M33.04,10.35c0.14,0,0.29,0.03,0.42,0.09l0.73,0.34l-0.02-0.81c-0.01-0.26,0.09-0.51,0.27-0.7l0.55-0.59l-0.77-0.23
			c-0.25-0.07-0.46-0.24-0.58-0.47l-0.39-0.71l-0.46,0.66c-0.15,0.21-0.37,0.36-0.63,0.41l-0.79,0.15l0.49,0.64
			c0.16,0.21,0.23,0.47,0.19,0.72l-0.1,0.8l0.76-0.27C32.82,10.37,32.93,10.35,33.04,10.35L33.04,10.35z"/>
	</g>
</g>
</svg>
