<?xml version="1.0" encoding="utf-8"?>
<!-- Generator: Adobe Illustrator 28.1.0, SVG Export Plug-In . SVG Version: 6.00 Build 0)  -->
<svg version="1.1" id="Layer_1" xmlns="http://www.w3.org/2000/svg" xmlns:xlink="http://www.w3.org/1999/xlink" x="0px" y="0px"
	 viewBox="0 0 48 48" style="enable-background:new 0 0 48 48;" xml:space="preserve">
<style type="text/css">
	.st0{fill:#800080;}
	.st1{fill-rule:evenodd;clip-rule:evenodd;}
	.st2{fill-rule:evenodd;clip-rule:evenodd;fill:#800080;}
	.st3{fill-rule:evenodd;clip-rule:evenodd;fill:#762E82;}
	.st4{fill:#762E82;}
	.st5{fill:#0066AD;}
	.st6{fill:#F4A033;}
	.st7{fill-rule:evenodd;clip-rule:evenodd;fill:#004669;}
	.st8{fill-rule:evenodd;clip-rule:evenodd;fill:#F6C40B;}
	.st9{fill:#004669;}
	.st10{fill-rule:evenodd;clip-rule:evenodd;fill:#E71C24;}
	.st11{fill-rule:evenodd;clip-rule:evenodd;fill:#224094;}
	.st12{fill:#204391;}
	.st13{fill:#E61F29;}
	.st14{fill:#3BB53F;}
	.st15{fill:#020202;}
	.st16{fill:#DB7031;}
	.st17{fill:#D82C32;}
	.st18{fill:#1A171B;}
	.st19{fill:#E38833;}
	.st20{clip-path:url(#SVGID_00000105404807020185953620000007756553013265390486_);}
	.st21{clip-path:url(#SVGID_00000088102495121096754330000016908736323599052457_);}
	.st22{fill:#FFFFFF;}
	.st23{fill:#2DB674;}
	.st24{fill:none;}
	.st25{fill:url(#SVGID_00000142158907562989207270000008157269684686921605_);}
	.st26{fill:url(#SVGID_00000072243134001834233880000010553240831626242950_);}
	.st27{fill:url(#SVGID_00000067212666652811235050000007172718048069330615_);}
	.st28{fill:url(#SVGID_00000010294599392338460380000011947422370971197357_);}
	.st29{fill:url(#SVGID_00000134952840306959574030000017581522828905504655_);}
	.st30{fill:url(#SVGID_00000135652764456231075580000003253774792421102747_);}
	.st31{fill:url(#SVGID_00000002347705437084757680000013727207217334006190_);}
	.st32{fill:url(#SVGID_00000082346361450682883590000012507340370534399399_);}
	.st33{fill:url(#SVGID_00000121280405991844588050000007694655468401514920_);}
	.st34{fill:url(#SVGID_00000129201149660476679720000004548739233402146945_);}
	.st35{fill:url(#SVGID_00000110458593488278541690000004849976100400913578_);}
	.st36{fill:url(#SVGID_00000103982871771831898500000011821340408336316551_);}
	.st37{fill:#1A2E35;}
	.st38{fill:#C27460;}
	.st39{fill:#7C4235;}
	.st40{fill:#FF735D;}
	.st41{fill:#762E86;}
	.st42{fill:none;stroke:#000000;stroke-width:0.1613;stroke-linecap:round;stroke-miterlimit:10;}
	.st43{fill:#375A64;}
	.st44{opacity:0.3;}
	.st45{fill:none;stroke:#FFC7BF;stroke-width:0.1122;stroke-miterlimit:10;}
	.st46{fill:none;stroke:#44555B;stroke-width:5.608974e-03;stroke-miterlimit:10;}
	.st47{fill:#FFFFFF;stroke:#000000;stroke-width:0.1637;stroke-miterlimit:10;}
	.st48{fill:#E1E1E1;}
	.st49{fill:#578DF3;}
	.st50{fill:#B72516;}
</style>
<g>
	<path d="M36.17,3.94l-4.96,6.28c-1.17,1.5-1.17,3.58,0.01,5.09l4.96,6.26H16.92h-0.17V3.94H36.17 M38.77,1.26H15.5
		c-0.78,0-1.42,0.63-1.42,1.42c0,0,0,0.01,0,0.01v21.54h2.84h21.84c0,0,0,0,0,0c0.79,0,1.42-0.64,1.42-1.42
		c0-0.32-0.11-0.63-0.31-0.88l-6.57-8.28c-0.41-0.52-0.41-1.26,0-1.78l6.57-8.32c0.47-0.63,0.34-1.52-0.28-1.99
		C39.36,1.37,39.07,1.27,38.77,1.26L38.77,1.26z"/>
	<polygon points="16.72,24.23 14.08,24.23 14.08,33.52 16.72,33.52 16.72,24.23 	"/>
	<path d="M22.67,34.84v9.46H10.84v-9.46H22.67 M23.19,32.41H10.32c-1.06,0-1.92,0.86-1.92,1.92v10.5c0,1.06,0.86,1.92,1.92,1.92
		h12.87c1.06,0,1.92-0.86,1.92-1.92v-10.5C25.11,33.26,24.25,32.41,23.19,32.41L23.19,32.41z"/>
</g>
</svg>
