<?xml version="1.0" encoding="utf-8"?>
<!-- Generator: Adobe Illustrator 28.1.0, SVG Export Plug-In . SVG Version: 6.00 Build 0)  -->
<svg version="1.1" id="Layer_1" xmlns="http://www.w3.org/2000/svg" xmlns:xlink="http://www.w3.org/1999/xlink" x="0px" y="0px"
	 viewBox="0 0 48 48" style="enable-background:new 0 0 48 48;" xml:space="preserve">
<style type="text/css">
	.st0{fill:#800080;}
	.st1{fill-rule:evenodd;clip-rule:evenodd;}
	.st2{fill-rule:evenodd;clip-rule:evenodd;fill:#800080;}
	.st3{fill-rule:evenodd;clip-rule:evenodd;fill:#762E82;}
	.st4{fill:#762E82;}
</style>
<g>
	<path class="st4" d="M39.95,14.7H36.2c-0.08,0-0.16,0.01-0.24,0.03c-0.55,0.1-0.95,0.59-0.95,1.16v2.29c0,0.66,0.53,1.2,1.19,1.2
		h3.75c0.66,0,1.19-0.53,1.19-1.2v-2.29C41.14,15.24,40.61,14.7,39.95,14.7z"/>
	<path class="st4" d="M39.95,14.7H36.2c-0.08,0-0.16,0.01-0.24,0.03c-0.55,0.1-0.95,0.59-0.95,1.16v2.29c0,0.66,0.53,1.2,1.19,1.2
		h3.75c0.66,0,1.19-0.53,1.19-1.2v-2.29C41.14,15.24,40.61,14.7,39.95,14.7z"/>
	<path class="st4" d="M39.95,14.7H36.2c-0.08,0-0.16,0.01-0.24,0.03c-0.55,0.1-0.95,0.59-0.95,1.16v2.29c0,0.66,0.53,1.2,1.19,1.2
		h3.75c0.66,0,1.19-0.53,1.19-1.2v-2.29C41.14,15.24,40.61,14.7,39.95,14.7z"/>
	<path class="st4" d="M39.95,14.7H36.2c-0.08,0-0.16,0.01-0.24,0.03c-0.55,0.1-0.95,0.59-0.95,1.16v2.29c0,0.66,0.53,1.2,1.19,1.2
		h3.75c0.66,0,1.19-0.53,1.19-1.2v-2.29C41.14,15.24,40.61,14.7,39.95,14.7z"/>
	<path class="st4" d="M39.95,14.7H36.2c-0.08,0-0.16,0.01-0.24,0.03c-0.55,0.1-0.95,0.59-0.95,1.16v2.29c0,0.66,0.53,1.2,1.19,1.2
		h3.75c0.66,0,1.19-0.53,1.19-1.2v-2.29C41.14,15.24,40.61,14.7,39.95,14.7z"/>
	<path class="st4" d="M39.95,14.7H36.2c-0.08,0-0.16,0.01-0.24,0.03c-0.55,0.1-0.95,0.59-0.95,1.16v2.29c0,0.66,0.53,1.2,1.19,1.2
		h3.75c0.66,0,1.19-0.53,1.19-1.2v-2.29C41.14,15.24,40.61,14.7,39.95,14.7z"/>
	<path class="st4" d="M39.95,14.7H36.2c-0.08,0-0.16,0.01-0.24,0.03c-0.55,0.1-0.95,0.59-0.95,1.16v2.29c0,0.66,0.53,1.2,1.19,1.2
		h3.75c0.66,0,1.19-0.53,1.19-1.2v-2.29C41.14,15.24,40.61,14.7,39.95,14.7z"/>
	<path class="st4" d="M39.95,14.7H36.2c-0.08,0-0.16,0.01-0.24,0.03c-0.55,0.1-0.95,0.59-0.95,1.16v2.29c0,0.66,0.53,1.2,1.19,1.2
		h3.75c0.66,0,1.19-0.53,1.19-1.2v-2.29C41.14,15.24,40.61,14.7,39.95,14.7z"/>
	<g>
		<path class="st4" d="M39.44,13.41c0-0.76-0.62-1.37-1.37-1.37c-0.76,0-1.37,0.62-1.37,1.37v0.61h2.74V13.41z"/>
		<path class="st4" d="M39.95,14.7H36.2c-0.08,0-0.16,0.01-0.24,0.03c-0.55,0.1-0.95,0.59-0.95,1.16v2.29c0,0.66,0.53,1.2,1.19,1.2
			h3.75c0.66,0,1.19-0.53,1.19-1.2v-2.29C41.14,15.24,40.61,14.7,39.95,14.7z"/>
		<path class="st4" d="M38.07,8.3c-2.35,0-4.45,1.1-5.81,2.83c-0.01,0-0.01,0.01-0.01,0.01c-0.4,0.51-0.73,1.06-0.99,1.66
			c0,0.01-0.01,0.01-0.01,0.01c-0.32,0.76-0.53,1.59-0.57,2.46c-0.01,0.14-0.01,0.28-0.01,0.43c0,0.5,0.05,0.99,0.15,1.47
			c0.3,1.49,1.05,2.82,2.1,3.83c0.55,0.55,1.2,1,1.9,1.35c0.99,0.49,2.09,0.76,3.26,0.76c4.08,0,7.41-3.32,7.41-7.4
			C45.48,11.63,42.16,8.3,38.07,8.3z M41.82,18.18c0,1.03-0.83,1.87-1.87,1.87H36.2c-0.55,0-1.04-0.24-1.39-0.62
			c-0.3-0.33-0.49-0.78-0.49-1.26v-2.29c0-0.49,0.18-0.93,0.49-1.26c0.17-0.19,0.37-0.34,0.6-0.44c0.18-0.09,0.39-0.15,0.61-0.17
			v-0.62c0-1.14,0.92-2.05,2.05-2.05c1.13,0,2.05,0.92,2.05,2.05v0.62c0.95,0.09,1.69,0.89,1.69,1.87V18.18z"/>
	</g>
	<g>
		<path d="M37.38,28.17c-0.78-0.21-1.59-0.1-2.28,0.3l-6.32,3.65c-0.01-0.26-0.05-0.51-0.11-0.76c-0.48-1.8-2.35-2.89-4.15-2.4
			l-2.68,0.72c-0.99,0.27-1.9,0.15-2.78-0.37l-3.58-2.06c-1.49-0.87-2.95-0.31-4.64,0.32c-0.91,0.34-1.91,0.72-3.1,0.95l-0.03-0.14
			c-0.09-0.32-0.3-0.59-0.59-0.76s-0.63-0.22-0.95-0.13l-3.89,1.17C1.6,28.84,1.2,29.53,1.38,30.2l3.54,13.21
			C5.01,43.73,5.21,44,5.5,44.17c0.2,0.11,0.41,0.17,0.63,0.17c0.11,0,0.22-0.01,0.32-0.04l3.89-1.17c0.62-0.17,1.01-0.78,0.91-1.41
			c2.8-0.59,4.58-0.08,6.98,0.6c0.45,0.13,0.9,0.26,1.39,0.39c0.44,0.11,0.87,0.17,1.29,0.17c0.82,0,1.62-0.22,2.37-0.66l14.81-8.55
			c0.69-0.4,1.19-1.05,1.4-1.82c0.2-0.78,0.1-1.59-0.3-2.28C38.8,28.88,38.15,28.38,37.38,28.17z M38.02,31.46
			c-0.1,0.38-0.34,0.7-0.68,0.89l-14.81,8.56c-0.8,0.46-1.62,0.57-2.5,0.32c-0.48-0.13-0.93-0.26-1.37-0.38
			c-2.54-0.72-4.59-1.31-7.79-0.62L8.12,30.01c1.26-0.26,2.34-0.67,3.23-1.01c1.64-0.61,2.52-0.91,3.35-0.43l3.58,2.07
			c1.24,0.71,2.56,0.89,3.94,0.52l2.68-0.72c0.99-0.26,2.02,0.32,2.28,1.32c0.27,0.99-0.32,2.02-1.32,2.28l-3.93,1.05
			c-0.64,0.18-1.27,0.18-1.87,0.02c-0.41-0.11-0.82,0.13-0.94,0.53c-0.11,0.41,0.14,0.82,0.54,0.94c0.42,0.11,0.84,0.17,1.28,0.17
			c0.46,0,0.92-0.06,1.39-0.19l3.92-1.05c0.76-0.21,1.39-0.66,1.83-1.24l7.76-4.48c0.34-0.2,0.74-0.25,1.12-0.15
			c0.39,0.11,0.7,0.35,0.9,0.69C38.07,30.67,38.13,31.07,38.02,31.46z"/>
		<path d="M38.07,7.11c-2.7,0-5.1,1.24-6.67,3.18l-0.53-0.51l-6.2-6.12l-8.36,8.24l-4.14,4.04c-0.28,0.27-0.36,0.68-0.21,1.05
			c0.15,0.35,0.49,0.58,0.87,0.58h0.03l1.67-0.03v7.31c0,0.49,0.39,0.89,0.88,0.89h18.52c0.49,0,0.89-0.39,0.89-0.89v-1.2
			c1.01,0.41,2.1,0.64,3.26,0.64c4.74,0,8.59-3.85,8.59-8.59C46.66,10.96,42.82,7.11,38.07,7.11z M16.43,14.45l1.24-1.22l7-6.83
			l4.98,4.84l0.7,0.69c-0.5,1.03-0.8,2.17-0.86,3.38L16.43,15.6V14.45z M32.92,23.84H16.43v-6.35l13.19-0.29
			c0.38,2.19,1.6,4.1,3.3,5.38V23.84z M38.07,23.11c-1.17,0-2.27-0.27-3.26-0.76c-0.7-0.34-1.35-0.8-1.9-1.35
			c-1.05-1.01-1.8-2.34-2.1-3.83c-0.1-0.47-0.15-0.97-0.15-1.47c0-0.15,0.01-0.29,0.01-0.43c0.05-0.87,0.25-1.7,0.57-2.46
			c0-0.01,0.01-0.01,0.01-0.01c0.26-0.6,0.59-1.16,0.99-1.66c0.01-0.01,0.01-0.01,0.01-0.01c1.35-1.72,3.45-2.83,5.81-2.83
			c4.08,0,7.41,3.33,7.41,7.41C45.48,19.79,42.16,23.11,38.07,23.11z"/>
	</g>
</g>
</svg>
