<?xml version="1.0" encoding="utf-8"?>
<!-- Generator: Adobe Illustrator 28.1.0, SVG Export Plug-In . SVG Version: 6.00 Build 0)  -->
<svg version="1.1" id="Layer_1" xmlns="http://www.w3.org/2000/svg" xmlns:xlink="http://www.w3.org/1999/xlink" x="0px" y="0px"
	 viewBox="0 0 48 48" style="enable-background:new 0 0 48 48;" xml:space="preserve">
<style type="text/css">
	.st0{fill:#800080;}
	.st1{fill-rule:evenodd;clip-rule:evenodd;}
	.st2{fill-rule:evenodd;clip-rule:evenodd;fill:#800080;}
	.st3{fill-rule:evenodd;clip-rule:evenodd;fill:#762E82;}
	.st4{fill:#762E82;}
</style>
<g id="g3193_00000115498069576272766520000007237902999557133481_" transform="translate(354.5732,115)">
	<path class="st0" d="M-318.96-74.45c-0.27,0-0.54-0.1-0.75-0.31l-2.59-2.59c-0.41-0.41-0.41-1.08,0-1.49
		c0.41-0.41,1.08-0.41,1.49,0l1.85,1.85l4.21-4.14c0.41-0.41,1.08-0.4,1.49,0.01c0.41,0.41,0.4,1.08-0.01,1.49l-4.96,4.88
		C-318.43-74.55-318.7-74.45-318.96-74.45z"/>
</g>
<g>
	<path d="M10.18,15.81c0.58,0,1.05-0.47,1.05-1.05c0-1.44,1.17-2.61,2.61-2.61c1.44,0,2.61,1.17,2.61,2.61
		c0,0.58,0.47,1.05,1.05,1.05s1.05-0.47,1.05-1.05c0-2.6-2.12-4.71-4.71-4.71c-2.6,0-4.71,2.12-4.71,4.71
		C9.13,15.34,9.6,15.81,10.18,15.81z"/>
	<path d="M24.82,15.81c0.58,0,1.05-0.47,1.05-1.05c0-1.44,1.17-2.61,2.61-2.61c1.44,0,2.61,1.17,2.61,2.61
		c0,0.58,0.47,1.05,1.05,1.05c0.58,0,1.05-0.47,1.05-1.05c0-2.6-2.12-4.71-4.71-4.71c-2.6,0-4.71,2.12-4.71,4.71
		C23.77,15.34,24.24,15.81,24.82,15.81z"/>
	<path d="M40.45,27.35c0.64-2,0.98-4.07,0.98-6.19c0-11.18-9.1-20.27-20.27-20.27C9.98,0.89,0.89,9.98,0.89,21.16
		c0,11.18,9.1,20.27,20.27,20.27c2.12,0,4.19-0.34,6.19-0.98c1.45,3.88,5.18,6.66,9.56,6.66c5.63,0,10.21-4.58,10.21-10.21
		C47.11,32.53,44.33,28.79,40.45,27.35z M21.16,39.33C11.15,39.33,3,31.18,3,21.16C3,11.15,11.15,3,21.16,3
		c10.02,0,18.17,8.15,18.17,18.17c0,1.94-0.32,3.84-0.92,5.66c-0.49-0.07-0.99-0.12-1.5-0.12c-0.98,0-1.92,0.15-2.82,0.4
		c0.62-1.59,0.94-3.29,0.94-5.03c0-0.58-0.47-1.05-1.05-1.05H8.35c-0.58,0-1.05,0.47-1.05,1.05c0,2.11,0.49,4.1,1.33,5.89
		c0.01,0.01,0.01,0.02,0.02,0.04c2.23,4.69,6.99,7.94,12.52,7.94c2.03,0,3.99-0.44,5.79-1.26c-0.16,0.72-0.25,1.46-0.25,2.22
		c0,0.51,0.05,1.01,0.12,1.51C25,39.01,23.1,39.33,21.16,39.33z M28.32,31.4c-2.07,1.59-4.54,2.44-7.16,2.44
		c-4.06,0-7.64-2.08-9.75-5.22h19.51c-0.01,0.02-0.02,0.04-0.04,0.06C29.87,29.42,29,30.34,28.32,31.4z M32.03,26.52H10.28
		c-0.43-1.06-0.72-2.2-0.83-3.39h23.43C32.77,24.3,32.47,25.44,32.03,26.52z M36.91,45c-4.47,0-8.1-3.63-8.1-8.1
		c0-4.47,3.63-8.1,8.1-8.1c4.47,0,8.1,3.63,8.1,8.1C45,41.37,41.37,45,36.91,45z"/>
</g>
</svg>
