<?xml version="1.0" encoding="utf-8"?>
<!-- Generator: Adobe Illustrator 28.1.0, SVG Export Plug-In . SVG Version: 6.00 Build 0)  -->
<svg version="1.1" id="Layer_1" xmlns="http://www.w3.org/2000/svg" xmlns:xlink="http://www.w3.org/1999/xlink" x="0px" y="0px"
	 viewBox="0 0 48 48" style="enable-background:new 0 0 48 48;" xml:space="preserve">
<style type="text/css">
	.st0{fill:#800080;}
	.st1{fill-rule:evenodd;clip-rule:evenodd;}
	.st2{fill:#F4F4F4;}
	.st3{fill-rule:evenodd;clip-rule:evenodd;fill:#F4F4F4;}
	.st4{fill:#762E82;}
	.st5{fill:#0066AD;}
	.st6{fill:#F4A033;}
	.st7{fill-rule:evenodd;clip-rule:evenodd;fill:#004669;}
	.st8{fill-rule:evenodd;clip-rule:evenodd;fill:#F6C40B;}
	.st9{fill:#004669;}
	.st10{fill-rule:evenodd;clip-rule:evenodd;fill:#E71C24;}
	.st11{fill-rule:evenodd;clip-rule:evenodd;fill:#224094;}
	.st12{fill:#204391;}
	.st13{fill:#E61F29;}
	.st14{fill:#3BB53F;}
	.st15{fill:#020202;}
	.st16{fill:#DB7031;}
	.st17{fill:#D82C32;}
	.st18{fill:#1A171B;}
	.st19{fill:#E38833;}
	.st20{fill-rule:evenodd;clip-rule:evenodd;fill:#800080;}
	.st21{clip-path:url(#SVGID_00000168837509706869834380000009939706771197342372_);}
	.st22{clip-path:url(#SVGID_00000152947846958082373880000002798344820465774995_);}
	.st23{fill:#FFFFFF;}
	.st24{fill:#2DB674;}
	.st25{fill:none;}
	.st26{fill:url(#SVGID_00000109721859401900030550000014934577726863336361_);}
	.st27{fill:url(#SVGID_00000068647645790231941240000009517510665095559570_);}
	.st28{fill:url(#SVGID_00000157270166819776488380000015485309621040674227_);}
	.st29{fill:url(#SVGID_00000122711028631586149030000016366186648182702251_);}
	.st30{fill:url(#SVGID_00000075140632710689876550000003726429805502019982_);}
	.st31{fill:url(#SVGID_00000008838215663861178590000000299607490545133697_);}
	.st32{fill:url(#SVGID_00000081618151703992165080000010998827823348365993_);}
	.st33{fill:url(#SVGID_00000130611632332572054900000013461808688258119853_);}
	.st34{fill:url(#SVGID_00000071547571434194444610000014624147088393477527_);}
	.st35{fill:url(#SVGID_00000004526005221996357790000004873588237812426666_);}
	.st36{fill:url(#SVGID_00000026847734773745916580000001304372257450618787_);}
	.st37{fill:url(#SVGID_00000042013728619336781220000006549127760544278161_);}
	.st38{fill:#1A2E35;}
	.st39{fill:#C27460;}
	.st40{fill:#7C4235;}
	.st41{fill:#FF735D;}
	.st42{fill:#762E86;}
	.st43{fill:none;stroke:#000000;stroke-width:0.1613;stroke-linecap:round;stroke-miterlimit:10;}
	.st44{fill:#375A64;}
	.st45{opacity:0.3;}
	.st46{fill:none;stroke:#FFC7BF;stroke-width:0.1122;stroke-miterlimit:10;}
	.st47{fill:none;stroke:#44555B;stroke-width:5.608974e-03;stroke-miterlimit:10;}
	.st48{fill:#FFFFFF;stroke:#000000;stroke-width:0.1637;stroke-miterlimit:10;}
	.st49{fill:#E1E1E1;}
	.st50{fill:#578DF3;}
	.st51{fill:#B72516;}
</style>
<path class="st2" d="M45.48,6H12.16c-0.74,0-1.34,0.6-1.34,1.34v5.19H2.52c-0.74,0-1.34,0.6-1.34,1.34v21.97
	c0,3.4,2.76,6.16,6.16,6.16h33.32c3.4,0,6.16-2.76,6.16-6.16V7.34C46.82,6.6,46.22,6,45.48,6z M3.86,35.84V15.21h6.97v20.63
	c0,1.92-1.56,3.49-3.49,3.49C5.42,39.32,3.86,37.76,3.86,35.84z M44.14,35.84c0,1.92-1.56,3.49-3.49,3.49H12.41
	c0.68-0.99,1.09-2.19,1.09-3.49V13.87V8.68h30.64V35.84z"/>
<g id="g1110_00000176721476326331118200000010462711219680218035_" transform="translate(183.208,129.104)">
	<path class="st2" d="M-144.78-98.25h-19.19c-0.66,0-1.2-0.54-1.2-1.2s0.54-1.2,1.2-1.2h19.19c0.66,0,1.2,0.54,1.2,1.2
		S-144.12-98.25-144.78-98.25z"/>
</g>
<g id="g1114_00000170963373127144921370000009116658373513687208_" transform="translate(183.208,192.5522)">
	<path class="st2" d="M-144.78-167.36h-19.19c-0.66,0-1.2-0.54-1.2-1.2s0.54-1.2,1.2-1.2h19.19c0.66,0,1.2,0.54,1.2,1.2
		S-144.12-167.36-144.78-167.36z"/>
</g>
<g id="g1118_00000155124342770262285900000002556483646306551482_" transform="translate(183.208,256)">
	<path class="st2" d="M-144.78-236.46h-19.19c-0.66,0-1.2-0.54-1.2-1.2c0-0.66,0.54-1.2,1.2-1.2h19.19c0.66,0,1.2,0.54,1.2,1.2
		C-143.58-236.99-144.12-236.46-144.78-236.46z"/>
</g>
</svg>
