<?xml version="1.0" encoding="utf-8"?>
<!-- Generator: Adobe Illustrator 28.1.0, SVG Export Plug-In . SVG Version: 6.00 Build 0)  -->
<svg version="1.1" id="Layer_1" xmlns="http://www.w3.org/2000/svg" xmlns:xlink="http://www.w3.org/1999/xlink" x="0px" y="0px"
	 viewBox="0 0 48 48" style="enable-background:new 0 0 48 48;" xml:space="preserve">
<style type="text/css">
	.st0{fill:#800080;}
	.st1{fill-rule:evenodd;clip-rule:evenodd;}
	.st2{fill:#F4F4F4;}
	.st3{fill-rule:evenodd;clip-rule:evenodd;fill:#F4F4F4;}
	.st4{fill:#762E82;}
	.st5{fill:#0066AD;}
	.st6{fill:#F4A033;}
	.st7{fill-rule:evenodd;clip-rule:evenodd;fill:#004669;}
	.st8{fill-rule:evenodd;clip-rule:evenodd;fill:#F6C40B;}
	.st9{fill:#004669;}
	.st10{fill-rule:evenodd;clip-rule:evenodd;fill:#E71C24;}
	.st11{fill-rule:evenodd;clip-rule:evenodd;fill:#224094;}
	.st12{fill:#204391;}
	.st13{fill:#E61F29;}
	.st14{fill:#3BB53F;}
	.st15{fill:#020202;}
	.st16{fill:#DB7031;}
	.st17{fill:#D82C32;}
	.st18{fill:#1A171B;}
	.st19{fill:#E38833;}
	.st20{fill-rule:evenodd;clip-rule:evenodd;fill:#800080;}
	.st21{clip-path:url(#SVGID_00000055684652155746028220000014196679775947246212_);}
	.st22{clip-path:url(#SVGID_00000118398312252496043870000008854844305201673634_);}
	.st23{fill:#FFFFFF;}
	.st24{fill:#2DB674;}
	.st25{fill:none;}
	.st26{fill:url(#SVGID_00000119104679482526711430000018244014283402022789_);}
	.st27{fill:url(#SVGID_00000009568881445762507670000013293002019998301314_);}
	.st28{fill:url(#SVGID_00000083048526721646536190000013408182185562307715_);}
	.st29{fill:url(#SVGID_00000153707686477445760070000005569983792007657625_);}
	.st30{fill:url(#SVGID_00000016035890083157173270000003535806047439921331_);}
	.st31{fill:url(#SVGID_00000130616975057751850790000002174602659919882636_);}
	.st32{fill:url(#SVGID_00000026885971531498447380000004085173006940798865_);}
	.st33{fill:url(#SVGID_00000025400809243521454100000005774162818833688240_);}
	.st34{fill:url(#SVGID_00000010991424361470218860000016723225216601248698_);}
	.st35{fill:url(#SVGID_00000049197400209849627080000018400869027084444555_);}
	.st36{fill:url(#SVGID_00000168103296748825895100000017469458441067817373_);}
	.st37{fill:url(#SVGID_00000030470283841448352130000015939577223838620092_);}
	.st38{fill:#1A2E35;}
	.st39{fill:#C27460;}
	.st40{fill:#7C4235;}
	.st41{fill:#FF735D;}
	.st42{fill:#762E86;}
	.st43{fill:none;stroke:#000000;stroke-width:0.1613;stroke-linecap:round;stroke-miterlimit:10;}
	.st44{fill:#375A64;}
	.st45{opacity:0.3;}
	.st46{fill:none;stroke:#FFC7BF;stroke-width:0.1122;stroke-miterlimit:10;}
	.st47{fill:none;stroke:#44555B;stroke-width:5.608974e-03;stroke-miterlimit:10;}
	.st48{fill:#FFFFFF;stroke:#000000;stroke-width:0.1637;stroke-miterlimit:10;}
	.st49{fill:#E1E1E1;}
	.st50{fill:#578DF3;}
	.st51{fill:#B72516;}
</style>
<path class="st2" d="M24,6.37c0.24,0,0.47,0.12,0.59,0.37l5.21,10.55c0.1,0.2,0.28,0.33,0.5,0.36l11.64,1.69
	c0.54,0.08,0.76,0.75,0.37,1.13l-8.42,8.21c-0.16,0.15-0.23,0.37-0.19,0.59l1.99,11.59c0.07,0.43-0.27,0.77-0.65,0.77
	c-0.1,0-0.21-0.02-0.31-0.08l-10.41-5.47C24.21,36.03,24.11,36,24,36s-0.21,0.03-0.31,0.08l-10.41,5.47
	c-0.1,0.05-0.21,0.08-0.31,0.08c-0.39,0-0.72-0.35-0.65-0.77l1.99-11.59c0.04-0.21-0.03-0.43-0.19-0.59L5.7,20.47
	c-0.39-0.38-0.18-1.05,0.37-1.13l11.64-1.69c0.22-0.03,0.4-0.17,0.5-0.36l5.21-10.55C23.53,6.49,23.76,6.37,24,6.37 M24,4.12
	c-1.12,0-2.11,0.62-2.61,1.62l-4.84,9.8L5.74,17.12c-1.1,0.16-2,0.92-2.35,1.98c-0.34,1.06-0.06,2.2,0.74,2.98l7.83,7.63
	l-1.85,10.77c-0.15,0.85,0.09,1.71,0.64,2.36c0.56,0.66,1.37,1.04,2.23,1.04c0.47,0,0.94-0.12,1.35-0.34L24,38.46l9.67,5.09
	c0.42,0.22,0.89,0.34,1.35,0.34c0.86,0,1.67-0.38,2.23-1.04c0.55-0.66,0.79-1.52,0.64-2.36L36.05,29.7l7.83-7.63
	c0.8-0.78,1.08-1.92,0.74-2.98c-0.34-1.06-1.24-1.82-2.35-1.98l-10.82-1.57l-4.84-9.8C26.11,4.74,25.12,4.12,24,4.12L24,4.12z"/>
</svg>
