<?xml version="1.0" encoding="utf-8"?>
<!-- Generator: Adobe Illustrator 28.1.0, SVG Export Plug-In . SVG Version: 6.00 Build 0)  -->
<svg version="1.1" id="Layer_1" xmlns="http://www.w3.org/2000/svg" xmlns:xlink="http://www.w3.org/1999/xlink" x="0px" y="0px"
	 viewBox="0 0 48 48" style="enable-background:new 0 0 48 48;" xml:space="preserve">
<style type="text/css">
	.st0{fill:#800080;}
	.st1{fill-rule:evenodd;clip-rule:evenodd;}
	.st2{fill:#F4F4F4;}
	.st3{fill-rule:evenodd;clip-rule:evenodd;fill:#F4F4F4;}
	.st4{fill:#762E82;}
	.st5{fill:#0066AD;}
	.st6{fill:#F4A033;}
	.st7{fill-rule:evenodd;clip-rule:evenodd;fill:#004669;}
	.st8{fill-rule:evenodd;clip-rule:evenodd;fill:#F6C40B;}
	.st9{fill:#004669;}
	.st10{fill-rule:evenodd;clip-rule:evenodd;fill:#E71C24;}
	.st11{fill-rule:evenodd;clip-rule:evenodd;fill:#224094;}
	.st12{fill:#204391;}
	.st13{fill:#E61F29;}
	.st14{fill:#3BB53F;}
	.st15{fill:#020202;}
	.st16{fill:#DB7031;}
	.st17{fill:#D82C32;}
	.st18{fill:#1A171B;}
	.st19{fill:#E38833;}
	.st20{fill-rule:evenodd;clip-rule:evenodd;fill:#800080;}
	.st21{clip-path:url(#SVGID_00000049200707696587975350000004243881189295747990_);}
	.st22{clip-path:url(#SVGID_00000167394587267532926480000008975749060639808650_);}
	.st23{fill:#FFFFFF;}
	.st24{fill:#2DB674;}
	.st25{fill:none;}
	.st26{fill:url(#SVGID_00000070831359588906646560000015727723526976128392_);}
	.st27{fill:url(#SVGID_00000024704181786210292710000003218307110419313032_);}
	.st28{fill:url(#SVGID_00000088091772272110744670000004167076987614421172_);}
	.st29{fill:url(#SVGID_00000001648528609714727590000015148042565653935522_);}
	.st30{fill:url(#SVGID_00000173129116775679138240000006745530245070203324_);}
	.st31{fill:url(#SVGID_00000027584695421541863620000017067016429953538484_);}
	.st32{fill:url(#SVGID_00000127045178138721469700000004869076673647665341_);}
	.st33{fill:url(#SVGID_00000078029147636692591680000016352763288912230562_);}
	.st34{fill:url(#SVGID_00000159451921561377095460000012317153362962363015_);}
	.st35{fill:url(#SVGID_00000103249196599105084870000003556252630372670356_);}
	.st36{fill:url(#SVGID_00000166639772990722537380000011794376746610940832_);}
	.st37{fill:url(#SVGID_00000103949717744624069380000008584272140146685328_);}
	.st38{fill:#1A2E35;}
	.st39{fill:#C27460;}
	.st40{fill:#7C4235;}
	.st41{fill:#FF735D;}
	.st42{fill:#762E86;}
	.st43{fill:none;stroke:#000000;stroke-width:0.1613;stroke-linecap:round;stroke-miterlimit:10;}
	.st44{fill:#375A64;}
	.st45{opacity:0.3;}
	.st46{fill:none;stroke:#FFC7BF;stroke-width:0.1122;stroke-miterlimit:10;}
	.st47{fill:none;stroke:#44555B;stroke-width:5.608974e-03;stroke-miterlimit:10;}
	.st48{fill:#FFFFFF;stroke:#000000;stroke-width:0.1637;stroke-miterlimit:10;}
	.st49{fill:#E1E1E1;}
	.st50{fill:#578DF3;}
	.st51{fill:#B72516;}
</style>
<g>
	<path class="st3" d="M26.6,17.76c0-0.86,0.7-1.56,1.56-1.56h8.32c0.86,0,1.56,0.7,1.56,1.56c0,0.86-0.7,1.56-1.56,1.56h-8.32
		C27.3,19.32,26.6,18.62,26.6,17.76z"/>
	<path class="st3" d="M26.6,25.04c0-0.86,0.7-1.56,1.56-1.56h6.24c0.86,0,1.56,0.7,1.56,1.56s-0.7,1.56-1.56,1.56h-6.24
		C27.3,26.6,26.6,25.9,26.6,25.04z"/>
	<path class="st3" d="M21.83,3.71h4.35c3.82,0,6.82,0,9.19,0.26c2.43,0.26,4.39,0.81,6.07,2.03c1.02,0.74,1.91,1.63,2.65,2.65
		c1.22,1.68,1.76,3.64,2.03,6.07c0.26,2.38,0.26,5.37,0.26,9.19v0.19c0,3.82,0,6.82-0.26,9.19c-0.26,2.43-0.81,4.39-2.03,6.07
		c-0.74,1.02-1.63,1.91-2.65,2.65c-1.68,1.22-3.64,1.76-6.07,2.03c-2.38,0.26-5.37,0.26-9.19,0.26h-4.35c-3.82,0-6.82,0-9.19-0.26
		c-2.43-0.26-4.39-0.81-6.07-2.03c-1.02-0.74-1.91-1.63-2.65-2.65c-1.22-1.68-1.76-3.64-2.03-6.07c-0.26-2.38-0.26-5.37-0.26-9.19
		v-0.19c0-3.82,0-6.82,0.26-9.19c0.26-2.43,0.81-4.39,2.03-6.07C4.66,7.63,5.55,6.74,6.56,6c1.68-1.22,3.64-1.76,6.07-2.03
		C15.01,3.71,18,3.71,21.83,3.71z M12.7,6.66c-2.21,0.24-3.6,0.7-4.68,1.49c-0.77,0.56-1.45,1.24-2,2
		c-0.79,1.08-1.25,2.47-1.49,4.68C4.28,17.07,4.28,19.97,4.28,24s0,6.93,0.25,9.17c0.24,2.21,0.7,3.6,1.49,4.68
		c0.56,0.77,1.24,1.45,2,2c1.08,0.79,2.47,1.25,4.68,1.49c2.24,0.24,5.14,0.25,9.17,0.25h4.26c4.03,0,6.93,0,9.17-0.25
		c2.21-0.24,3.6-0.7,4.68-1.49c0.77-0.56,1.45-1.24,2-2c0.79-1.08,1.25-2.47,1.49-4.68c0.24-2.24,0.25-5.14,0.25-9.17
		s0-6.93-0.25-9.17c-0.24-2.21-0.7-3.6-1.49-4.68c-0.56-0.77-1.24-1.45-2-2C38.9,7.36,37.52,6.9,35.3,6.66
		c-2.24-0.24-5.14-0.25-9.17-0.25h-4.26C17.84,6.41,14.94,6.41,12.7,6.66z"/>
	<path class="st3" d="M16.68,29.72c-2.58,0.04-4.9,1.27-5.83,3.26c-0.37,0.78-1.29,1.12-2.07,0.75c-0.78-0.37-1.12-1.29-0.75-2.08
		c1.58-3.38,5.21-5.01,8.61-5.06c3.42-0.05,7.11,1.49,8.78,5.06c0.37,0.78,0.03,1.71-0.75,2.08c-0.78,0.37-1.71,0.03-2.08-0.75
		C21.58,30.83,19.24,29.68,16.68,29.72z"/>
	<path class="st3" d="M16.72,15.16c-1.44,0-2.6,1.16-2.6,2.6c0,1.44,1.16,2.6,2.6,2.6c1.44,0,2.6-1.16,2.6-2.6
		C19.32,16.32,18.15,15.16,16.72,15.16z M11,17.76c0-3.16,2.56-5.72,5.72-5.72c3.16,0,5.72,2.56,5.72,5.72
		c0,3.16-2.56,5.72-5.72,5.72C13.56,23.48,11,20.92,11,17.76z"/>
</g>
</svg>
