<?xml version="1.0" encoding="utf-8"?>
<!-- Generator: Adobe Illustrator 28.1.0, SVG Export Plug-In . SVG Version: 6.00 Build 0)  -->
<svg version="1.1" id="Layer_1" xmlns="http://www.w3.org/2000/svg" xmlns:xlink="http://www.w3.org/1999/xlink" x="0px" y="0px"
	 viewBox="0 0 48 48" style="enable-background:new 0 0 48 48;" xml:space="preserve">
<style type="text/css">
	.st0{fill:#800080;}
	.st1{fill-rule:evenodd;clip-rule:evenodd;}
	.st2{fill:#F4F4F4;}
	.st3{fill-rule:evenodd;clip-rule:evenodd;fill:#F4F4F4;}
	.st4{fill:#762E82;}
	.st5{fill:#0066AD;}
	.st6{fill:#F4A033;}
	.st7{fill-rule:evenodd;clip-rule:evenodd;fill:#004669;}
	.st8{fill-rule:evenodd;clip-rule:evenodd;fill:#F6C40B;}
	.st9{fill:#004669;}
	.st10{fill-rule:evenodd;clip-rule:evenodd;fill:#E71C24;}
	.st11{fill-rule:evenodd;clip-rule:evenodd;fill:#224094;}
	.st12{fill:#204391;}
	.st13{fill:#E61F29;}
	.st14{fill:#3BB53F;}
	.st15{fill:#020202;}
	.st16{fill:#DB7031;}
	.st17{fill:#D82C32;}
	.st18{fill:#1A171B;}
	.st19{fill:#E38833;}
	.st20{fill-rule:evenodd;clip-rule:evenodd;fill:#800080;}
	.st21{clip-path:url(#SVGID_00000059274381187080750600000005263740626724209550_);}
	.st22{clip-path:url(#SVGID_00000041270753351368392140000016297747289040875402_);}
	.st23{fill:#FFFFFF;}
	.st24{fill:#2DB674;}
	.st25{fill:none;}
	.st26{fill:url(#SVGID_00000038400178217820532150000006089544108644554162_);}
	.st27{fill:url(#SVGID_00000096750644085573567460000012730585301440658078_);}
	.st28{fill:url(#SVGID_00000088820226127600715610000014825490721313206446_);}
	.st29{fill:url(#SVGID_00000005250342062330986790000004329485322968415920_);}
	.st30{fill:url(#SVGID_00000120530781609374427390000003298285719543484557_);}
	.st31{fill:url(#SVGID_00000126299297855242007360000006495992355946150571_);}
	.st32{fill:url(#SVGID_00000123424884720696572050000018379200667430215054_);}
	.st33{fill:url(#SVGID_00000041291359340295372370000017721954466384526756_);}
	.st34{fill:url(#SVGID_00000105386448216958235070000012718909641987440783_);}
	.st35{fill:url(#SVGID_00000067931392069399906000000011084726545081816213_);}
	.st36{fill:url(#SVGID_00000161616585985974773720000007297823904824168895_);}
	.st37{fill:url(#SVGID_00000165943549860884925000000006351269548716841883_);}
	.st38{fill:#1A2E35;}
	.st39{fill:#C27460;}
	.st40{fill:#7C4235;}
	.st41{fill:#FF735D;}
	.st42{fill:#762E86;}
	.st43{fill:none;stroke:#000000;stroke-width:0.1613;stroke-linecap:round;stroke-miterlimit:10;}
	.st44{fill:#375A64;}
	.st45{opacity:0.3;}
	.st46{fill:none;stroke:#FFC7BF;stroke-width:0.1122;stroke-miterlimit:10;}
	.st47{fill:none;stroke:#44555B;stroke-width:5.608974e-03;stroke-miterlimit:10;}
	.st48{fill:#FFFFFF;stroke:#000000;stroke-width:0.1637;stroke-miterlimit:10;}
	.st49{fill:#E1E1E1;}
	.st50{fill:#578DF3;}
	.st51{fill:#B72516;}
</style>
<g>
	<g>
		<path class="st2" d="M40.04,12.92l-10.1-10.1c-0.24-0.24-0.57-0.37-0.89-0.37H11.38c-2.09,0-3.79,1.7-3.79,3.79v35.52
			c0,2.09,1.7,3.79,3.79,3.79h25.25c2.09,0,3.79-1.7,3.79-3.79V13.82C40.41,13.47,40.26,13.15,40.04,12.92z M30.31,6.77l5.79,5.79
			h-4.53c-0.7,0-1.26-0.57-1.26-1.26V6.77z M36.62,43.02H11.38c-0.7,0-1.26-0.57-1.26-1.26V6.24c0-0.7,0.57-1.26,1.26-1.26h16.41
			v6.31c0,2.09,1.7,3.79,3.79,3.79h6.31v26.68C37.89,42.45,37.32,43.02,36.62,43.02z"/>
	</g>
	<path class="st2" d="M29.21,30.53l-1.24-1.34c-0.12-0.13-0.33-0.13-0.46-0.01c-1.1,1.02-2.35,1.51-3.75,1.46
		c-0.87-0.03-1.74-0.33-2.43-0.87c-1.15-0.88-1.72-2.07-1.72-3.57c0-1.3,0.43-2.37,1.28-3.2c0.82-0.8,2.53-1.34,3.67-1.21
		c1.09,0.13,2.06,0.59,2.92,1.39c0.15,0.14,0.38,0.14,0.51-0.01l1.19-1.29c0.13-0.14,0.13-0.36,0-0.51
		c-1.12-1.24-2.49-1.97-4.08-2.2v-2.67c0-0.23-0.19-0.42-0.42-0.42h-1.64c-0.23,0-0.42,0.19-0.42,0.42v2.7
		c-1.42,0.25-2.66,0.89-3.73,1.96c-1.39,1.4-2.08,3.09-2.07,5.07c0.01,1.82,0.74,3.62,2.01,4.92c1.07,1.1,2.34,1.77,3.78,2.02v2.6
		c0,0.25,0.2,0.45,0.45,0.45h1.59c0.25,0,0.45-0.2,0.45-0.45v-2.57c1.6-0.24,2.97-0.98,4.1-2.23
		C29.33,30.86,29.32,30.66,29.21,30.53z"/>
</g>
</svg>
