<?xml version="1.0" encoding="utf-8"?>
<!-- Generator: Adobe Illustrator 28.1.0, SVG Export Plug-In . SVG Version: 6.00 Build 0)  -->
<svg version="1.1" id="Layer_1" xmlns="http://www.w3.org/2000/svg" xmlns:xlink="http://www.w3.org/1999/xlink" x="0px" y="0px"
	 viewBox="0 0 48 48" style="enable-background:new 0 0 48 48;" xml:space="preserve">
<style type="text/css">
	.st0{fill:#800080;}
	.st1{fill-rule:evenodd;clip-rule:evenodd;}
	.st2{fill-rule:evenodd;clip-rule:evenodd;fill:#800080;}
	.st3{fill-rule:evenodd;clip-rule:evenodd;fill:#762E82;}
	.st4{fill:#762E82;}
	.st5{fill:#0066AD;}
	.st6{fill:#F4A033;}
	.st7{fill-rule:evenodd;clip-rule:evenodd;fill:#004669;}
	.st8{fill-rule:evenodd;clip-rule:evenodd;fill:#F6C40B;}
	.st9{fill:#004669;}
	.st10{fill-rule:evenodd;clip-rule:evenodd;fill:#E71C24;}
	.st11{fill-rule:evenodd;clip-rule:evenodd;fill:#224094;}
	.st12{fill:#204391;}
	.st13{fill:#E61F29;}
	.st14{fill:#3BB53F;}
	.st15{fill:#020202;}
	.st16{fill:#DB7031;}
	.st17{fill:#D82C32;}
	.st18{fill:#1A171B;}
	.st19{fill:#E38833;}
	.st20{clip-path:url(#SVGID_00000045618976389376675600000009319941753252870568_);}
	.st21{clip-path:url(#SVGID_00000062870997355041982280000002845904680536517518_);}
	.st22{fill:#FFFFFF;}
	.st23{fill:#2DB674;}
	.st24{fill:none;}
	.st25{fill:url(#SVGID_00000107564225050074504030000005035955379392018326_);}
	.st26{fill:url(#SVGID_00000024714586264384480330000011366804469076481951_);}
	.st27{fill:url(#SVGID_00000067927583205163055260000002708873159615370430_);}
	.st28{fill:url(#SVGID_00000099629318215913718990000002499825326710353283_);}
	.st29{fill:url(#SVGID_00000005972924267028334460000018091879053745624721_);}
	.st30{fill:url(#SVGID_00000090295297155553419540000004895216464398848943_);}
	.st31{fill:url(#SVGID_00000085935850887792092010000003337376006763668883_);}
	.st32{fill:url(#SVGID_00000157986776301587947940000013271184113051591098_);}
	.st33{fill:url(#SVGID_00000011742853216723050710000016557739736314342531_);}
	.st34{fill:url(#SVGID_00000176015673349226081870000013449136330606503585_);}
	.st35{fill:url(#SVGID_00000173850624921614118620000004885335620232908720_);}
	.st36{fill:url(#SVGID_00000024698711034979655950000014601146553840406916_);}
	.st37{fill:#1A2E35;}
	.st38{fill:#C27460;}
	.st39{fill:#7C4235;}
	.st40{fill:#FF735D;}
	.st41{fill:#762E86;}
	.st42{fill:none;stroke:#000000;stroke-width:0.1613;stroke-linecap:round;stroke-miterlimit:10;}
	.st43{fill:#375A64;}
	.st44{opacity:0.3;}
	.st45{fill:none;stroke:#FFC7BF;stroke-width:0.1122;stroke-miterlimit:10;}
	.st46{fill:none;stroke:#44555B;stroke-width:5.608974e-03;stroke-miterlimit:10;}
	.st47{fill:#FFFFFF;stroke:#000000;stroke-width:0.1637;stroke-miterlimit:10;}
	.st48{fill:#E1E1E1;}
	.st49{fill:#578DF3;}
	.st50{fill:#B72516;}
</style>
<g id="Penge_stabel_00000038395192006457240050000010253339723555192748_">
	<path d="M34.69,22.88V5.54c0-2.14-3.26-3.76-7.58-3.76s-7.59,1.62-7.59,3.76v6.42c-3.23-2.31-13.55-1.71-13.51,2.45v28.08
		c0.07,4.97,15.1,4.97,15.17,0v-6.43c1.31,0.81,3.31,1.33,5.64,1.36v3.84c1.1,4.24,14.08,4.24,15.17,0V26.64
		C41.99,24.54,38.88,22.95,34.69,22.88z M40.33,26.64c0,0.83-2.18,2.03-5.64,2.08c-1.5,0.16-6.84-0.64-6.1-2.41
		c0.4-0.68,1.98-1.47,4.34-1.7c0.03-0.01,0.07-0.01,0.1-0.01c0.51-0.04,1.09-0.08,1.64-0.06c0.01-0.01,0.02,0,0.02,0
		C38.15,24.6,40.33,25.81,40.33,26.64z M21.18,26.68c1.31,0.81,3.31,1.33,5.64,1.36v3.02c-3.43-0.06-5.61-1.24-5.64-2.07
		L21.18,26.68z M21.18,17.31c2.58,1.78,9.27,1.78,11.85,0v2.3c-0.02,0.86-2.33,2.08-5.92,2.08s-5.92-1.24-5.92-2.09L21.18,17.31
		L21.18,17.31z M21.18,21.99c2.58,1.78,9.27,1.78,11.85,0v0.93c-3.46,0.29-5.98,1.66-6.2,3.45c-3.44-0.06-5.62-1.25-5.66-2.08V21.99
		z M33.03,14.92C33.01,15.77,30.71,17,27.11,17s-5.92-1.24-5.92-2.09v-2.29c2.58,1.78,9.27,1.78,11.85,0L33.03,14.92L33.03,14.92z
		 M27.11,3.44c3.61,0,5.92,1.25,5.92,2.1s-2.31,2.09-5.92,2.09s-5.9-1.23-5.93-2.08V5.54C21.18,4.69,23.49,3.44,27.11,3.44z
		 M21.18,7.92c2.57,1.79,9.27,1.8,11.85,0v2.31c-0.02,0.86-2.33,2.08-5.92,2.08s-5.92-1.24-5.92-2.09L21.18,7.92L21.18,7.92z
		 M13.6,12.26c3.61,0,5.92,1.25,5.92,2.1c0,0.86-2.31,2.09-5.92,2.09s-5.89-1.21-5.93-2.07v-0.02C7.67,13.51,9.98,12.26,13.6,12.26z
		 M7.67,16.75c2.58,1.79,9.27,1.79,11.85,0v2.28c0,0.86-2.31,2.09-5.92,2.09s-5.92-1.24-5.92-2.09L7.67,16.75L7.67,16.75z
		 M7.67,21.45c2.58,1.78,9.27,1.78,11.85,0v2.29c0,0.86-2.31,2.09-5.92,2.09s-5.92-1.24-5.92-2.09L7.67,21.45L7.67,21.45z
		 M7.67,26.13c2.58,1.78,9.27,1.78,11.85,0v2.29c0,0.86-2.31,2.09-5.92,2.09s-5.92-1.24-5.92-2.09L7.67,26.13L7.67,26.13z
		 M7.67,30.81c2.58,1.78,9.27,1.78,11.85,0v2.29c0,0.86-2.31,2.09-5.92,2.09s-5.92-1.24-5.92-2.09L7.67,30.81L7.67,30.81z
		 M13.59,44.58c-3.61,0-5.92-1.24-5.92-2.09v-2.29c2.58,1.78,9.27,1.78,11.85,0v2.29C19.52,43.34,17.21,44.58,13.59,44.58
		L13.59,44.58z M13.59,39.88c-3.61,0-5.92-1.24-5.92-2.09V35.5c2.58,1.78,9.27,1.78,11.85,0v2.29
		C19.52,38.65,17.21,39.88,13.59,39.88L13.59,39.88z M21.17,33.67v-2.31c1.31,0.81,3.31,1.32,5.64,1.35v3.03
		C23.38,35.69,21.21,34.5,21.17,33.67z M34.39,42.78c-3.6,0-5.89-1.22-5.92-2.08V38.4c2.58,1.79,9.27,1.78,11.85,0v2.29
		C40.32,41.54,38.02,42.78,34.39,42.78L34.39,42.78z M34.39,38.1c-2.27-0.04-5.42-0.51-5.92-2.09c0-0.15,0-2.08,0-2.29
		c0.86,0.52,2,0.92,3.34,1.14c0.73,0.13,1.52,0.2,2.36,0.21c2.44,0.07,4.78-0.49,6.15-1.35V36C40.32,36.85,38.02,38.1,34.39,38.1z
		 M34.68,33.4c-1.94,0.02-5.66-0.35-6.21-2.08v-2.28c0.86,0.52,2,0.92,3.34,1.14c0.76,0.14,2.71,0.22,2.87,0.21
		c2.33-0.03,4.33-0.54,5.64-1.35v2.29C40.32,32.14,38.14,33.34,34.68,33.4z"/>
</g>
</svg>
