<?xml version="1.0" encoding="utf-8"?>
<!-- Generator: Adobe Illustrator 28.1.0, SVG Export Plug-In . SVG Version: 6.00 Build 0)  -->
<svg version="1.1" id="Layer_1" xmlns="http://www.w3.org/2000/svg" xmlns:xlink="http://www.w3.org/1999/xlink" x="0px" y="0px"
	 viewBox="0 0 48 48" style="enable-background:new 0 0 48 48;" xml:space="preserve">
<style type="text/css">
	.st0{fill:#800080;}
	.st1{fill-rule:evenodd;clip-rule:evenodd;}
	.st2{fill:#F4F4F4;}
	.st3{fill-rule:evenodd;clip-rule:evenodd;fill:#F4F4F4;}
	.st4{fill:#762E82;}
	.st5{fill:#0066AD;}
	.st6{fill:#F4A033;}
	.st7{fill-rule:evenodd;clip-rule:evenodd;fill:#004669;}
	.st8{fill-rule:evenodd;clip-rule:evenodd;fill:#F6C40B;}
	.st9{fill:#004669;}
	.st10{fill-rule:evenodd;clip-rule:evenodd;fill:#E71C24;}
	.st11{fill-rule:evenodd;clip-rule:evenodd;fill:#224094;}
	.st12{fill:#204391;}
	.st13{fill:#E61F29;}
	.st14{fill:#3BB53F;}
	.st15{fill:#020202;}
	.st16{fill:#DB7031;}
	.st17{fill:#D82C32;}
	.st18{fill:#1A171B;}
	.st19{fill:#E38833;}
	.st20{fill-rule:evenodd;clip-rule:evenodd;fill:#800080;}
	.st21{clip-path:url(#SVGID_00000017517356940129975570000005497542307605390727_);}
	.st22{clip-path:url(#SVGID_00000058559978688372144250000006309376966664975035_);}
	.st23{fill:#FFFFFF;}
	.st24{fill:#2DB674;}
	.st25{fill:none;}
	.st26{fill:url(#SVGID_00000047053315316945600190000011929668491794158512_);}
	.st27{fill:url(#SVGID_00000153696047531690509900000017199560044456753805_);}
	.st28{fill:url(#SVGID_00000145037278266839190040000000907981596737660308_);}
	.st29{fill:url(#SVGID_00000085233291299023872050000009996530330947807898_);}
	.st30{fill:url(#SVGID_00000026161611095583449210000016724419226779879555_);}
	.st31{fill:url(#SVGID_00000145736631762490768650000015882847273012466315_);}
	.st32{fill:url(#SVGID_00000087408416700665777180000007475488139322997150_);}
	.st33{fill:url(#SVGID_00000075876604018071036700000005907260238351725186_);}
	.st34{fill:url(#SVGID_00000055705329669019087800000005024036361185051801_);}
	.st35{fill:url(#SVGID_00000005228494190623045340000005786939845982253704_);}
	.st36{fill:url(#SVGID_00000029009170736445660260000007273144797140405661_);}
	.st37{fill:url(#SVGID_00000000902991267889187970000000902810606590164874_);}
	.st38{fill:#1A2E35;}
	.st39{fill:#C27460;}
	.st40{fill:#7C4235;}
	.st41{fill:#FF735D;}
	.st42{fill:#762E86;}
	.st43{fill:none;stroke:#000000;stroke-width:0.1613;stroke-linecap:round;stroke-miterlimit:10;}
	.st44{fill:#375A64;}
	.st45{opacity:0.3;}
	.st46{fill:none;stroke:#FFC7BF;stroke-width:0.1122;stroke-miterlimit:10;}
	.st47{fill:none;stroke:#44555B;stroke-width:5.608974e-03;stroke-miterlimit:10;}
	.st48{fill:#FFFFFF;stroke:#000000;stroke-width:0.1637;stroke-miterlimit:10;}
	.st49{fill:#E1E1E1;}
	.st50{fill:#578DF3;}
	.st51{fill:#B72516;}
</style>
<g id="Layer_3_00000071542172160714356800000002876313923022016402_">
	<g>
		<path class="st2" d="M38.2,46.61c2.94,0,5.32-2.39,5.32-5.32V21.46c0-1.41-0.56-2.77-1.56-3.76l-14.2-14.2
			c-2.08-2.08-5.45-2.08-7.53,0l-14.2,14.2c-1,1-1.56,2.35-1.56,3.76v19.83c0,2.94,2.39,5.32,5.32,5.32H38.2z M8.03,41.28V21.46
			c0-0.47,0.19-0.92,0.52-1.25L22.75,6c0.69-0.69,1.82-0.69,2.51,0l14.2,14.2c0.33,0.33,0.52,0.78,0.52,1.25v19.83
			c0,0.98-0.79,1.77-1.77,1.77H9.8C8.82,43.06,8.03,42.26,8.03,41.28z"/>
		<path class="st2" d="M18.68,37.73c0-2.94,2.38-5.32,5.32-5.32s5.32,2.38,5.32,5.32c0,0.98,0.79,1.77,1.77,1.77
			c0.98,0,1.77-0.79,1.77-1.77c0-4.9-3.97-8.87-8.87-8.87s-8.87,3.97-8.87,8.87c0,0.98,0.79,1.77,1.77,1.77S18.68,38.71,18.68,37.73
			z"/>
	</g>
</g>
</svg>
