<?xml version="1.0" encoding="utf-8"?>
<!-- Generator: Adobe Illustrator 28.1.0, SVG Export Plug-In . SVG Version: 6.00 Build 0)  -->
<svg version="1.1" id="Layer_1" xmlns="http://www.w3.org/2000/svg" xmlns:xlink="http://www.w3.org/1999/xlink" x="0px" y="0px"
	 viewBox="0 0 48 48" style="enable-background:new 0 0 48 48;" xml:space="preserve">
<style type="text/css">
	.st0{fill:#800080;}
	.st1{fill-rule:evenodd;clip-rule:evenodd;}
	.st2{fill:#F4F4F4;}
	.st3{fill-rule:evenodd;clip-rule:evenodd;fill:#F4F4F4;}
	.st4{fill:#762E82;}
	.st5{fill:#0066AD;}
	.st6{fill:#F4A033;}
	.st7{fill-rule:evenodd;clip-rule:evenodd;fill:#004669;}
	.st8{fill-rule:evenodd;clip-rule:evenodd;fill:#F6C40B;}
	.st9{fill:#004669;}
	.st10{fill-rule:evenodd;clip-rule:evenodd;fill:#E71C24;}
	.st11{fill-rule:evenodd;clip-rule:evenodd;fill:#224094;}
	.st12{fill:#204391;}
	.st13{fill:#E61F29;}
	.st14{fill:#3BB53F;}
	.st15{fill:#020202;}
	.st16{fill:#DB7031;}
	.st17{fill:#D82C32;}
	.st18{fill:#1A171B;}
	.st19{fill:#E38833;}
	.st20{fill-rule:evenodd;clip-rule:evenodd;fill:#800080;}
	.st21{clip-path:url(#SVGID_00000136404023283218588880000014603712130144093355_);}
	.st22{clip-path:url(#SVGID_00000072278169167879659080000003527212111665684894_);}
	.st23{fill:#FFFFFF;}
	.st24{fill:#2DB674;}
	.st25{fill:none;}
	.st26{fill:url(#SVGID_00000119105182556183391830000011648244351695314351_);}
	.st27{fill:url(#SVGID_00000093862935938611497940000017986360276724354439_);}
	.st28{fill:url(#SVGID_00000132796144427883938270000007319867520165073059_);}
	.st29{fill:url(#SVGID_00000082335086375490426640000005424091247604250021_);}
	.st30{fill:url(#SVGID_00000116946990486081680220000010754625419891669668_);}
	.st31{fill:url(#SVGID_00000031929351435973470750000009008341785281967007_);}
	.st32{fill:url(#SVGID_00000153697613362022675900000008223716067094331571_);}
	.st33{fill:url(#SVGID_00000113351852039834612610000010366920924634610579_);}
	.st34{fill:url(#SVGID_00000143612785965506303780000009421817923509420444_);}
	.st35{fill:url(#SVGID_00000121273702880719732930000018186521061754963375_);}
	.st36{fill:url(#SVGID_00000163751320747931127560000001717413567885186708_);}
	.st37{fill:url(#SVGID_00000013195483746419862370000006567895403773668518_);}
	.st38{fill:#1A2E35;}
	.st39{fill:#C27460;}
	.st40{fill:#7C4235;}
	.st41{fill:#FF735D;}
	.st42{fill:#762E86;}
	.st43{fill:none;stroke:#000000;stroke-width:0.1613;stroke-linecap:round;stroke-miterlimit:10;}
	.st44{fill:#375A64;}
	.st45{opacity:0.3;}
	.st46{fill:none;stroke:#FFC7BF;stroke-width:0.1122;stroke-miterlimit:10;}
	.st47{fill:none;stroke:#44555B;stroke-width:5.608974e-03;stroke-miterlimit:10;}
	.st48{fill:#FFFFFF;stroke:#000000;stroke-width:0.1637;stroke-miterlimit:10;}
	.st49{fill:#E1E1E1;}
	.st50{fill:#578DF3;}
	.st51{fill:#B72516;}
</style>
<g>
	<g id="g1459" transform="translate(458.8213,432.374)">
		<path class="st2" d="M-428.74-405.22c-0.13,0-0.25-0.02-0.37-0.06c-0.3-0.1-0.55-0.32-0.68-0.61l-0.58-1.24h-0.17
			c-2.14,0-3.89-1.74-3.89-3.89v-9.12c0-2.14,1.74-3.89,3.89-3.89h12.4c2.14,0,3.89,1.74,3.89,3.89v9.12c0,2.14-1.74,3.89-3.89,3.89
			h-6.65l-3.4,1.78C-428.37-405.27-428.56-405.22-428.74-405.22z M-430.55-421.71c-0.86,0-1.57,0.7-1.57,1.57v9.12
			c0,0.86,0.7,1.57,1.57,1.57h0.92c0.45,0,0.86,0.26,1.05,0.67l0.38,0.81l2.58-1.35c0.17-0.09,0.35-0.13,0.54-0.13h6.94
			c0.86,0,1.57-0.7,1.57-1.57v-9.12c0-0.86-0.7-1.57-1.57-1.57H-430.55z"/>
	</g>
	<g id="g1463" transform="translate(352.9834,341.6641)">
		<path class="st2" d="M-316.01-323.54h-5c-0.64,0-1.16-0.52-1.16-1.16c0-0.64,0.52-1.16,1.16-1.16h5c0.64,0,1.16,0.52,1.16,1.16
			C-314.85-324.06-315.37-323.54-316.01-323.54z"/>
	</g>
	<g id="g1467" transform="translate(166.2354,259.709)">
		<path class="st2" d="M-145-215.7c-3.81,0-7.42-2.27-8.95-6l-8.13-19.94c-0.97-2.39-0.96-5,0.04-7.38c1-2.37,2.87-4.21,5.25-5.18
			l2.72-1.11c2.81-1.15,6.03,0.21,7.17,3.02l1.21,2.96c0.55,1.36,0.55,2.86-0.03,4.21c-0.57,1.35-1.63,2.4-3,2.96l-1.86,0.76
			l4.69,11.51l1.86-0.76c2.81-1.14,6.03,0.21,7.17,3.02l1.21,2.96c0.55,1.36,0.55,2.86-0.02,4.21c-0.57,1.35-1.63,2.4-3,2.96
			l-2.72,1.11C-142.56-215.93-143.79-215.7-145-215.7z M-151.99-253.4c-0.4,0-0.8,0.08-1.2,0.23l-2.72,1.11
			c-1.81,0.74-3.23,2.14-3.99,3.94c-0.76,1.8-0.77,3.79-0.03,5.6l8.13,19.94c1.52,3.74,5.81,5.54,9.55,4.02l2.72-1.11
			c0.79-0.32,1.4-0.93,1.73-1.71c0.33-0.78,0.33-1.64,0.01-2.43l-1.21-2.96c-0.66-1.62-2.52-2.4-4.14-1.74l-2.93,1.2
			c-0.29,0.11-0.61,0.11-0.89-0.01c-0.28-0.12-0.51-0.35-0.63-0.63l-5.57-13.66c-0.12-0.29-0.11-0.6,0.01-0.89
			c0.12-0.29,0.35-0.51,0.63-0.63l2.93-1.19c0.79-0.32,1.4-0.93,1.73-1.71c0.33-0.78,0.33-1.64,0.01-2.43l-1.21-2.96
			C-149.54-252.65-150.73-253.4-151.99-253.4z"/>
	</g>
</g>
</svg>
