<?xml version="1.0" encoding="utf-8"?>
<!-- Generator: Adobe Illustrator 28.1.0, SVG Export Plug-In . SVG Version: 6.00 Build 0)  -->
<svg version="1.1" id="Layer_1" xmlns="http://www.w3.org/2000/svg" xmlns:xlink="http://www.w3.org/1999/xlink" x="0px" y="0px"
	 viewBox="0 0 48 48" style="enable-background:new 0 0 48 48;" xml:space="preserve">
<style type="text/css">
	.st0{fill:#800080;}
	.st1{fill:#F4F4F4;}
	.st2{fill-rule:evenodd;clip-rule:evenodd;fill:#F4F4F4;}
	.st3{fill-rule:evenodd;clip-rule:evenodd;fill:#800080;}
	.st4{fill-rule:evenodd;clip-rule:evenodd;}
	.st5{fill-rule:evenodd;clip-rule:evenodd;fill:#762E81;}
	.st6{fill:#762E81;}
	.st7{fill:#0066AC;}
	.st8{fill:#F39F33;}
	.st9{fill-rule:evenodd;clip-rule:evenodd;fill:#004669;}
	.st10{fill-rule:evenodd;clip-rule:evenodd;fill:#F5C30B;}
	.st11{fill:#004669;}
	.st12{fill-rule:evenodd;clip-rule:evenodd;fill:#E61C24;}
	.st13{fill-rule:evenodd;clip-rule:evenodd;fill:#224093;}
	.st14{fill:#204390;}
	.st15{fill:#E51F29;}
	.st16{fill:#3BB43F;}
	.st17{fill:#020202;}
	.st18{fill:#DA7031;}
	.st19{fill:#D72C32;}
	.st20{fill:#1A171B;}
	.st21{fill:#E28733;}
	.st22{clip-path:url(#SVGID_00000142885231643350081590000006877662170799155888_);}
	.st23{clip-path:url(#SVGID_00000022545258081420100490000008163082806807406476_);}
	.st24{fill:#FFFFFF;}
	.st25{fill:#2DB574;}
	.st26{fill:none;}
	.st27{fill:url(#SVGID_00000104674010198624742770000005839232919186169742_);}
	.st28{fill:url(#SVGID_00000029728935074467449730000011796676447768496772_);}
	.st29{fill:url(#SVGID_00000072984057205160823510000018263783591033241490_);}
	.st30{fill:url(#SVGID_00000169556058246303233790000010299013849348059283_);}
	.st31{fill:url(#SVGID_00000170262210237324340530000010842640916450032794_);}
	.st32{fill:url(#SVGID_00000052065683765292687560000000830370107977785478_);}
	.st33{fill:url(#SVGID_00000137828580298379585360000002804743655855976322_);}
	.st34{fill:url(#SVGID_00000005979603357019584590000006437573340161996421_);}
	.st35{fill:url(#SVGID_00000169560230388193477460000015824099485728812734_);}
	.st36{fill:url(#SVGID_00000036940662888041669240000009490818397497670538_);}
	.st37{fill:url(#SVGID_00000143581841204468024030000011849977017040425143_);}
	.st38{fill:url(#SVGID_00000009556970035813371390000002664776116516807062_);}
	.st39{fill:#1A2E35;}
	.st40{fill:#C27460;}
	.st41{fill:#7C4235;}
	.st42{fill:#FF735D;}
	.st43{fill:#762E85;}
	.st44{fill:none;stroke:#000000;stroke-width:0.1613;stroke-linecap:round;stroke-miterlimit:10;}
	.st45{fill:#375A64;}
	.st46{opacity:0.3;}
	.st47{fill:none;stroke:#FFC7BF;stroke-width:0.1122;stroke-miterlimit:10;}
	.st48{fill:none;stroke:#44555B;stroke-width:5.608974e-03;stroke-miterlimit:10;}
	.st49{fill:#FFFFFF;stroke:#000000;stroke-width:0.1637;stroke-miterlimit:10;}
	.st50{fill:#E1E1E1;}
	.st51{fill:#578CF2;}
	.st52{fill:#B62516;}
</style>
<g>
	<path class="st2" d="M45.05,41.68h-1.56v-17.3V20.5v-3.62v-3.87V9.39V5.52V1.84c0-0.4-0.33-0.73-0.73-0.73H22.68
		c-0.4,0-0.73,0.33-0.73,0.73v13.28H5.24c-0.4,0-0.73,0.33-0.73,0.73v25.83H2.95c-0.4,0-0.73,0.33-0.73,0.73v3.75
		c0,0.4,0.33,0.73,0.73,0.73h42.11c0.4,0,0.73-0.33,0.73-0.73v-3.75C45.78,42,45.46,41.68,45.05,41.68z M23.41,2.57h18.62v2.22
		H25.84c-0.4,0-0.73,0.33-0.73,0.73v3.87c0,0.4,0.33,0.73,0.73,0.73h16.19v2.16H25.84c-0.4,0-0.73,0.33-0.73,0.73v3.87
		c0,0.4,0.33,0.73,0.73,0.73h16.19v2.16H25.84c-0.4,0-0.73,0.33-0.73,0.73v3.87c0,0.4,0.33,0.73,0.73,0.73h16.19v16.57h-2.59V28.05
		c0-0.4-0.33-0.73-0.73-0.73H26.73c-0.4,0-0.73,0.33-0.73,0.73v13.62h-2.59V15.85V2.57z M42.03,6.25v2.41H26.57V6.25H42.03z
		 M42.03,13.74v2.41H26.57v-2.41H42.03z M42.03,21.23v2.41H26.57v-2.41H42.03z M27.46,41.68V28.78h10.53v12.89H27.46z M5.97,16.58
		h15.98v25.1H5.97V16.58z M44.32,45.43H3.68v-2.29h39.09h0h1.56V45.43z"/>
	<path class="st2" d="M19.3,26.34H8.62c-0.4,0-0.73,0.33-0.73,0.73v4.12c0,0.4,0.33,0.73,0.73,0.73H19.3c0.4,0,0.73-0.33,0.73-0.73
		v-4.12C20.03,26.66,19.7,26.34,19.3,26.34z M18.57,30.46H9.35V27.8h9.22V30.46z"/>
	<path class="st2" d="M19.3,18.59H8.62c-0.4,0-0.73,0.33-0.73,0.73v4.12c0,0.4,0.33,0.73,0.73,0.73H19.3c0.4,0,0.73-0.33,0.73-0.73
		v-4.12C20.03,18.92,19.7,18.59,19.3,18.59z M18.57,22.71H9.35v-2.66h9.22V22.71z"/>
	<path class="st2" d="M19.3,34.08H8.62c-0.4,0-0.73,0.33-0.73,0.73v4.12c0,0.4,0.33,0.73,0.73,0.73H19.3c0.4,0,0.73-0.33,0.73-0.73
		v-4.12C20.03,34.4,19.7,34.08,19.3,34.08z M18.57,38.2H9.35v-2.66h9.22V38.2z"/>
</g>
</svg>
