<?xml version="1.0" encoding="utf-8"?>
<!-- Generator: Adobe Illustrator 28.1.0, SVG Export Plug-In . SVG Version: 6.00 Build 0)  -->
<svg version="1.1" id="Layer_1" xmlns="http://www.w3.org/2000/svg" xmlns:xlink="http://www.w3.org/1999/xlink" x="0px" y="0px"
	 viewBox="0 0 48 48" style="enable-background:new 0 0 48 48;" xml:space="preserve">
<style type="text/css">
	.st0{fill:#800080;}
	.st1{fill-rule:evenodd;clip-rule:evenodd;}
	.st2{fill-rule:evenodd;clip-rule:evenodd;fill:#800080;}
	.st3{fill-rule:evenodd;clip-rule:evenodd;fill:#762E82;}
	.st4{fill:#762E82;}
	.st5{fill:#0066AD;}
	.st6{fill:#F4A033;}
	.st7{fill-rule:evenodd;clip-rule:evenodd;fill:#004669;}
	.st8{fill-rule:evenodd;clip-rule:evenodd;fill:#F6C40B;}
	.st9{fill:#004669;}
	.st10{fill-rule:evenodd;clip-rule:evenodd;fill:#E71C24;}
	.st11{fill-rule:evenodd;clip-rule:evenodd;fill:#224094;}
	.st12{fill:#204391;}
	.st13{fill:#E61F29;}
	.st14{fill:#3BB53F;}
	.st15{fill:#020202;}
	.st16{fill:#DB7031;}
	.st17{fill:#D82C32;}
	.st18{fill:#1A171B;}
	.st19{fill:#E38833;}
	.st20{clip-path:url(#SVGID_00000133529623940346533460000005536296746653364146_);}
	.st21{clip-path:url(#SVGID_00000030488713676981398780000000934045756901967266_);}
	.st22{fill:#FFFFFF;}
	.st23{fill:#2DB674;}
	.st24{fill:none;}
	.st25{fill:url(#SVGID_00000166633323981128051420000015867697538972469904_);}
	.st26{fill:url(#SVGID_00000014594837706529463480000003497356675955343751_);}
	.st27{fill:url(#SVGID_00000166662372557595047520000012518073960293536940_);}
	.st28{fill:url(#SVGID_00000006708592625238015710000011634570713367039394_);}
	.st29{fill:url(#SVGID_00000063610812600714995410000014743407424625611670_);}
	.st30{fill:url(#SVGID_00000022528268292553173600000011171230640967496615_);}
	.st31{fill:url(#SVGID_00000165916957094645623600000002599041715349910432_);}
	.st32{fill:url(#SVGID_00000161620897713734591950000003297009570238955914_);}
	.st33{fill:url(#SVGID_00000145054941544588161120000005339388281973126302_);}
	.st34{fill:url(#SVGID_00000130633445205013169800000002979737560624055998_);}
	.st35{fill:url(#SVGID_00000036938716548268250580000001041142060901270434_);}
	.st36{fill:url(#SVGID_00000116237294824610793260000004768195076400692122_);}
	.st37{fill:#1A2E35;}
	.st38{fill:#C27460;}
	.st39{fill:#7C4235;}
	.st40{fill:#FF735D;}
	.st41{fill:#762E86;}
	.st42{fill:none;stroke:#000000;stroke-width:0.1613;stroke-linecap:round;stroke-miterlimit:10;}
	.st43{fill:#375A64;}
	.st44{opacity:0.3;}
	.st45{fill:none;stroke:#FFC7BF;stroke-width:0.1122;stroke-miterlimit:10;}
	.st46{fill:none;stroke:#44555B;stroke-width:5.608974e-03;stroke-miterlimit:10;}
	.st47{fill:#FFFFFF;stroke:#000000;stroke-width:0.1637;stroke-miterlimit:10;}
	.st48{fill:#E1E1E1;}
	.st49{fill:#578DF3;}
	.st50{fill:#B72516;}
</style>
<g id="g3835_00000145044518277596090840000015539830200575183806_">
	<g id="g3841_00000049914470260365916760000000194436961179916418_" transform="translate(354.5781,217.4268)">
		<path d="M-319.18-177.55h-11.4c-0.63,0-1.14-0.51-1.14-1.14v-7.1c0-2.48,0.97-4.81,2.72-6.56l7.09-7.09
			c1.33-1.33,3.44-1.4,4.85-0.21v-9.15c0-1.98,1.61-3.59,3.59-3.59c1.98,0,3.59,1.61,3.59,3.59v13.33c0,2.17-0.76,4.28-2.15,5.94
			l-5.99,7.19v3.66C-318.04-178.06-318.55-177.55-319.18-177.55z M-329.44-179.84h9.11v-2.93c0-0.27,0.09-0.53,0.26-0.73l6.25-7.5
			c1.05-1.26,1.62-2.85,1.62-4.48v-13.33c0-0.72-0.58-1.3-1.3-1.3s-1.3,0.58-1.3,1.3v9.87c0,1.61-0.63,3.12-1.77,4.26l-5.2,5.2
			c-0.45,0.45-1.17,0.45-1.62,0c-0.22-0.22-0.33-0.52-0.33-0.81s0.11-0.59,0.33-0.81l4.9-4.9c0.51-0.51,0.51-1.33,0-1.84
			c-0.51-0.51-1.33-0.51-1.84,0l-7.09,7.09c-1.32,1.32-2.05,3.08-2.05,4.95V-179.84z"/>
	</g>
	<g id="g3845_00000151513947048710491600000008035317464478410638_" transform="translate(157.4219,217.4268)">
		<path d="M-133.42-177.55h-11.4c-0.63,0-1.14-0.51-1.14-1.14v-3.66l-5.99-7.19c-1.39-1.66-2.15-3.78-2.15-5.94v-13.33
			c0-1.98,1.61-3.59,3.59-3.59s3.59,1.61,3.59,3.59v9.15c1.41-1.19,3.52-1.12,4.85,0.21l7.09,7.09c1.75,1.75,2.72,4.08,2.72,6.56
			v7.1C-132.28-178.06-132.79-177.55-133.42-177.55z M-143.68-179.84h9.11v-5.96c0-1.87-0.73-3.63-2.05-4.95l-7.09-7.09
			c-0.51-0.51-1.33-0.51-1.84,0c-0.51,0.51-0.51,1.33,0,1.84l4.9,4.9c0.45,0.45,0.45,1.17,0,1.62c-0.22,0.22-0.52,0.33-0.81,0.33
			l0,0h0c-0.29,0-0.59-0.11-0.81-0.33l-5.2-5.2c-1.14-1.14-1.76-2.65-1.76-4.26v-9.87c0-0.72-0.58-1.3-1.3-1.3
			c-0.72,0-1.3,0.58-1.3,1.3v13.33c0,1.63,0.58,3.22,1.62,4.48l6.25,7.5c0.17,0.2,0.26,0.46,0.26,0.73V-179.84z"/>
	</g>
	<path d="M37.02,44.76H24c-0.63,0-1.14-0.51-1.14-1.14v-4.88c0-0.63,0.51-1.14,1.14-1.14h13.03c0.63,0,1.14,0.51,1.14,1.14v4.88
		C38.17,44.25,37.66,44.76,37.02,44.76z M25.14,42.47h10.74v-2.6H25.14V42.47z"/>
	<path d="M24,44.76H10.98c-0.63,0-1.14-0.51-1.14-1.14v-4.88c0-0.63,0.51-1.14,1.14-1.14H24c0.63,0,1.14,0.51,1.14,1.14v4.88
		C25.14,44.25,24.63,44.76,24,44.76z M12.12,42.47h10.74v-2.6H12.12V42.47z"/>
	<g id="g3853_00000126321125604560021120000002351976971915633061_" transform="translate(256,467.415)">
		<path d="M-232-448.05L-232-448.05c-0.3,0-0.59-0.12-0.81-0.33l-6.94-6.94c-2.02-2.02-2.02-5.31,0-7.33c2.02-2.02,5.31-2.02,7.33,0
			l0.42,0.42l0.42-0.42c2.02-2.02,5.31-2.02,7.33,0c2.02,2.02,2.02,5.31,0,7.33l-6.94,6.94C-231.41-448.17-231.7-448.05-232-448.05z
			 M-236.08-461.89c-0.74,0-1.48,0.28-2.05,0.85c-1.13,1.13-1.13,2.97,0,4.1l6.13,6.13l6.13-6.13c1.13-1.13,1.13-2.97,0-4.1
			c-1.13-1.13-2.97-1.13-4.1,0l-1.23,1.23c-0.21,0.21-0.51,0.33-0.81,0.33l0,0c-0.3,0-0.59-0.12-0.81-0.33l-1.22-1.23
			C-234.6-461.61-235.34-461.89-236.08-461.89z"/>
	</g>
</g>
</svg>
