<?xml version="1.0" encoding="utf-8"?>
<!-- Generator: Adobe Illustrator 28.1.0, SVG Export Plug-In . SVG Version: 6.00 Build 0)  -->
<svg version="1.1" id="Layer_1" xmlns="http://www.w3.org/2000/svg" xmlns:xlink="http://www.w3.org/1999/xlink" x="0px" y="0px"
	 viewBox="0 0 48 48" style="enable-background:new 0 0 48 48;" xml:space="preserve">
<style type="text/css">
	.st0{fill:#800080;}
	.st1{fill-rule:evenodd;clip-rule:evenodd;}
	.st2{fill:#F4F4F4;}
	.st3{fill-rule:evenodd;clip-rule:evenodd;fill:#F4F4F4;}
	.st4{fill:#762E82;}
	.st5{fill:#0066AD;}
	.st6{fill:#F4A033;}
	.st7{fill-rule:evenodd;clip-rule:evenodd;fill:#004669;}
	.st8{fill-rule:evenodd;clip-rule:evenodd;fill:#F6C40B;}
	.st9{fill:#004669;}
	.st10{fill-rule:evenodd;clip-rule:evenodd;fill:#E71C24;}
	.st11{fill-rule:evenodd;clip-rule:evenodd;fill:#224094;}
	.st12{fill:#204391;}
	.st13{fill:#E61F29;}
	.st14{fill:#3BB53F;}
	.st15{fill:#020202;}
	.st16{fill:#DB7031;}
	.st17{fill:#D82C32;}
	.st18{fill:#1A171B;}
	.st19{fill:#E38833;}
	.st20{fill-rule:evenodd;clip-rule:evenodd;fill:#800080;}
	.st21{clip-path:url(#SVGID_00000135649810842797656170000016829839649925592721_);}
	.st22{clip-path:url(#SVGID_00000143582015965104879960000017535373493796868278_);}
	.st23{fill:#FFFFFF;}
	.st24{fill:#2DB674;}
	.st25{fill:none;}
	.st26{fill:url(#SVGID_00000173136201088037538160000015079228883572779411_);}
	.st27{fill:url(#SVGID_00000023994389107342097840000017190870796960126620_);}
	.st28{fill:url(#SVGID_00000145758695702726314330000011669206513367000505_);}
	.st29{fill:url(#SVGID_00000036937633625538953850000018111638327171878798_);}
	.st30{fill:url(#SVGID_00000063596285529578648700000013844194050128358294_);}
	.st31{fill:url(#SVGID_00000040562976262242398410000010729485816649362841_);}
	.st32{fill:url(#SVGID_00000019659081929338079080000013325898979349721782_);}
	.st33{fill:url(#SVGID_00000036965333946278553910000013538682687259990963_);}
	.st34{fill:url(#SVGID_00000052097154221913857330000002711640562924160403_);}
	.st35{fill:url(#SVGID_00000083806188226362769160000017530927746172404867_);}
	.st36{fill:url(#SVGID_00000041980461591955111960000013633281179151276202_);}
	.st37{fill:url(#SVGID_00000008107201558282643720000002461813185473314705_);}
	.st38{fill:#1A2E35;}
	.st39{fill:#C27460;}
	.st40{fill:#7C4235;}
	.st41{fill:#FF735D;}
	.st42{fill:#762E86;}
	.st43{fill:none;stroke:#000000;stroke-width:0.1613;stroke-linecap:round;stroke-miterlimit:10;}
	.st44{fill:#375A64;}
	.st45{opacity:0.3;}
	.st46{fill:none;stroke:#FFC7BF;stroke-width:0.1122;stroke-miterlimit:10;}
	.st47{fill:none;stroke:#44555B;stroke-width:5.608974e-03;stroke-miterlimit:10;}
	.st48{fill:#FFFFFF;stroke:#000000;stroke-width:0.1637;stroke-miterlimit:10;}
	.st49{fill:#E1E1E1;}
	.st50{fill:#578DF3;}
	.st51{fill:#B72516;}
</style>
<g>
	<g>
		<path class="st2" d="M45.32,15.02L34.25,3.96c-2-2-5.27-2-7.28,0L11.33,19.61H6.33c-2.84,0-5.15,2.31-5.15,5.15V40.4
			c0,2.84,2.31,5.15,5.15,5.15h28.45c2.84,0,5.15-2.31,5.15-5.15V27.68l5.38-5.38C47.32,20.29,47.32,17.03,45.32,15.02z M28.6,5.59
			c1.11-1.11,2.91-1.11,4.02,0l7.08,7.08l-6.93,6.94H14.58L28.6,5.59z M34.78,43.24H6.33c-1.14,0-2.16-0.69-2.6-1.69h33.66
			C36.93,42.55,35.92,43.24,34.78,43.24z M37.63,39.24H3.48v-2.18h34.14V39.24z M37.63,34.76H3.48v-10c0-1.57,1.27-2.85,2.85-2.85
			h28.45c1.57,0,2.85,1.28,2.85,2.85V34.76z M37.98,20.73c-0.6-0.48-1.32-0.83-2.09-1l5.44-5.44l1.55,1.54L37.98,20.73z
			 M43.69,20.67l-3.77,3.77c-0.04-0.68-0.21-1.32-0.5-1.9l4.91-4.9C44.72,18.67,44.5,19.86,43.69,20.67z"/>
	</g>
	<g>
		<path class="st2" d="M17.07,23.75H6.03c-0.63,0-1.15,0.51-1.15,1.15v6.01c0,0.64,0.52,1.15,1.15,1.15h11.04
			c0.63,0,1.15-0.51,1.15-1.15V24.9C18.23,24.26,17.71,23.75,17.07,23.75z M8.61,29.76H7.18v-3.71h1.43V29.76z M12.19,29.76h-1.27
			v-3.71h1.27V29.76z M15.92,29.76h-1.43v-3.71h1.43V29.76z"/>
	</g>
</g>
</svg>
