<?xml version="1.0" encoding="utf-8"?>
<!-- Generator: Adobe Illustrator 28.1.0, SVG Export Plug-In . SVG Version: 6.00 Build 0)  -->
<svg version="1.1" id="Layer_1" xmlns="http://www.w3.org/2000/svg" xmlns:xlink="http://www.w3.org/1999/xlink" x="0px" y="0px"
	 viewBox="0 0 48 48" style="enable-background:new 0 0 48 48;" xml:space="preserve">
<style type="text/css">
	.st0{fill:#800080;}
	.st1{fill-rule:evenodd;clip-rule:evenodd;}
	.st2{fill:#F4F4F4;}
	.st3{fill-rule:evenodd;clip-rule:evenodd;fill:#F4F4F4;}
	.st4{fill:#762E82;}
	.st5{fill:#0066AD;}
	.st6{fill:#F4A033;}
	.st7{fill-rule:evenodd;clip-rule:evenodd;fill:#004669;}
	.st8{fill-rule:evenodd;clip-rule:evenodd;fill:#F6C40B;}
	.st9{fill:#004669;}
	.st10{fill-rule:evenodd;clip-rule:evenodd;fill:#E71C24;}
	.st11{fill-rule:evenodd;clip-rule:evenodd;fill:#224094;}
	.st12{fill:#204391;}
	.st13{fill:#E61F29;}
	.st14{fill:#3BB53F;}
	.st15{fill:#020202;}
	.st16{fill:#DB7031;}
	.st17{fill:#D82C32;}
	.st18{fill:#1A171B;}
	.st19{fill:#E38833;}
	.st20{fill-rule:evenodd;clip-rule:evenodd;fill:#800080;}
	.st21{clip-path:url(#SVGID_00000082366163500584623990000001299695548927458471_);}
	.st22{clip-path:url(#SVGID_00000080893157286554983810000003766622306893842347_);}
	.st23{fill:#FFFFFF;}
	.st24{fill:#2DB674;}
	.st25{fill:none;}
	.st26{fill:url(#SVGID_00000139294275453688392760000002687165239565189547_);}
	.st27{fill:url(#SVGID_00000159438050334010053470000017754947535357950082_);}
	.st28{fill:url(#SVGID_00000029003886497752001450000018133484703702648194_);}
	.st29{fill:url(#SVGID_00000074429564026585550770000012264650333939247284_);}
	.st30{fill:url(#SVGID_00000069362912454252482910000018118464007957929120_);}
	.st31{fill:url(#SVGID_00000095313634870843607830000014493145793461901715_);}
	.st32{fill:url(#SVGID_00000176739563660626180370000002497403138666308797_);}
	.st33{fill:url(#SVGID_00000098217983150253568910000002508315619621186213_);}
	.st34{fill:url(#SVGID_00000096024941811142918070000009044132886376747169_);}
	.st35{fill:url(#SVGID_00000156557800305250691420000000121406868017615258_);}
	.st36{fill:url(#SVGID_00000059288981756956275350000002202512022219744934_);}
	.st37{fill:url(#SVGID_00000044145826379590718170000010968409749217088159_);}
	.st38{fill:#1A2E35;}
	.st39{fill:#C27460;}
	.st40{fill:#7C4235;}
	.st41{fill:#FF735D;}
	.st42{fill:#762E86;}
	.st43{fill:none;stroke:#000000;stroke-width:0.1613;stroke-linecap:round;stroke-miterlimit:10;}
	.st44{fill:#375A64;}
	.st45{opacity:0.3;}
	.st46{fill:none;stroke:#FFC7BF;stroke-width:0.1122;stroke-miterlimit:10;}
	.st47{fill:none;stroke:#44555B;stroke-width:5.608974e-03;stroke-miterlimit:10;}
	.st48{fill:#FFFFFF;stroke:#000000;stroke-width:0.1637;stroke-miterlimit:10;}
	.st49{fill:#E1E1E1;}
	.st50{fill:#578DF3;}
	.st51{fill:#B72516;}
</style>
<g>
	<g>
		<path class="st3" d="M45.53,11.97c-0.24-0.59-0.79-0.95-1.42-0.95h-7.07V3.94c0-0.61-0.36-1.16-0.93-1.4
			c-0.57-0.24-1.22-0.1-1.66,0.32L27.9,9.44c-0.28,0.28-0.45,0.69-0.45,1.07v7.99l-4.84,4.82l-0.49-0.04c-1.4,0-2.53,1.13-2.53,2.53
			c0,1.4,1.13,2.53,2.53,2.53s2.53-1.14,2.53-2.53v-0.22l0.14-0.16l4.8-4.8h7.94c0.41,0,0.81-0.16,1.09-0.45l6.57-6.57
			C45.63,13.19,45.75,12.54,45.53,11.97z M36.92,17.58h-6.42v-6.45L34,7.61v4.93c0,0.85,0.69,1.52,1.52,1.52h4.93L36.92,17.58z"/>
	</g>
	<g>
		<path class="st3" d="M32.76,26.32c-0.06,1.22-0.32,2.41-0.81,3.57c-0.53,1.3-1.3,2.45-2.29,3.45s-2.17,1.78-3.47,2.31
			s-2.65,0.81-4.05,0.81h-0.02c-2.84,0-5.51-1.11-7.52-3.12c-2.01-2.01-3.12-4.68-3.12-7.52c0.02-2.84,1.11-5.51,3.12-7.52
			c1.88-1.88,4.36-2.98,7.01-3.12v3.06c-1.82,0.12-3.55,0.89-4.86,2.21c-1.44,1.44-2.23,3.34-2.23,5.37s0.79,3.93,2.23,5.37
			c1.44,1.44,3.34,2.23,5.37,2.23c0.02,0,0.02,0,0.02,0c0.99,0,1.97-0.2,2.9-0.59c0.93-0.36,1.76-0.93,2.47-1.64
			c0.71-0.71,1.26-1.54,1.64-2.47c0.32-0.77,0.51-1.56,0.55-2.39H32.76z"/>
	</g>
	<g>
		<polygon class="st3" points="22.13,36.95 22.13,36.95 22.12,36.95 		"/>
	</g>
	<g>
		<polygon class="st3" points="22.12,36.95 22.12,36.95 22.12,36.95 		"/>
	</g>
	<path class="st3" d="M41.88,26.32c-0.12,5.09-2.17,9.85-5.78,13.46c-3.75,3.73-8.69,5.8-13.98,5.8c-5.27,0-10.23-2.07-13.96-5.8
		c-3.73-3.73-5.8-8.69-5.8-13.96c0-5.29,2.07-10.26,5.8-13.98c3.61-3.61,8.37-5.65,13.46-5.78v3.04c-4.28,0.12-8.27,1.84-11.31,4.88
		c-3.16,3.16-4.9,7.36-4.9,11.84c0,4.46,1.74,8.65,4.9,11.82c3.16,3.16,7.36,4.9,11.82,4.9c2.23,0,4.42-0.43,6.4-1.28
		c2.01-0.81,3.85-2.05,5.43-3.63c3.02-3.04,4.76-7.03,4.88-11.31H41.88z"/>
</g>
</svg>
