<?xml version="1.0" encoding="utf-8"?>
<!-- Generator: Adobe Illustrator 28.1.0, SVG Export Plug-In . SVG Version: 6.00 Build 0)  -->
<svg version="1.1" id="Layer_1" xmlns="http://www.w3.org/2000/svg" xmlns:xlink="http://www.w3.org/1999/xlink" x="0px" y="0px"
	 viewBox="0 0 48 48" style="enable-background:new 0 0 48 48;" xml:space="preserve">
<style type="text/css">
	.st0{fill:#800080;}
	.st1{fill-rule:evenodd;clip-rule:evenodd;}
	.st2{fill:#F4F4F4;}
	.st3{fill-rule:evenodd;clip-rule:evenodd;fill:#F4F4F4;}
	.st4{fill:#762E82;}
	.st5{fill:#0066AD;}
	.st6{fill:#F4A033;}
	.st7{fill-rule:evenodd;clip-rule:evenodd;fill:#004669;}
	.st8{fill-rule:evenodd;clip-rule:evenodd;fill:#F6C40B;}
	.st9{fill:#004669;}
	.st10{fill-rule:evenodd;clip-rule:evenodd;fill:#E71C24;}
	.st11{fill-rule:evenodd;clip-rule:evenodd;fill:#224094;}
	.st12{fill:#204391;}
	.st13{fill:#E61F29;}
	.st14{fill:#3BB53F;}
	.st15{fill:#020202;}
	.st16{fill:#DB7031;}
	.st17{fill:#D82C32;}
	.st18{fill:#1A171B;}
	.st19{fill:#E38833;}
	.st20{fill-rule:evenodd;clip-rule:evenodd;fill:#800080;}
	.st21{clip-path:url(#SVGID_00000134938385848264180430000000372686698079762566_);}
	.st22{clip-path:url(#SVGID_00000047022184243546787420000007948153710448376746_);}
	.st23{fill:#FFFFFF;}
	.st24{fill:#2DB674;}
	.st25{fill:none;}
	.st26{fill:url(#SVGID_00000078741586156437424230000013330927377416354208_);}
	.st27{fill:url(#SVGID_00000035522272891279001240000013968554056779326087_);}
	.st28{fill:url(#SVGID_00000008149151481898185070000002827049647251856319_);}
	.st29{fill:url(#SVGID_00000131325193922764482230000016434661028428528285_);}
	.st30{fill:url(#SVGID_00000072986517746716049530000008611803822381440690_);}
	.st31{fill:url(#SVGID_00000121992902118505587310000005414170461410259636_);}
	.st32{fill:url(#SVGID_00000167354254450468782880000008503824143286765193_);}
	.st33{fill:url(#SVGID_00000051347744131226648580000009461172219763581613_);}
	.st34{fill:url(#SVGID_00000098212915873641459170000012970947352487339953_);}
	.st35{fill:url(#SVGID_00000044165920137085864100000018108254497818756231_);}
	.st36{fill:url(#SVGID_00000181062371848629879310000017841051958515186342_);}
	.st37{fill:url(#SVGID_00000119109759938980888900000001765549852154096770_);}
	.st38{fill:#1A2E35;}
	.st39{fill:#C27460;}
	.st40{fill:#7C4235;}
	.st41{fill:#FF735D;}
	.st42{fill:#762E86;}
	.st43{fill:none;stroke:#000000;stroke-width:0.1613;stroke-linecap:round;stroke-miterlimit:10;}
	.st44{fill:#375A64;}
	.st45{opacity:0.3;}
	.st46{fill:none;stroke:#FFC7BF;stroke-width:0.1122;stroke-miterlimit:10;}
	.st47{fill:none;stroke:#44555B;stroke-width:5.608974e-03;stroke-miterlimit:10;}
	.st48{fill:#FFFFFF;stroke:#000000;stroke-width:0.1637;stroke-miterlimit:10;}
	.st49{fill:#E1E1E1;}
	.st50{fill:#578DF3;}
	.st51{fill:#B72516;}
</style>
<path class="st2" d="M13.62,31.56c-2.04,0-3.69-1.66-3.69-3.69s1.66-3.69,3.69-3.69s3.69,1.66,3.69,3.69S15.66,31.56,13.62,31.56z
	 M13.62,26.41c-0.8,0-1.45,0.65-1.45,1.45s0.65,1.45,1.45,1.45c0.8,0,1.45-0.65,1.45-1.45S14.42,26.41,13.62,26.41z"/>
<path class="st2" d="M34.38,12.25c-0.62,0-1.12-0.5-1.12-1.12V8.56c0-0.62,0.5-1.12,1.12-1.12s1.12,0.5,1.12,1.12v2.57
	C35.5,11.75,35,12.25,34.38,12.25z"/>
<path class="st2" d="M34.38,21.26c-0.62,0-1.12-0.5-1.12-1.12v-4.03h-1.45c-0.62,0-1.12-0.5-1.12-1.12c0-0.62,0.5-1.12,1.12-1.12
	h2.57c0.62,0,1.12,0.5,1.12,1.12v5.15C35.5,20.76,35,21.26,34.38,21.26z"/>
<path class="st2" d="M36.96,21.26h-5.15c-0.62,0-1.12-0.5-1.12-1.12c0-0.62,0.5-1.12,1.12-1.12h5.15c0.62,0,1.12,0.5,1.12,1.12
	C38.08,20.76,37.57,21.26,36.96,21.26z"/>
<path class="st2" d="M45.8,14.99c0-6.29-5.12-11.42-11.42-11.42S22.97,8.7,22.97,14.99c0,1.42,0.27,2.77,0.75,4.03H3.32
	c-0.62,0-1.12,0.5-1.12,1.12V43.3c0,0.62,0.5,1.12,1.12,1.12h33.63c0.62,0,1.12-0.5,1.12-1.12V25.78
	C42.56,24.24,45.8,19.99,45.8,14.99z M35.83,42.18H4.44V21.26h20.41c2.04,3.1,5.55,5.15,9.53,5.15c0.49,0,0.98-0.04,1.45-0.1V42.18z
	 M34.38,24.17c-5.06,0-9.17-4.12-9.17-9.17s4.12-9.17,9.17-9.17s9.17,4.12,9.17,9.17S39.44,24.17,34.38,24.17z"/>
<path class="st2" d="M18.77,39.28c0,0-0.01,0-0.01,0c-0.26,0-10.29,0-10.29,0c-0.62,0-1.12-0.5-1.12-1.12v-2.57
	c0-1.01,0.4-1.96,1.13-2.66c0.69-0.67,1.6-1.04,2.57-1.04h5.15c2.04,0,3.69,1.66,3.69,3.69v2.57c0,0,0,0,0,0
	C19.89,38.78,19.38,39.28,18.77,39.28z M9.59,37.03c4.1,0,6.57,0.01,8.05,0.08v-1.54c0-0.8-0.65-1.45-1.45-1.45h-5.15
	c-0.38,0-0.74,0.14-1.01,0.41c0,0,0,0,0,0c-0.29,0.28-0.44,0.65-0.44,1.05V37.03z M9.26,33.73h0.02H9.26z"/>
<path class="st2" d="M33.09,31.56H22.8c-0.62,0-1.12-0.5-1.12-1.12c0-0.62,0.5-1.12,1.12-1.12h10.3c0.62,0,1.12,0.5,1.12,1.12
	C34.22,31.05,33.71,31.56,33.09,31.56z"/>
<path class="st2" d="M33.09,36.7H22.8c-0.62,0-1.12-0.5-1.12-1.12s0.5-1.12,1.12-1.12h10.3c0.62,0,1.12,0.5,1.12,1.12
	S33.71,36.7,33.09,36.7z"/>
</svg>
