<?xml version="1.0" encoding="utf-8"?>
<!-- Generator: Adobe Illustrator 28.1.0, SVG Export Plug-In . SVG Version: 6.00 Build 0)  -->
<svg version="1.1" id="Layer_1" xmlns="http://www.w3.org/2000/svg" xmlns:xlink="http://www.w3.org/1999/xlink" x="0px" y="0px"
	 viewBox="0 0 48 48" style="enable-background:new 0 0 48 48;" xml:space="preserve">
<style type="text/css">
	.st0{fill:#800080;}
	.st1{fill:#F4F4F4;}
	.st2{fill-rule:evenodd;clip-rule:evenodd;fill:#F4F4F4;}
	.st3{fill-rule:evenodd;clip-rule:evenodd;fill:#800080;}
	.st4{fill-rule:evenodd;clip-rule:evenodd;}
	.st5{fill-rule:evenodd;clip-rule:evenodd;fill:#762E81;}
	.st6{fill:#762E81;}
	.st7{fill:#0066AC;}
	.st8{fill:#F39F33;}
	.st9{fill-rule:evenodd;clip-rule:evenodd;fill:#004669;}
	.st10{fill-rule:evenodd;clip-rule:evenodd;fill:#F5C30B;}
	.st11{fill:#004669;}
	.st12{fill-rule:evenodd;clip-rule:evenodd;fill:#E61C24;}
	.st13{fill-rule:evenodd;clip-rule:evenodd;fill:#224093;}
	.st14{fill:#204390;}
	.st15{fill:#E51F29;}
	.st16{fill:#3BB43F;}
	.st17{fill:#020202;}
	.st18{fill:#DA7031;}
	.st19{fill:#D72C32;}
	.st20{fill:#1A171B;}
	.st21{fill:#E28733;}
	.st22{clip-path:url(#SVGID_00000129182036873568438690000006448135047205164690_);}
	.st23{clip-path:url(#SVGID_00000032639515448441147050000008492167705021519534_);}
	.st24{fill:#FFFFFF;}
	.st25{fill:#2DB574;}
	.st26{fill:none;}
	.st27{fill:url(#SVGID_00000179612191732442060440000010507891872376959928_);}
	.st28{fill:url(#SVGID_00000052067016773230422290000004560531806953751975_);}
	.st29{fill:url(#SVGID_00000063630584653591015310000001920058174735383224_);}
	.st30{fill:url(#SVGID_00000117669216125309595320000009622995388369138354_);}
	.st31{fill:url(#SVGID_00000153685517970458129190000015216442184679339428_);}
	.st32{fill:url(#SVGID_00000056403090833398021050000016451682384669366187_);}
	.st33{fill:url(#SVGID_00000131347570902879219370000009397855798215189396_);}
	.st34{fill:url(#SVGID_00000137096680691153928590000012999249885305239984_);}
	.st35{fill:url(#SVGID_00000038404839423883402470000006141346988799692212_);}
	.st36{fill:url(#SVGID_00000038370776922415482840000017306564736983139985_);}
	.st37{fill:url(#SVGID_00000012434967987265337060000017745298659839354022_);}
	.st38{fill:url(#SVGID_00000023275802453375087670000001997134197102138790_);}
	.st39{fill:#1A2E35;}
	.st40{fill:#C27460;}
	.st41{fill:#7C4235;}
	.st42{fill:#FF735D;}
	.st43{fill:#762E85;}
	.st44{fill:none;stroke:#000000;stroke-width:0.1613;stroke-linecap:round;stroke-miterlimit:10;}
	.st45{fill:#375A64;}
	.st46{opacity:0.3;}
	.st47{fill:none;stroke:#FFC7BF;stroke-width:0.1122;stroke-miterlimit:10;}
	.st48{fill:none;stroke:#44555B;stroke-width:5.608974e-03;stroke-miterlimit:10;}
	.st49{fill:#FFFFFF;stroke:#000000;stroke-width:0.1637;stroke-miterlimit:10;}
	.st50{fill:#E1E1E1;}
	.st51{fill:#578CF2;}
	.st52{fill:#B62516;}
</style>
<g>
	<g>
		<path class="st1" d="M37.98,27.55l1.23,2.49c0.1,0.19,0.28,0.33,0.5,0.36l2.74,0.4c0.54,0.08,0.76,0.74,0.37,1.13l-1.98,1.93
			c-0.16,0.15-0.23,0.37-0.19,0.58l0.47,2.73c0.09,0.54-0.47,0.95-0.96,0.7l-2.45-1.29c-0.19-0.1-0.42-0.1-0.61,0l-2.45,1.29
			c-0.48,0.25-1.05-0.16-0.96-0.7l0.47-2.73c0.04-0.21-0.03-0.43-0.19-0.58l-1.98-1.93c-0.39-0.38-0.18-1.05,0.37-1.13l2.74-0.4
			c0.21-0.03,0.4-0.17,0.5-0.36l1.23-2.49C37.04,27.06,37.74,27.06,37.98,27.55z"/>
	</g>
</g>
<path class="st1" d="M29.71,4.77c0-0.44,0.36-0.8,0.8-0.8h9.79c0.44,0,0.8,0.36,0.8,0.8c0,0.44-0.36,0.8-0.8,0.8h-9.79
	C30.07,5.57,29.71,5.21,29.71,4.77z M30.51,8.77h4.01c0.44,0,0.8-0.36,0.8-0.8s-0.36-0.8-0.8-0.8h-4.01c-0.44,0-0.8,0.36-0.8,0.8
	S30.07,8.77,30.51,8.77z M47.24,33.18c0,5.43-4.42,9.85-9.85,9.85c-0.46,0-0.92-0.04-1.37-0.1v3.52c0,0.44-0.36,0.8-0.8,0.8H1.56
	c-0.44,0-0.8-0.36-0.8-0.8v-7.57c0-3.03,1.61-5.87,4.2-7.45c1.09-0.66,2.28-1.08,3.54-1.25l1.65-0.23l1.43-1.11
	c0.3-0.23,0.73-0.22,1.02,0.03l0.18,0.16V27.9c-2.32-1.55-4.03-4.02-4.6-6.89H5.9c-1.34,0-2.42-1.19-2.42-2.66v-2.1
	c0-1.47,1.09-2.66,2.42-2.66h0.48v-0.8c0-6.63,5.39-12.02,12.02-12.02c3.06,0,5.91,1.15,8.12,3.2V3.29c0-1.39,1.13-2.52,2.52-2.52
	h12.99c1.39,0,2.52,1.14,2.52,2.52v6.32c0,1.39-1.13,2.52-2.52,2.52h-2.07l-3.28,3.14c-0.15,0.14-0.35,0.22-0.55,0.22
	c-0.1,0-0.22-0.02-0.31-0.06c-0.3-0.13-0.49-0.42-0.49-0.74v-2.56H30.4c0.02,0.22,0.02,0.44,0.02,0.65v0.8h0.48
	c1.34,0,2.42,1.19,2.42,2.66v2.1c0,1.4-1,2.54-2.25,2.64v2.18c0,1.21-0.99,2.2-2.2,2.2h-1.57c-0.16,0.93-0.97,1.64-1.95,1.64h-0.1
	c-0.4,0.35-0.81,0.67-1.25,0.95v1.07l0.18-0.16c0.29-0.25,0.71-0.26,1.02-0.03l1.43,1.11l1.39,0.19c1.28-3.95,4.99-6.82,9.37-6.82
	C42.83,23.33,47.24,27.74,47.24,33.18z M19.82,34.78l3.73,1.86l2.08-5.43l-0.91-0.7L19.82,34.78z M25.72,24.1
	c0-0.21-0.17-0.38-0.38-0.38h-2.68c-0.21,0-0.38,0.17-0.38,0.38v0.92c0,0.21,0.17,0.38,0.38,0.38h2.68c0.21,0,0.38-0.17,0.38-0.38
	V24.1z M29.46,23.17V21h-0.82c-0.17,0.95-0.47,1.88-0.91,2.77h1.12C29.19,23.77,29.46,23.5,29.46,23.17z M30.89,15.18h-2.08v4.01
	v0.21h2.09c0.45,0,0.82-0.48,0.82-1.06v-2.1C31.72,15.67,31.34,15.18,30.89,15.18L30.89,15.18z M28.11,9.61
	c0,0.51,0.42,0.92,0.92,0.92h7.08c0.44,0,0.8,0.36,0.8,0.8v1.48l2.16-2.07c0.15-0.14,0.34-0.22,0.55-0.22h2.39
	c0.51,0,0.92-0.42,0.92-0.92V3.28c0-0.51-0.42-0.92-0.92-0.92H29.03c-0.51,0-0.92,0.42-0.92,0.92L28.11,9.61L28.11,9.61z
	 M7.97,13.58h1.99c2.83,0,5.6-0.79,8.01-2.28c0.26-0.16,0.59-0.16,0.84,0c2.4,1.49,5.18,2.28,8.01,2.28h1.99v-0.8
	c0-0.22-0.01-0.44-0.03-0.67c-1.27-0.13-2.27-1.19-2.27-2.5V6.29c-2-2.49-4.94-3.93-8.12-3.93c-5.75,0-10.42,4.67-10.42,10.42
	L7.97,13.58L7.97,13.58z M7.99,19.4c-0.01-0.18-0.02-0.34-0.02-0.53v-3.69H5.89c-0.45,0-0.82,0.48-0.82,1.06v2.1
	c0,0.57,0.38,1.06,0.82,1.06L7.99,19.4z M18.22,28.01c1.51,0.03,2.96-0.33,4.26-1.02c-1.01-0.09-1.8-0.93-1.8-1.96V24.1
	c0-1.1,0.89-1.99,1.99-1.99h2.68c0.45,0,0.86,0.15,1.19,0.4c0.43-1.06,0.67-2.18,0.67-3.33v-4.01h-0.38c-2.97,0-5.87-0.79-8.43-2.27
	c-2.56,1.49-5.47,2.27-8.43,2.27H9.57v3.69C9.57,23.81,13.45,27.91,18.22,28.01L18.22,28.01z M14.38,30.42l4.01,3.48l4.01-3.48V28.8
	c-1.26,0.53-2.61,0.81-4.01,0.81c-0.06,0-0.13,0-0.19,0c-1.35-0.02-2.64-0.33-3.81-0.84V30.42z M11.14,31.21l2.08,5.43l3.73-1.86
	l-4.91-4.27L11.14,31.21z M34.42,42.57c-3.98-1.27-6.88-4.99-6.88-9.39c0-0.5,0.05-0.99,0.12-1.47l-0.46-0.06l-2.46,6.4
	c-0.08,0.21-0.25,0.38-0.46,0.46c-0.1,0.04-0.19,0.06-0.29,0.06c-0.12,0-0.25-0.03-0.36-0.09l-5.24-2.61l-5.24,2.61
	c-0.11,0.06-0.23,0.09-0.36,0.09c-0.1,0-0.2-0.02-0.29-0.06c-0.21-0.08-0.38-0.25-0.46-0.46l-2.46-6.4l-0.87,0.12
	c-1.04,0.14-2.03,0.5-2.93,1.04c-2.12,1.27-3.43,3.6-3.43,6.07v6.76h4.41v-4.01c0-0.44,0.36-0.8,0.8-0.8c0.44,0,0.8,0.36,0.8,0.8
	v4.01h20.04v-4.01c0-0.44,0.36-0.8,0.8-0.8c0.44,0,0.8,0.36,0.8,0.8v4.01h4.41v-3.07L34.42,42.57z M45.64,33.18
	c0-4.55-3.7-8.25-8.25-8.25s-8.25,3.7-8.25,8.25s3.7,8.25,8.25,8.25S45.64,37.72,45.64,33.18z"/>
</svg>
