<?xml version="1.0" encoding="utf-8"?>
<!-- Generator: Adobe Illustrator 28.1.0, SVG Export Plug-In . SVG Version: 6.00 Build 0)  -->
<svg version="1.1" id="Layer_1" xmlns="http://www.w3.org/2000/svg" xmlns:xlink="http://www.w3.org/1999/xlink" x="0px" y="0px"
	 viewBox="0 0 48 48" style="enable-background:new 0 0 48 48;" xml:space="preserve">
<style type="text/css">
	.st0{fill:#800080;}
	.st1{fill-rule:evenodd;clip-rule:evenodd;}
	.st2{fill-rule:evenodd;clip-rule:evenodd;fill:#800080;}
	.st3{fill-rule:evenodd;clip-rule:evenodd;fill:#762E82;}
	.st4{fill:#762E82;}
	.st5{fill:#0066AD;}
	.st6{fill:#F4A033;}
	.st7{fill-rule:evenodd;clip-rule:evenodd;fill:#004669;}
	.st8{fill-rule:evenodd;clip-rule:evenodd;fill:#F6C40B;}
	.st9{fill:#004669;}
	.st10{fill-rule:evenodd;clip-rule:evenodd;fill:#E71C24;}
	.st11{fill-rule:evenodd;clip-rule:evenodd;fill:#224094;}
	.st12{fill:#204391;}
	.st13{fill:#E61F29;}
	.st14{fill:#3BB53F;}
	.st15{fill:#020202;}
	.st16{fill:#DB7031;}
	.st17{fill:#D82C32;}
	.st18{fill:#1A171B;}
	.st19{fill:#E38833;}
	.st20{clip-path:url(#SVGID_00000041275548518953737300000006111256944963144863_);}
	.st21{clip-path:url(#SVGID_00000038405089881147383690000003652965080150287260_);}
	.st22{fill:#FFFFFF;}
	.st23{fill:#2DB674;}
	.st24{fill:none;}
	.st25{fill:url(#SVGID_00000149340828737548180300000017421300330012802960_);}
	.st26{fill:url(#SVGID_00000013883952616707962660000004700490705594467727_);}
	.st27{fill:url(#SVGID_00000182505376637891434830000013877156235376454335_);}
	.st28{fill:url(#SVGID_00000037676994619263713390000016674774088136789427_);}
	.st29{fill:url(#SVGID_00000069357055391826302540000012505989734370750651_);}
	.st30{fill:url(#SVGID_00000080193943805732970160000008768270405216953227_);}
	.st31{fill:url(#SVGID_00000091701246115662110090000005224044559216201879_);}
	.st32{fill:url(#SVGID_00000139974070643764708560000000289484665932837032_);}
	.st33{fill:url(#SVGID_00000109721260858000259900000006759964630396256429_);}
	.st34{fill:url(#SVGID_00000045583247725517026860000016591506189848427194_);}
	.st35{fill:url(#SVGID_00000085967920932091161000000012368630694693066883_);}
	.st36{fill:url(#SVGID_00000026142635902833151000000004303868327119335045_);}
	.st37{fill:#1A2E35;}
	.st38{fill:#C27460;}
	.st39{fill:#7C4235;}
	.st40{fill:#FF735D;}
	.st41{fill:#762E86;}
	.st42{fill:none;stroke:#000000;stroke-width:0.1613;stroke-linecap:round;stroke-miterlimit:10;}
	.st43{fill:#375A64;}
	.st44{opacity:0.3;}
	.st45{fill:none;stroke:#FFC7BF;stroke-width:0.1122;stroke-miterlimit:10;}
	.st46{fill:none;stroke:#44555B;stroke-width:5.608974e-03;stroke-miterlimit:10;}
	.st47{fill:#FFFFFF;stroke:#000000;stroke-width:0.1637;stroke-miterlimit:10;}
	.st48{fill:#E1E1E1;}
	.st49{fill:#578DF3;}
	.st50{fill:#B72516;}
</style>
<g>
	<g>
		<path d="M40.4,12.1L28.2,5.06c-1.08-0.63-2.31-0.79-3.63-0.49L19.7,5.69c-1.29,0.3-2.37,0.06-3.53-0.8l0.1-0.36
			c0.17-0.63-0.21-1.27-0.83-1.44L13.4,2.55c-0.3-0.08-0.62-0.04-0.89,0.12c-0.27,0.16-0.47,0.41-0.55,0.71L9.02,14.35
			c-0.17,0.63,0.21,1.27,0.83,1.44l2.03,0.54c0.1,0.03,0.2,0.04,0.31,0.04c0.2,0,0.41-0.05,0.59-0.16c0.27-0.16,0.47-0.41,0.55-0.71
			v0l0.06-0.21l2.16,1.65c0.86,0.66,1.83,1,2.88,1c0.22,0,0.45-0.02,0.68-0.05c0.03,0,0.06-0.01,0.09-0.02l1.02-0.28
			c-0.02,0.24-0.03,0.49-0.03,0.73v1.32c0,1.4,1.14,2.54,2.54,2.54c1.4,0,2.54-1.14,2.54-2.54v-1.32c0-0.97,0.47-1.87,1.26-2.44
			l1.2-0.33c0.23-0.06,0.44-0.15,0.64-0.25c1.63,0.04,2.95,1.38,2.95,3.02v22.14h-0.15c-0.31,0-0.58,0.21-0.65,0.51l-0.89,3.68
			c-0.05,0.2,0,0.41,0.12,0.58c0.13,0.16,0.32,0.26,0.53,0.26h7.16c0.21,0,0.4-0.09,0.53-0.26c0.13-0.16,0.17-0.37,0.12-0.58
			l-0.89-3.68c-0.07-0.3-0.34-0.51-0.65-0.51h-0.15V18.32c0-0.63-0.07-1.24-0.21-1.84l1.29,0.74c0.45,0.26,0.96,0.4,1.47,0.4
			c0.26,0,0.52-0.03,0.77-0.1c0.77-0.21,1.4-0.69,1.8-1.38C42.3,14.73,41.81,12.92,40.4,12.1z M23.9,18.32v1.32
			c0,0.65-0.53,1.19-1.19,1.19c-0.65,0-1.19-0.53-1.19-1.19v-1.32c0-0.37,0.03-0.75,0.09-1.11l2.7-0.73
			C24.05,17.05,23.9,17.68,23.9,18.32z M29.58,14.16c0.23-0.37,0.38-0.78,0.45-1.21l4.35,2.51c0.43,0.9,0.64,1.86,0.64,2.87v22.14
			h-2.38V18.32C32.64,16.37,31.35,14.71,29.58,14.16z M36.55,44.14h-5.45l0.57-2.33h4.32L36.55,44.14z M40.31,15.47
			c-0.21,0.37-0.56,0.64-0.98,0.75c-0.42,0.11-0.85,0.06-1.22-0.16l-8.28-4.78c-0.59-1.49-2.23-2.33-3.81-1.9l-4.55,1.24
			c-0.36,0.1-0.57,0.47-0.47,0.83c0.1,0.36,0.47,0.57,0.83,0.47l4.55-1.24c0.99-0.27,2.01,0.32,2.28,1.3
			c0.27,0.99-0.32,2.01-1.3,2.28l-8.47,2.31c-0.94,0.11-1.76-0.11-2.52-0.69l-2.6-1.99l2.04-7.6C17.14,7.13,18.46,7.36,20,7
			l4.88-1.12c0.99-0.23,1.86-0.12,2.65,0.34l12.2,7.04C40.49,13.71,40.76,14.7,40.31,15.47z"/>
		<path d="M21.62,22.86c-1.91,0-3.66,0.65-5.06,1.74c-0.49-0.04-0.98-0.05-1.48-0.05c-5.11,0-8.96,1.79-8.96,4.16v12.62
			c0,2.37,3.85,4.16,8.96,4.16s8.96-1.79,8.96-4.16v-2.38c3.36-1.04,5.8-4.17,5.8-7.86C29.84,26.55,26.15,22.86,21.62,22.86z
			 M15.08,25.9c0.05,0,0.11,0,0.16,0c-1.15,1.42-1.85,3.22-1.85,5.19c0,0.12,0,0.24,0.01,0.36c-3.58-0.32-5.93-1.62-5.93-2.74
			C7.47,27.38,10.73,25.9,15.08,25.9z M7.47,30.96c0.33,0.25,0.72,0.48,1.16,0.68c1.31,0.61,3.05,1.02,4.94,1.16
			c0.23,1.06,0.66,2.05,1.25,2.91c-4-0.05-7-1.35-7.36-2.57V30.96z M7.47,35.19L7.47,35.19c0.48,0.35,1.08,0.66,1.79,0.93
			c1.6,0.61,3.67,0.95,5.81,0.95c0.3,0,0.6-0.01,0.9-0.02c1.13,1.08,2.57,1.83,4.17,2.12c-1.38,0.48-3.17,0.76-5.07,0.76
			c-4.12,0-7.23-1.32-7.6-2.58V35.19z M22.69,41.33c0,1.33-3.25,2.81-7.61,2.81c-4.36,0-7.61-1.48-7.61-2.81V39.4
			c0.48,0.35,1.08,0.66,1.79,0.93c1.6,0.61,3.67,0.95,5.81,0.95c3.17,0,6.02-0.72,7.62-1.9V41.33z M21.62,37.96
			c-3.79,0-6.88-3.08-6.88-6.88s3.08-6.88,6.88-6.88c3.79,0,6.88,3.08,6.88,6.88S25.41,37.96,21.62,37.96z"/>
		<path d="M23.38,29.97l0.94-1.01c-0.53-0.62-1.18-0.99-1.97-1.1v-1.21h-0.97v1.21c-0.76,0.12-1.38,0.48-1.88,1.07
			c-0.5,0.59-0.75,1.27-0.75,2.05s0.25,1.46,0.75,2.05c0.5,0.59,1.13,0.94,1.88,1.07v1.17h0.97V34.1c0.79-0.11,1.45-0.47,1.97-1.1
			l-0.94-1.01c-0.34,0.31-0.68,0.51-1.03,0.58v-3.18C22.7,29.47,23.04,29.66,23.38,29.97z M21.37,32.53
			c-0.31-0.1-0.57-0.29-0.77-0.57c-0.2-0.28-0.3-0.61-0.3-0.99c0-0.38,0.1-0.71,0.3-0.99c0.2-0.28,0.46-0.47,0.77-0.57V32.53z"/>
	</g>
	<g>
		<path class="st0" d="M21.53,18.32v1.32c0,0.65,0.53,1.19,1.19,1.19c0.65,0,1.19-0.53,1.19-1.19v-1.32c0-0.65,0.15-1.28,0.41-1.85
			l-2.7,0.73C21.56,17.58,21.53,17.95,21.53,18.32z"/>
		<path class="st0" d="M32.64,18.32v22.14h2.38V18.32c0-1-0.22-1.97-0.64-2.87l-4.35-2.51c-0.07,0.43-0.22,0.84-0.45,1.21
			C31.35,14.71,32.64,16.37,32.64,18.32z"/>
		<polygon class="st0" points="35.99,41.81 31.67,41.81 31.11,44.14 36.55,44.14 		"/>
	</g>
</g>
</svg>
