<svg width="168" height="59" viewBox="0 0 168 59" fill="none" xmlns="http://www.w3.org/2000/svg">
<path fill-rule="evenodd" clip-rule="evenodd" d="M9.40002 28.6984L0 21.8984H23L22.8 25.3984L9.40002 28.6984Z" fill="white"/>
<path fill-rule="evenodd" clip-rule="evenodd" d="M48.6969 21.8984L39.7969 32.3984L41.5968 35.3984L60.1969 21.8984H48.6969Z" fill="white"/>
<path fill-rule="evenodd" clip-rule="evenodd" d="M18.6 35.3984L11.5 57.1984L20.8 50.4984L21.9 36.6984L18.6 35.3984Z" fill="white"/>
<path fill-rule="evenodd" clip-rule="evenodd" d="M45.2017 46.3016L32.4016 41.1016L30.1016 43.7016L48.7017 57.2016L45.2017 46.3016Z" fill="white"/>
<path fill-rule="evenodd" clip-rule="evenodd" d="M30.1 0L37.2001 21.9L33.8 22.7L26.5 10.9L30.1 0Z" fill="white"/>
<path d="M70.4016 42.1984C70.6016 42.5984 70.9016 42.9984 71.3016 43.1984C71.7016 43.4984 72.1016 43.6984 72.6016 43.7984C73.1016 43.8984 73.6017 43.9984 74.2017 43.9984C74.6017 43.9984 75.0016 43.9984 75.4016 43.8984C75.8016 43.7984 76.2016 43.6984 76.6016 43.5984C77.0016 43.3984 77.3016 43.1984 77.5016 42.8984C77.7016 42.5984 77.9016 42.1984 77.9016 41.6984C77.9016 41.1984 77.7016 40.7984 77.4016 40.4984C77.1016 40.1984 76.7016 39.8984 76.1016 39.6984C75.5016 39.4984 75.0016 39.2984 74.3016 39.1984C73.6016 38.9984 73.0016 38.8984 72.3016 38.6984C71.6016 38.4984 70.9016 38.2984 70.3016 38.0984C69.6016 37.8984 69.1016 37.4984 68.5016 37.0984C68.0016 36.6984 67.6017 36.1984 67.2017 35.5984C66.9017 34.9984 66.7017 34.2984 66.7017 33.3984C66.7017 32.4984 66.9016 31.5984 67.3016 30.8984C67.7016 30.1984 68.2016 29.5984 68.9016 29.1984C69.6016 28.6984 70.3016 28.3984 71.1016 28.1984C71.9016 27.9984 72.8016 27.8984 73.6016 27.8984C74.6016 27.8984 75.5016 27.9984 76.4016 28.1984C77.3016 28.3984 78.1016 28.7984 78.8016 29.1984C79.5016 29.6984 80.0016 30.2984 80.4016 30.9984C80.8016 31.6984 81.0016 32.6984 81.0016 33.6984H77.1016C77.1016 33.0984 76.9016 32.6984 76.8016 32.2984C76.6016 31.8984 76.3016 31.6984 76.0016 31.3984C75.7016 31.1984 75.3016 30.9984 74.9016 30.9984C74.5016 30.8984 74.0016 30.8984 73.5016 30.8984C73.2016 30.8984 72.8016 30.8984 72.5016 30.9984C72.2016 31.0984 71.9016 31.1984 71.6016 31.3984C71.3016 31.5984 71.1016 31.7984 70.9016 31.9984C70.7016 32.2984 70.6016 32.5984 70.6016 32.9984C70.6016 33.3984 70.7016 33.6984 70.8016 33.8984C70.9016 34.0984 71.2016 34.2984 71.6016 34.4984C72.0016 34.6984 72.6016 34.8984 73.3016 35.0984C74.0016 35.2984 75.0016 35.4984 76.1016 35.7984C76.4016 35.8984 76.9016 35.9984 77.5016 36.1984C78.1016 36.3984 78.7016 36.6984 79.3016 37.0984C79.9016 37.4984 80.4016 37.9984 80.9016 38.6984C81.3016 39.3984 81.6016 40.1984 81.6016 41.1984C81.6016 41.9984 81.4016 42.7984 81.1016 43.5984C80.8016 44.2984 80.3016 44.8984 79.6016 45.4984C79.0016 45.9984 78.2017 46.3984 77.2017 46.6984C76.2017 46.9984 75.1016 47.0984 73.9016 47.0984C72.9016 47.0984 71.9016 46.9984 70.9016 46.6984C69.9016 46.4984 69.1016 46.0984 68.4016 45.4984C67.7016 44.9984 67.1017 44.2984 66.7017 43.4984C66.3017 42.6984 66.1016 41.6984 66.1016 40.5984H70.0016C70.1016 41.1984 70.2016 41.7984 70.4016 42.1984Z" fill="white"/>
<path d="M90 33.3953V35.8953H87.3V42.4953C87.3 43.0953 87.4 43.4953 87.6 43.6953C87.8 43.8953 88.2 43.9953 88.8 43.9953C89 43.9953 89.2 43.9953 89.4 43.9953C89.6 43.9953 89.8 43.9953 89.9 43.8953V46.6953C89.6 46.7953 89.2 46.7953 88.9 46.7953C88.5 46.7953 88.1 46.7953 87.8 46.7953C87.2 46.7953 86.7001 46.7953 86.2001 46.6953C85.7001 46.5953 85.2 46.4953 84.9 46.1953C84.5 45.9953 84.2 45.6953 84 45.1953C83.8 44.7953 83.7001 44.1953 83.7001 43.5953V35.6953H81.5V33.1953H83.7001V29.1953H87.4V33.1953H90V33.3953Z" fill="white"/>
<path d="M90.6016 37.5016C90.7016 36.6016 90.9017 35.9016 91.2017 35.4016C91.6017 34.8016 92.1016 34.4016 92.6016 34.0016C93.2016 33.7016 93.8016 33.4016 94.6016 33.3016C95.3016 33.2016 96.1016 33.1016 96.8016 33.1016C97.5016 33.1016 98.2016 33.1016 98.8016 33.2016C99.5016 33.3016 100.102 33.5016 100.702 33.8016C101.302 34.1016 101.702 34.5016 102.102 35.0016C102.502 35.5016 102.602 36.1016 102.602 37.0016V44.0016C102.602 44.6016 102.602 45.2016 102.702 45.7016C102.802 46.3016 102.902 46.7016 103.102 46.9016H99.4016C99.3016 46.7016 99.3017 46.5016 99.2017 46.3016C99.2017 46.1016 99.1016 45.9016 99.1016 45.6016C98.5016 46.2016 97.8016 46.6016 97.0016 46.9016C96.2016 47.1016 95.4016 47.3016 94.6016 47.3016C94.0016 47.3016 93.4016 47.2016 92.8016 47.1016C92.2016 46.9016 91.8016 46.7016 91.4016 46.4016C91.0016 46.1016 90.7016 45.7016 90.4016 45.2016C90.2016 44.7016 90.1016 44.1016 90.1016 43.4016C90.1016 42.6016 90.2016 42.0016 90.5016 41.5016C90.8016 41.0016 91.1016 40.6016 91.5016 40.3016C91.9016 40.0016 92.4016 39.8016 92.9016 39.6016C93.4016 39.5016 94.0016 39.3016 94.5016 39.3016C95.1016 39.2016 95.6016 39.1016 96.1016 39.1016C96.6016 39.0016 97.1016 39.0016 97.5016 38.9016C97.9016 38.8016 98.2016 38.6016 98.5016 38.4016C98.7016 38.2016 98.9016 37.9016 98.8016 37.5016C98.8016 37.1016 98.7016 36.8016 98.6016 36.6016C98.5016 36.4016 98.3016 36.2016 98.1016 36.1016C97.9016 36.0016 97.6016 35.9016 97.3016 35.8016C97.0016 35.8016 96.7016 35.7016 96.4016 35.7016C95.7016 35.7016 95.1017 35.9016 94.7017 36.2016C94.3017 36.5016 94.0016 37.0016 94.0016 37.8016H90.6016V37.5016ZM99.1016 40.2016C98.9016 40.3016 98.8016 40.4016 98.5016 40.5016C98.3016 40.6016 98.0017 40.6016 97.7017 40.7016C97.4017 40.8016 97.2016 40.8016 96.9016 40.8016C96.6016 40.8016 96.3016 40.9016 96.0016 40.9016C95.7016 41.0016 95.5017 41.0016 95.2017 41.1016C94.9017 41.2016 94.7016 41.3016 94.5016 41.4016C94.3016 41.5016 94.1016 41.7016 94.0016 42.0016C93.9016 42.2016 93.8016 42.5016 93.8016 42.9016C93.8016 43.2016 93.9016 43.5016 94.0016 43.7016C94.1016 43.9016 94.3016 44.1016 94.5016 44.2016C94.7016 44.3016 94.9017 44.4016 95.2017 44.5016C95.5017 44.6016 95.8016 44.6016 96.1016 44.6016C96.8016 44.6016 97.4016 44.5016 97.8016 44.2016C98.2016 44.0016 98.5017 43.7016 98.7017 43.3016C98.9017 43.0016 99.0016 42.6016 99.0016 42.3016C99.0016 42.0016 99.1016 41.7016 99.1016 41.5016V40.2016Z" fill="white"/>
<path d="M108.102 33.4V35.9H108.202C108.402 35.5 108.602 35.1 108.902 34.7C109.202 34.3 109.502 34 109.902 33.8C110.302 33.6 110.702 33.4 111.102 33.2C111.502 33.1 112.002 33 112.402 33C112.602 33 112.902 33 113.202 33.1V36.5C113.002 36.5 112.802 36.4 112.602 36.4C112.402 36.4 112.102 36.4 111.902 36.4C111.202 36.4 110.702 36.5 110.202 36.7C109.702 36.9 109.402 37.2 109.102 37.6C108.802 38 108.602 38.4 108.502 39C108.402 39.5 108.302 40.1 108.302 40.7V46.7H104.602V33.4H108.102Z" fill="white"/>
<path d="M117.998 28.2969V43.3969H126.998V46.7969H113.898V28.2969H117.998Z" fill="white"/>
<path d="M128 31.2969V28.2969H131.7V31.2969H128ZM131.7 33.3969V46.7969H128V33.3969H131.7Z" fill="white"/>
<path d="M132.102 35.7969V33.2969H134.302V32.2969C134.302 31.0969 134.702 30.0969 135.402 29.3969C136.102 28.5969 137.302 28.2969 138.802 28.2969C139.102 28.2969 139.502 28.2969 139.802 28.2969C140.102 28.2969 140.402 28.2969 140.802 28.3969V31.0969C140.402 30.9969 139.902 30.9969 139.502 30.9969C139.002 30.9969 138.602 31.0969 138.402 31.2969C138.202 31.4969 138.102 31.8969 138.102 32.4969V33.2969H140.602V35.7969H138.102V46.6969H134.402V35.7969H132.102Z" fill="white"/>
<path d="M144.998 43.6016C145.598 44.1016 146.298 44.4016 147.398 44.4016C148.098 44.4016 148.798 44.2016 149.298 43.8016C149.798 43.4016 150.198 43.0016 150.298 42.6016H153.498C152.998 44.2016 152.198 45.4016 151.098 46.0016C149.998 46.7016 148.698 47.0016 147.198 47.0016C146.098 47.0016 145.198 46.8016 144.398 46.5016C143.598 46.2016 142.798 45.7016 142.298 45.1016C141.698 44.5016 141.298 43.7016 140.898 42.9016C140.598 42.0016 140.398 41.1016 140.398 40.1016C140.398 39.1016 140.598 38.2016 140.898 37.3016C141.198 36.4016 141.698 35.7016 142.298 35.1016C142.898 34.5016 143.598 34.0016 144.498 33.6016C145.298 33.2016 146.298 33.1016 147.298 33.1016C148.398 33.1016 149.398 33.3016 150.298 33.8016C151.098 34.2016 151.798 34.8016 152.398 35.6016C152.898 36.3016 153.298 37.2016 153.598 38.1016C153.798 39.0016 153.898 40.0016 153.898 41.1016H144.298C144.198 42.2016 144.498 43.0016 144.998 43.6016ZM149.198 36.5016C148.798 36.0016 148.098 35.8016 147.198 35.8016C146.598 35.8016 146.098 35.9016 145.698 36.1016C145.298 36.3016 144.998 36.5016 144.798 36.8016C144.598 37.1016 144.398 37.4016 144.298 37.7016C144.198 38.0016 144.098 38.3016 144.098 38.6016H150.098C149.898 37.7016 149.598 37.0016 149.198 36.5016Z" fill="white"/>
<path d="M157.105 29.0984V34.0984H155.605V29.0984H153.805V27.8984H158.905V29.0984H157.105ZM165.405 34.0984V29.6984L163.805 34.0984H162.805L161.205 29.6984V34.0984H159.805V27.8984H161.905L163.505 31.9984L165.105 27.8984H167.105V34.0984H165.405Z" fill="white"/>
<path d="M66.3016 56.2031H67.1016L66.9016 57.0031H66.1016L66.3016 56.2031Z" fill="white"/>
<path d="M68.5046 56.2031H69.3047L69.1046 57.0031H68.3047L68.5046 56.2031Z" fill="white"/>
<path d="M70.5984 56.2031H71.3984L71.1985 57.0031H70.3984L70.5984 56.2031Z" fill="white"/>
<path d="M75.6985 53.1016H76.3984C76.2984 53.4016 75.8984 53.9016 75.3984 54.8016C74.9984 55.5016 74.6984 56.0016 74.3984 56.5016C73.7984 57.5016 73.3985 58.1016 73.1985 58.4016C72.9985 58.6016 72.6985 58.7016 72.2985 58.7016C72.1985 58.7016 72.0984 58.7016 72.0984 58.7016C72.0984 58.7016 71.9984 58.7016 71.8984 58.7016L71.9984 58.1016C72.0984 58.1016 72.1985 58.2016 72.1985 58.2016C72.2985 58.2016 72.2985 58.2016 72.2985 58.2016C72.3985 58.2016 72.4984 58.2016 72.5984 58.1016C72.6984 58.1016 72.6985 58.0016 72.7985 57.9016C72.7985 57.9016 72.8984 57.8016 72.9984 57.6016C73.0984 57.4016 73.1985 57.3016 73.2985 57.2016L72.6985 53.1016H73.4984L73.8984 56.3016L75.6985 53.1016Z" fill="white"/>
<path d="M80.1048 54.9984C80.0048 55.5984 79.7049 56.1984 79.3049 56.5984C78.9049 56.9984 78.4049 57.1984 77.7049 57.1984C77.2049 57.1984 76.8048 56.9984 76.5048 56.5984C76.3048 56.1984 76.2049 55.6984 76.3049 55.0984C76.4049 54.3984 76.7049 53.8984 77.2049 53.4984C77.6049 53.0984 78.1049 52.8984 78.7049 52.8984C79.2049 52.8984 79.6048 53.0984 79.9048 53.3984C80.1048 53.7984 80.2048 54.2984 80.1048 54.9984ZM79.3049 54.9984C79.4049 54.5984 79.4049 54.2984 79.3049 54.0984C79.2049 53.6984 78.9048 53.4984 78.4048 53.4984C78.0048 53.4984 77.7048 53.6984 77.4048 53.9984C77.1048 54.2984 77.0048 54.6984 76.9048 55.0984C76.8048 55.4984 76.8048 55.8984 77.0048 56.1984C77.1048 56.4984 77.4049 56.5984 77.8049 56.5984C78.2049 56.5984 78.6049 56.3984 78.8049 56.0984C79.1049 55.7984 79.3049 55.3984 79.3049 54.9984Z" fill="white"/>
<path d="M81.9 53.1016L81.3 55.7016C81.3 55.9016 81.3 56.1016 81.3 56.2016C81.4 56.4016 81.6 56.6016 81.9 56.6016C82.4 56.6016 82.6999 56.4016 82.9999 56.0016C83.0999 55.8016 83.2 55.5016 83.3 55.1016L83.7 53.1016H84.4L83.5999 57.1016H82.9999L83.0999 56.5016C82.9999 56.7016 82.8 56.8016 82.7 56.9016C82.4 57.1016 82.1 57.2016 81.7 57.2016C81.1 57.2016 80.8 57.0016 80.7 56.6016C80.6 56.4016 80.6 56.1016 80.7 55.8016L81.3 53.1016H81.9Z" fill="white"/>
<path d="M85.5046 53.1H86.1046L86.0046 53.8C86.1046 53.7 86.2046 53.5 86.5046 53.3C86.7046 53.1 87.0047 53 87.3047 53C87.3047 53 87.3047 53 87.4047 53H87.5046L87.4047 53.7H87.3047H87.2047C86.9047 53.7 86.6047 53.8 86.4047 54C86.2047 54.2 86.0046 54.5 86.0046 54.8L85.5046 57.1H84.8047L85.5046 53.1Z" fill="white"/>
<path d="M90.0002 55.7984C90.0002 55.9984 90.0001 56.1984 90.1001 56.2984C90.2001 56.4984 90.5002 56.5984 90.9002 56.5984C91.1002 56.5984 91.4001 56.4984 91.6001 56.3984C91.8001 56.2984 91.9002 56.0984 92.0002 55.8984C92.0002 55.6984 92.0002 55.5984 91.9002 55.4984C91.8002 55.3984 91.6002 55.3984 91.4002 55.2984L90.9002 55.1984C90.6002 55.0984 90.3002 54.9984 90.2002 54.8984C89.9002 54.6984 89.9002 54.4984 89.9002 54.0984C90.0002 53.6984 90.2002 53.3984 90.5002 53.1984C90.8002 52.9984 91.2002 52.8984 91.7002 52.8984C92.3002 52.8984 92.7002 53.0984 92.9002 53.3984C93.0002 53.5984 93.0002 53.8984 93.0002 54.0984H92.4002C92.4002 53.8984 92.4002 53.7984 92.3002 53.6984C92.2002 53.4984 91.9001 53.3984 91.6001 53.3984C91.3001 53.3984 91.1002 53.3984 91.0002 53.4984C90.8002 53.5984 90.8002 53.6984 90.7002 53.8984C90.7002 54.0984 90.7002 54.1984 90.9002 54.2984C91.0002 54.3984 91.1002 54.3984 91.3002 54.4984L91.7002 54.5984C92.2002 54.6984 92.5001 54.7984 92.6001 54.8984C92.8001 55.0984 92.9002 55.2984 92.8002 55.6984C92.7002 56.0984 92.5002 56.3984 92.2002 56.5984C91.9002 56.8984 91.4002 56.9984 90.9002 56.9984C90.3002 56.9984 89.9002 56.8984 89.7002 56.5984C89.5002 56.2984 89.4002 55.9984 89.5002 55.5984H90.0002V55.7984Z" fill="white"/>
<path d="M97.0032 54.9984C96.9032 55.5984 96.6033 56.1984 96.2033 56.5984C95.8033 56.9984 95.3032 57.1984 94.6032 57.1984C94.1032 57.1984 93.7033 56.9984 93.4033 56.5984C93.2033 56.1984 93.1033 55.6984 93.2033 55.0984C93.3033 54.3984 93.6032 53.8984 94.1032 53.4984C94.5032 53.0984 95.0032 52.8984 95.6032 52.8984C96.1032 52.8984 96.5033 53.0984 96.8033 53.3984C97.1033 53.7984 97.1032 54.2984 97.0032 54.9984ZM96.3033 54.9984C96.4033 54.5984 96.4033 54.2984 96.3033 54.0984C96.2033 53.6984 95.9033 53.4984 95.4033 53.4984C95.0033 53.4984 94.7033 53.6984 94.4033 53.9984C94.1033 54.2984 94.0033 54.6984 93.9033 55.0984C93.8033 55.4984 93.8032 55.8984 94.0032 56.1984C94.1032 56.4984 94.4033 56.5984 94.8033 56.5984C95.2033 56.5984 95.6033 56.3984 95.8033 56.0984C96.0033 55.7984 96.2033 55.3984 96.3033 54.9984Z" fill="white"/>
<path d="M98.5046 51.6016H99.2047L98.0046 57.1016H97.3047L98.5046 51.6016Z" fill="white"/>
<path d="M99.9016 53.1016H100.602L99.8016 57.1016H99.1016L99.9016 53.1016ZM100.202 51.6016H100.902L100.702 52.4016H100.002L100.202 51.6016Z" fill="white"/>
<path d="M103.803 53.2016C103.903 53.3016 104.003 53.4016 104.103 53.6016L104.503 51.6016H105.103L103.903 57.1016H103.303L103.403 56.5016C103.203 56.7016 103.003 56.9016 102.703 57.0016C102.503 57.1016 102.203 57.2016 101.903 57.2016C101.503 57.2016 101.103 57.0016 100.903 56.6016C100.703 56.2016 100.603 55.7016 100.703 55.1016C100.803 54.5016 101.103 54.0016 101.503 53.6016C101.903 53.2016 102.403 53.0016 102.903 53.0016C103.303 53.0016 103.603 53.1016 103.803 53.2016ZM102.403 56.6016C102.703 56.6016 103.003 56.5016 103.203 56.2016C103.503 55.9016 103.603 55.6016 103.703 55.1016C103.803 54.6016 103.803 54.2016 103.603 54.0016C103.403 53.8016 103.203 53.6016 102.903 53.6016C102.603 53.6016 102.303 53.7016 102.003 54.0016C101.703 54.3016 101.603 54.6016 101.403 55.1016C101.303 55.5016 101.303 55.9016 101.403 56.2016C101.703 56.5016 102.003 56.6016 102.403 56.6016Z" fill="white"/>
<path d="M107.903 53.1H108.603L108.503 53.6C108.703 53.4 108.803 53.3 109.003 53.2C109.303 53.1 109.503 53 109.803 53C110.303 53 110.603 53.2 110.803 53.5C111.003 53.8 111.103 54.3 111.003 55C110.803 55.9 110.503 56.5 109.903 56.9C109.603 57.1 109.203 57.3 108.803 57.3C108.503 57.3 108.303 57.2 108.103 57.1C108.003 57 107.903 56.9 107.803 56.7L107.403 58.7H106.703L107.903 53.1ZM110.303 55C110.403 54.7 110.403 54.4 110.303 54.2C110.203 53.8 110.003 53.5 109.503 53.5C109.003 53.5 108.703 53.7 108.403 54.2C108.303 54.4 108.103 54.8 108.103 55.1C108.003 55.4 108.003 55.7 108.103 55.9C108.203 56.3 108.503 56.5 108.903 56.5C109.203 56.5 109.503 56.4 109.803 56.1C110.003 55.9 110.203 55.6 110.303 55Z" fill="white"/>
<path d="M114 54.5984C114.2 54.5984 114.3 54.4984 114.4 54.3984C114.4 54.2984 114.5 54.2984 114.5 54.0984C114.5 53.8984 114.5 53.6984 114.4 53.5984C114.3 53.4984 114 53.3984 113.7 53.3984C113.4 53.3984 113.1 53.4984 112.9 53.6984C112.8 53.7984 112.7 53.9984 112.6 54.1984H112C112.1 53.6984 112.3 53.3984 112.7 53.1984C113 52.9984 113.4 52.8984 113.8 52.8984C114.3 52.8984 114.6 52.9984 114.9 53.1984C115.2 53.3984 115.2 53.6984 115.2 53.9984L114.7 56.2984C114.7 56.3984 114.7 56.3984 114.7 56.4984C114.7 56.4984 114.8 56.5984 114.9 56.5984H115H115.1L115 57.0984C114.9 57.0984 114.8 57.0984 114.8 57.1984C114.7 57.1984 114.7 57.1984 114.6 57.1984C114.4 57.1984 114.2 57.0984 114.1 56.9984C114.1 56.8984 114.1 56.7984 114.1 56.5984C113.9 56.7984 113.7 56.8984 113.4 57.0984C113.1 57.1984 112.8 57.2984 112.5 57.2984C112.1 57.2984 111.9 57.1984 111.7 56.9984C111.5 56.7984 111.5 56.4984 111.5 56.1984C111.6 55.7984 111.8 55.4984 112 55.2984C112.2 55.0984 112.6 54.9984 113 54.8984L114 54.5984ZM112.7 56.5984C112.9 56.5984 113.2 56.4984 113.4 56.3984C113.8 56.1984 114.1 55.8984 114.1 55.4984L114.2 54.9984C114.1 55.0984 114 55.0984 113.9 55.0984C113.8 55.0984 113.6 55.1984 113.5 55.1984L113.1 55.2984C112.8 55.2984 112.7 55.3984 112.5 55.4984C112.3 55.5984 112.1 55.7984 112.1 56.0984C112.1 56.2984 112.1 56.3984 112.2 56.5984C112.3 56.5984 112.5 56.5984 112.7 56.5984Z" fill="white"/>
<path d="M116.403 53.1H117.003L116.903 53.8C117.003 53.7 117.103 53.5 117.403 53.3C117.603 53.1 117.903 53 118.203 53C118.203 53 118.203 53 118.303 53H118.403L118.303 53.7H118.203H118.103C117.803 53.7 117.503 53.8 117.303 54C117.103 54.2 116.903 54.5 116.903 54.8L116.403 57.1H115.703L116.403 53.1Z" fill="white"/>
<path d="M119.303 52H120.003L119.803 53.1H120.403L120.303 53.6H119.703L119.103 56.2C119.103 56.3 119.103 56.4 119.203 56.5C119.203 56.5 119.303 56.5 119.503 56.5H119.603H119.703L119.603 57C119.503 57 119.403 57 119.303 57C119.203 57 119.103 57 119.003 57C118.703 57 118.503 56.9 118.403 56.8C118.303 56.6 118.303 56.4 118.403 56.2L119.003 53.6H118.503L118.603 53.1H119.103L119.303 52Z" fill="white"/>
<path d="M121.102 53.1H121.702L121.602 53.7C121.802 53.5 122.102 53.3 122.302 53.2C122.502 53.1 122.802 53 123.002 53C123.602 53 123.902 53.2 124.002 53.6C124.102 53.8 124.102 54.1 124.002 54.5L123.502 57.1H122.802L123.302 54.6C123.402 54.4 123.402 54.2 123.302 54C123.202 53.8 123.002 53.6 122.702 53.6C122.502 53.6 122.402 53.6 122.302 53.6C122.102 53.7 121.902 53.8 121.702 53.9C121.602 54 121.502 54.2 121.402 54.3C121.302 54.4 121.302 54.6 121.202 54.9L120.802 57H120.102L121.102 53.1Z" fill="white"/>
<path d="M128.304 53.7016C128.404 53.9016 128.404 54.1016 128.404 54.4016C128.404 54.6016 128.404 54.9016 128.304 55.3016H125.404C125.304 55.7016 125.404 56.0016 125.504 56.3016C125.604 56.5016 125.904 56.7016 126.304 56.7016C126.604 56.7016 127.004 56.6016 127.204 56.4016C127.304 56.3016 127.504 56.1016 127.604 55.9016H128.304C128.304 56.0016 128.204 56.2016 128.004 56.4016C127.904 56.6016 127.704 56.7016 127.604 56.8016C127.404 57.0016 127.104 57.1016 126.804 57.2016C126.604 57.2016 126.404 57.3016 126.204 57.3016C125.704 57.3016 125.304 57.1016 125.104 56.8016C124.804 56.4016 124.804 55.9016 124.904 55.3016C125.004 54.7016 125.304 54.1016 125.804 53.7016C126.204 53.3016 126.704 53.1016 127.304 53.1016C127.604 53.1016 127.804 53.2016 128.104 53.3016C128.004 53.3016 128.204 53.5016 128.304 53.7016ZM127.704 54.7016C127.704 54.4016 127.704 54.2016 127.704 54.0016C127.604 53.7016 127.304 53.5016 126.904 53.5016C126.604 53.5016 126.304 53.6016 126.104 53.8016C125.804 54.0016 125.704 54.3016 125.604 54.6016H127.704V54.7016Z" fill="white"/>
<path d="M129.598 53.1H130.198L130.098 53.8C130.198 53.7 130.298 53.5 130.598 53.3C130.798 53.1 131.098 53 131.398 53C131.398 53 131.398 53 131.498 53H131.598L131.498 53.7H131.398H131.298C130.998 53.7 130.698 53.8 130.498 54C130.298 54.2 130.098 54.5 130.098 54.8L129.598 57.1H128.898L129.598 53.1Z" fill="white"/>
<path d="M134.802 51.8C135.002 51.6 135.302 51.5 135.802 51.5H135.902H136.002L135.902 52.1C135.802 52.1 135.802 52.1 135.802 52.1H135.702C135.502 52.1 135.402 52.2 135.302 52.3C135.202 52.4 135.202 52.7 135.102 53.1H135.802L135.702 53.6H135.002L134.302 57H133.602L134.302 53.6H133.702L133.802 53.1H134.402L134.502 52.5C134.602 52.2 134.702 52 134.802 51.8Z" fill="white"/>
<path d="M139.402 54.9984C139.302 55.5984 139.002 56.1984 138.602 56.5984C138.202 56.9984 137.702 57.1984 137.002 57.1984C136.502 57.1984 136.102 56.9984 135.802 56.5984C135.602 56.1984 135.502 55.6984 135.602 55.0984C135.702 54.3984 136.002 53.8984 136.502 53.4984C136.902 53.0984 137.402 52.8984 138.002 52.8984C138.502 52.8984 138.902 53.0984 139.202 53.3984C139.402 53.7984 139.502 54.2984 139.402 54.9984ZM138.702 54.9984C138.802 54.5984 138.802 54.2984 138.702 54.0984C138.602 53.6984 138.302 53.4984 137.802 53.4984C137.402 53.4984 137.102 53.6984 136.802 53.9984C136.502 54.2984 136.402 54.6984 136.302 55.0984C136.202 55.4984 136.202 55.8984 136.402 56.1984C136.502 56.4984 136.802 56.5984 137.202 56.5984C137.602 56.5984 138.002 56.3984 138.202 56.0984C138.402 55.7984 138.602 55.3984 138.702 54.9984Z" fill="white"/>
<path d="M140.598 53.1H141.198L141.098 53.8C141.198 53.7 141.298 53.5 141.598 53.3C141.798 53.1 142.098 53 142.398 53C142.398 53 142.398 53 142.498 53H142.598L142.498 53.7H142.398H142.298C141.998 53.7 141.698 53.8 141.498 54C141.298 54.2 141.098 54.5 141.098 54.8L140.598 57.1H139.898L140.598 53.1Z" fill="white"/>
<path d="M145.598 51.6016H146.298L145.098 57.1016H144.398L145.598 51.6016Z" fill="white"/>
<path d="M146.902 53.1016H147.602L146.802 57.1016H146.102L146.902 53.1016ZM147.202 51.6016H147.902L147.702 52.4016H147.002L147.202 51.6016Z" fill="white"/>
<path d="M149.2 51.8C149.4 51.6 149.7 51.5 150.2 51.5H150.3H150.4L150.3 52.1C150.2 52.1 150.2 52.1 150.2 52.1H150.1C149.9 52.1 149.8 52.2 149.7 52.3C149.6 52.4 149.6 52.7 149.5 53.1H150.2L150.1 53.6H149.4L148.7 57H148L148.7 53.6H148.1L148.2 53.1H148.8L148.9 52.5C149 52.2 149.1 52 149.2 51.8Z" fill="white"/>
<path d="M153.702 53.7016C153.802 53.9016 153.802 54.1016 153.802 54.4016C153.802 54.6016 153.802 54.9016 153.702 55.3016H150.802C150.702 55.7016 150.802 56.0016 150.902 56.3016C151.002 56.5016 151.302 56.7016 151.702 56.7016C152.002 56.7016 152.402 56.6016 152.602 56.4016C152.702 56.3016 152.902 56.1016 153.002 55.9016H153.702C153.702 56.0016 153.602 56.2016 153.402 56.4016C153.302 56.6016 153.102 56.7016 153.002 56.8016C152.802 57.0016 152.502 57.1016 152.202 57.2016C152.002 57.2016 151.802 57.3016 151.602 57.3016C151.102 57.3016 150.702 57.1016 150.502 56.8016C150.202 56.4016 150.202 55.9016 150.302 55.3016C150.402 54.7016 150.702 54.1016 151.202 53.7016C151.602 53.3016 152.102 53.1016 152.702 53.1016C153.002 53.1016 153.202 53.2016 153.502 53.3016C153.402 53.3016 153.602 53.5016 153.702 53.7016ZM153.102 54.7016C153.102 54.4016 153.102 54.2016 153.102 54.0016C153.002 53.7016 152.702 53.5016 152.302 53.5016C152.002 53.5016 151.702 53.6016 151.502 53.8016C151.202 54.0016 151.102 54.3016 151.002 54.6016H153.102V54.7016Z" fill="white"/>
</svg>
