<?xml version="1.0" encoding="utf-8"?>
<!-- Generator: Adobe Illustrator 28.1.0, SVG Export Plug-In . SVG Version: 6.00 Build 0)  -->
<svg version="1.1" id="Layer_1" xmlns="http://www.w3.org/2000/svg" xmlns:xlink="http://www.w3.org/1999/xlink" x="0px" y="0px"
	 viewBox="0 0 48 48" style="enable-background:new 0 0 48 48;" xml:space="preserve">
<style type="text/css">
	.st0{fill:#800080;}
	.st1{fill-rule:evenodd;clip-rule:evenodd;}
	.st2{fill-rule:evenodd;clip-rule:evenodd;fill:#800080;}
	.st3{fill-rule:evenodd;clip-rule:evenodd;fill:#762E82;}
	.st4{fill:#762E82;}
	.st5{fill:#0066AD;}
	.st6{fill:#F4A033;}
	.st7{fill-rule:evenodd;clip-rule:evenodd;fill:#004669;}
	.st8{fill-rule:evenodd;clip-rule:evenodd;fill:#F6C40B;}
	.st9{fill:#004669;}
	.st10{fill-rule:evenodd;clip-rule:evenodd;fill:#E71C24;}
	.st11{fill-rule:evenodd;clip-rule:evenodd;fill:#224094;}
	.st12{fill:#204391;}
	.st13{fill:#E61F29;}
	.st14{fill:#3BB53F;}
	.st15{fill:#020202;}
	.st16{fill:#DB7031;}
	.st17{fill:#D82C32;}
	.st18{fill:#1A171B;}
	.st19{fill:#E38833;}
	.st20{clip-path:url(#SVGID_00000044168769864253733550000007982040547174843046_);}
	.st21{clip-path:url(#SVGID_00000141438000098897320740000006176217747907751309_);}
	.st22{fill:#FFFFFF;}
	.st23{fill:#2DB674;}
	.st24{fill:none;}
	.st25{fill:url(#SVGID_00000150071644136189649020000009694389980135984305_);}
	.st26{fill:url(#SVGID_00000142153730620285533560000011378577737000103336_);}
	.st27{fill:url(#SVGID_00000137092104707563898740000003966389005216728480_);}
	.st28{fill:url(#SVGID_00000014612806294463537810000015090582114581574820_);}
	.st29{fill:url(#SVGID_00000181073514313210671550000003799298620021620118_);}
	.st30{fill:url(#SVGID_00000076585022005634068290000010578786509756385973_);}
	.st31{fill:url(#SVGID_00000038405960695460356890000015883377246451477939_);}
	.st32{fill:url(#SVGID_00000150807938044178192140000013497782277437314729_);}
	.st33{fill:url(#SVGID_00000091711979477499659870000015699621273753664141_);}
	.st34{fill:url(#SVGID_00000061464987603477997750000014290986334381660053_);}
	.st35{fill:url(#SVGID_00000158744701727641604970000008894529799043906980_);}
	.st36{fill:url(#SVGID_00000013885827164935538620000013735605180925088703_);}
	.st37{fill:#1A2E35;}
	.st38{fill:#C27460;}
	.st39{fill:#7C4235;}
	.st40{fill:#FF735D;}
	.st41{fill:#762E86;}
	.st42{fill:none;stroke:#000000;stroke-width:0.1613;stroke-linecap:round;stroke-miterlimit:10;}
	.st43{fill:#375A64;}
	.st44{opacity:0.3;}
	.st45{fill:none;stroke:#FFC7BF;stroke-width:0.1122;stroke-miterlimit:10;}
	.st46{fill:none;stroke:#44555B;stroke-width:5.608974e-03;stroke-miterlimit:10;}
	.st47{fill:#FFFFFF;stroke:#000000;stroke-width:0.1637;stroke-miterlimit:10;}
	.st48{fill:#E1E1E1;}
	.st49{fill:#578DF3;}
	.st50{fill:#B72516;}
</style>
<g id="g1580_00000091707281339648593530000016427357364754292102_" transform="translate(312.5469,104.5518)">
	<path d="M-280.5-67.65h-16.4c-0.44,0-0.8-0.36-0.8-0.8s0.36-0.8,0.8-0.8h16.4c0.44,0,0.8,0.36,0.8,0.8S-280.06-67.65-280.5-67.65z"
		/>
</g>
<g id="g1584_00000015313468206522855240000003917303041338968714_">
	<g>
		<defs>
			<rect id="SVGID_1_" x="3.55" y="3.55" width="40.9" height="40.9"/>
		</defs>
		<clipPath id="SVGID_00000109026797879034578570000017211909154589623475_">
			<use xlink:href="#SVGID_1_"  style="overflow:visible;"/>
		</clipPath>
		
			<g id="g1586_00000047775687602550478510000002904295176620741001_" style="clip-path:url(#SVGID_00000109026797879034578570000017211909154589623475_);">
			<g id="g1592_00000161589513355096576510000017961427272546830259_" transform="translate(169.9814,188.7637)">
				<path d="M-156.21-144.31c-0.06,0-0.12-0.01-0.18-0.02c-0.43-0.1-0.7-0.53-0.6-0.96l3.35-14.28c0.1-0.43,0.53-0.69,0.96-0.6
					c0.43,0.1,0.7,0.53,0.6,0.96l-3.35,14.28C-155.52-144.56-155.84-144.31-156.21-144.31z"/>
			</g>
		</g>
	</g>
</g>
<g id="g1600_00000136395307076980480490000008911979566274021521_" transform="translate(342.1343,188.2715)">
	<path d="M-307.91-143.82c-0.36,0-0.69-0.25-0.78-0.62l-3.35-14.24c-0.1-0.43,0.17-0.86,0.6-0.96c0.43-0.1,0.86,0.17,0.96,0.6
		l3.35,14.24c0.1,0.43-0.17,0.86-0.6,0.96C-307.78-143.83-307.85-143.82-307.91-143.82z"/>
</g>
<g>
	<defs>
		<rect id="SVGID_00000034066197928025088940000000025310005946734501_" x="3.55" y="3.55" width="40.9" height="40.9"/>
	</defs>
	<clipPath id="SVGID_00000035501638905283592340000012247166106735945645_">
		<use xlink:href="#SVGID_00000034066197928025088940000000025310005946734501_"  style="overflow:visible;"/>
	</clipPath>
	
		<g id="g1606_00000139274496389203463150000001303116554966746299_" style="clip-path:url(#SVGID_00000035501638905283592340000012247166106735945645_);">
		<g id="g1612_00000139280593818750562090000004561865425752151212_" transform="translate(285.6313,454.6895)">
			<path id="path1614_00000114781766593581165820000016129618405514889613_" class="st0" d="M-259.26-446.56L-259.26-446.56
				C-259.26-446.56-259.26-446.56-259.26-446.56z M-253.19-431.89C-253.19-431.89-253.19-431.89-253.19-431.89
				C-253.19-431.89-253.19-431.89-253.19-431.89 M-266.21-429.28c1.1,0,2.16,0.53,2.8,1.45c1.11-0.7,2.54-0.7,3.65,0
				c0.76-1.07,2.08-1.62,3.37-1.4c0.29-1.28,1.3-2.29,2.58-2.58c-0.22-1.29,0.33-2.62,1.4-3.37c-0.7-1.11-0.7-2.54,0-3.65
				c-1.07-0.76-1.62-2.08-1.4-3.37c-1.28-0.29-2.29-1.3-2.58-2.58c-1.29,0.22-2.62-0.33-3.37-1.4c-1.11,0.7-2.54,0.7-3.65,0
				c-0.76,1.07-2.08,1.62-3.37,1.4c-0.29,1.28-1.3,2.29-2.58,2.58c0.22,1.29-0.33,2.62-1.4,3.37c0.7,1.11,0.7,2.54,0,3.65
				c1.07,0.76,1.62,2.08,1.4,3.37c1.28,0.29,2.29,1.3,2.58,2.58C-266.59-429.26-266.4-429.28-266.21-429.28 M-263.56-423.67
				c-0.22,0-0.44-0.02-0.66-0.07c-0.92-0.18-1.73-0.74-2.22-1.53c-0.91,0.21-1.87,0.03-2.65-0.49c-0.78-0.52-1.31-1.35-1.47-2.27
				c-0.92-0.16-1.74-0.68-2.27-1.47c-0.52-0.78-0.7-1.75-0.49-2.65c-0.79-0.5-1.35-1.3-1.53-2.22c-0.18-0.92,0.03-1.88,0.56-2.64
				c-0.54-0.76-0.75-1.72-0.56-2.64c0.18-0.92,0.74-1.73,1.53-2.22c-0.21-0.91-0.03-1.87,0.49-2.65s1.35-1.31,2.27-1.47
				c0.16-0.92,0.68-1.74,1.47-2.27c0.78-0.52,1.75-0.7,2.65-0.49c0.5-0.79,1.3-1.35,2.22-1.53c0.92-0.18,1.88,0.03,2.64,0.56
				c0.76-0.54,1.72-0.75,2.64-0.56c0.92,0.18,1.73,0.74,2.22,1.53c0.91-0.21,1.87-0.03,2.65,0.49c0.78,0.52,1.31,1.35,1.47,2.27
				c0.92,0.16,1.74,0.68,2.27,1.47s0.7,1.75,0.49,2.65c0.79,0.5,1.35,1.3,1.53,2.22c0.18,0.92-0.03,1.88-0.56,2.64
				c0.54,0.76,0.75,1.72,0.56,2.64c-0.18,0.92-0.74,1.73-1.53,2.22c0.21,0.91,0.03,1.87-0.49,2.65c-0.52,0.78-1.35,1.31-2.27,1.47
				c-0.16,0.92-0.68,1.74-1.47,2.27c-0.78,0.52-1.75,0.69-2.65,0.49c-0.5,0.79-1.3,1.35-2.22,1.53c-0.92,0.18-1.88-0.03-2.64-0.56
				C-262.16-423.89-262.85-423.67-263.56-423.67"/>
		</g>
		<g id="g1616_00000183210313754575952160000018431046184841097871_" transform="translate(256,168.1606)">
			<path d="M-232-123.71c-0.44,0-0.8-0.36-0.8-0.8v-12.64c0-0.44,0.36-0.8,0.8-0.8s0.8,0.36,0.8,0.8v12.64
				C-231.2-124.07-231.56-123.71-232-123.71z"/>
		</g>
		<g id="g1620_00000092445574314733131150000004452406286384245900_" transform="translate(144.165,183.0254)">
			<path id="path1622_00000134234155229672489450000005398255289705477011_" class="st22" d="M-129.1-153.2l-0.43-2.6l-2.74-0.57
				l21.13-21.13l0.43,2.6l2.74,0.57L-129.1-153.2z"/>
		</g>
		<g id="g1624_00000011726425754117251680000013732985552703086998_" transform="translate(144.165,183.0254)">
			<path d="M-129.1-152.4c-0.08,0-0.16-0.01-0.24-0.04c-0.29-0.09-0.5-0.33-0.54-0.63l-0.34-2.06l-2.2-0.45
				c-0.29-0.06-0.52-0.27-0.6-0.55c-0.09-0.28-0.01-0.59,0.2-0.8l21.13-21.13c0.21-0.21,0.52-0.29,0.81-0.19
				c0.29,0.09,0.5,0.33,0.54,0.63l0.34,2.06l2.2,0.45c0.29,0.06,0.52,0.27,0.6,0.55c0.08,0.28,0.01,0.59-0.2,0.79l-21.13,21.13
				C-128.69-152.48-128.89-152.4-129.1-152.4z M-130.65-156.84l1.28,0.26c0.32,0.07,0.57,0.33,0.63,0.65l0.17,1.06l18.98-18.98
				l-1.28-0.26c-0.32-0.07-0.57-0.33-0.63-0.65l-0.17-1.06L-130.65-156.84z"/>
		</g>
		<g id="g1628_00000098187855245537805600000013455775772935438741_" transform="translate(393.7607,331.7769)">
			<path id="path1630_00000158023522345052232960000002325891341124179841_" class="st22" d="M-358.75-313.83L-358.75-313.83
				c-1.42,0.88-3.22-0.25-3.06-1.91c-1.27-1.07-0.76-3.14,0.87-3.5c0.63-1.54,2.75-1.69,3.6-0.26c1.66,0.12,2.46,2.1,1.35,3.34
				C-355.6-314.53-357.23-313.16-358.75-313.83"/>
		</g>
		<g id="g1632_00000075847867153394894990000005856621919448586649_" transform="translate(393.7607,331.7769)">
			<path d="M-359.81-312.73c-0.51,0-1.03-0.14-1.48-0.43c-0.8-0.5-1.28-1.34-1.32-2.26c-0.61-0.69-0.85-1.62-0.62-2.54
				c0.23-0.91,0.87-1.63,1.73-1.95c0.47-0.79,1.28-1.31,2.22-1.38c0.93-0.06,1.82,0.33,2.39,1.05c0.9,0.2,1.64,0.82,2,1.69
				c0.35,0.87,0.25,1.83-0.26,2.6c0.09,0.91-0.27,1.81-0.99,2.42c-0.72,0.61-1.67,0.8-2.55,0.56
				C-359.05-312.8-359.43-312.73-359.81-312.73z M-359.08-319.69c-0.03,0-0.06,0-0.09,0c-0.47,0.03-0.86,0.31-1.04,0.75
				c-0.1,0.24-0.31,0.42-0.57,0.48c-0.46,0.1-0.8,0.43-0.92,0.89c-0.11,0.46,0.03,0.91,0.39,1.22c0.2,0.17,0.31,0.43,0.28,0.69
				c-0.05,0.47,0.16,0.9,0.57,1.15c0.4,0.25,0.88,0.25,1.28,0c0.22-0.14,0.5-0.16,0.74-0.05c0.43,0.19,0.9,0.12,1.27-0.18
				c0.36-0.3,0.51-0.76,0.4-1.21c-0.06-0.26,0-0.53,0.18-0.72c0.31-0.35,0.4-0.82,0.22-1.26c-0.18-0.44-0.56-0.72-1.04-0.75
				c-0.26-0.02-0.5-0.17-0.63-0.39C-358.26-319.47-358.65-319.69-359.08-319.69z"/>
		</g>
		<g id="g1636_00000013175464634665708940000011249261688960806563_" transform="translate(390.9673,370.1338)">
			<path d="M-356.19-354.46c-0.09,0-0.2-0.02-0.3-0.06c-0.11-0.03-0.19-0.09-0.26-0.17c-0.06-0.08-0.12-0.16-0.17-0.26
				c-0.03-0.09-0.06-0.2-0.06-0.29c0-0.11,0.03-0.22,0.06-0.31c0.05-0.09,0.11-0.19,0.17-0.25c0.08-0.08,0.17-0.14,0.26-0.19
				c0.19-0.08,0.4-0.08,0.61,0c0.09,0.05,0.19,0.11,0.26,0.19c0.14,0.14,0.23,0.34,0.23,0.56c0,0.09-0.03,0.2-0.06,0.29
				c-0.05,0.11-0.11,0.19-0.17,0.26C-355.77-354.53-355.97-354.46-356.19-354.46z"/>
		</g>
		<g id="g1640_00000110464232625582778880000015478397758419068339_" transform="translate(376.7256,326.5366)">
			<path id="path1642_00000170959187967743023580000000476549193251845300_" class="st22" d="M-343.08-308.17L-343.08-308.17
				c1.58-0.53,3.08,0.98,2.54,2.55c0.99,1.34,0.02,3.23-1.64,3.21c-0.97,1.36-3.07,1.02-3.56-0.57c-1.59-0.5-1.92-2.6-0.56-3.56
				C-346.31-308.21-344.41-309.17-343.08-308.17"/>
		</g>
		<g id="g1644_00000017496741335754055860000006716067783501590709_" transform="translate(376.7256,326.5366)">
			<path d="M-343.81-300.77c-0.15,0-0.3-0.01-0.45-0.04c-0.93-0.15-1.7-0.74-2.09-1.57c-0.83-0.4-1.41-1.17-1.56-2.1
				c-0.15-0.93,0.17-1.84,0.84-2.47c0.12-0.91,0.68-1.7,1.51-2.13c0.84-0.43,1.81-0.4,2.61,0.04c0.9-0.17,1.83,0.12,2.49,0.78
				c0.66,0.67,0.94,1.59,0.77,2.5c0.44,0.81,0.45,1.78,0.02,2.61c-0.43,0.84-1.22,1.39-2.13,1.5
				C-342.32-301.08-343.05-300.77-343.81-300.77z M-344.28-307.78c-0.19,0-0.38,0.04-0.55,0.14c-0.42,0.21-0.67,0.62-0.66,1.09
				c0,0.26-0.12,0.51-0.34,0.66c-0.39,0.27-0.57,0.71-0.5,1.18c0.07,0.47,0.38,0.83,0.83,0.97c0.25,0.08,0.45,0.28,0.52,0.53
				c0.14,0.45,0.5,0.76,0.96,0.84c0.46,0.08,0.91-0.11,1.18-0.49c0.15-0.21,0.39-0.33,0.66-0.34c0.44,0.03,0.88-0.24,1.09-0.66
				c0.22-0.42,0.18-0.9-0.1-1.28c-0.16-0.21-0.2-0.49-0.11-0.73c0.15-0.45,0.05-0.91-0.29-1.24c-0.33-0.33-0.8-0.45-1.24-0.29
				c-0.25,0.09-0.52,0.04-0.73-0.12C-343.78-307.7-344.03-307.78-344.28-307.78z"/>
		</g>
		<g id="g1648_00000117646407421241094460000002498507617436001980_" transform="translate(370.6758,288.5571)">
			<path d="M-337.52-266.36c-0.09,0-0.2-0.02-0.3-0.06c-0.11-0.03-0.19-0.09-0.26-0.17c-0.08-0.08-0.12-0.17-0.17-0.26
				c-0.05-0.09-0.06-0.2-0.06-0.3c0-0.11,0.02-0.22,0.06-0.31c0.05-0.09,0.09-0.19,0.17-0.26c0.08-0.06,0.16-0.12,0.26-0.17
				c0.3-0.11,0.65-0.05,0.87,0.17c0.06,0.08,0.12,0.17,0.17,0.26c0.03,0.09,0.06,0.2,0.06,0.31c0,0.2-0.09,0.41-0.23,0.56
				c-0.08,0.08-0.17,0.14-0.26,0.17C-337.3-266.37-337.41-266.36-337.52-266.36z"/>
		</g>
		<g id="g1652_00000051366540120646666600000009274544770522144439_" transform="translate(461.582,438.3755)">
			<path id="path1654_00000070097511409021581270000007650218248563228848_" class="st0" d="M-421.16-428.95l-1.43-0.83
				c-1.22-0.7-2.77-0.29-3.48,0.93l-0.83,1.43l1.43,0.83c1.22,0.7,2.77,0.29,3.48-0.93L-421.16-428.95z"/>
		</g>
		<g id="g1656_00000149354206273937802750000002789693915910020257_" transform="translate(461.582,438.3755)">
			<path d="M-424.19-425.44c-0.57,0-1.14-0.14-1.67-0.45l-1.43-0.83c-0.38-0.22-0.51-0.71-0.29-1.09l0.83-1.43
				c0.45-0.77,1.17-1.33,2.03-1.56c0.86-0.23,1.76-0.11,2.54,0.33l1.43,0.83c0.18,0.11,0.32,0.28,0.37,0.48
				c0.05,0.21,0.03,0.42-0.08,0.61l-0.83,1.43C-421.91-426.04-423.04-425.44-424.19-425.44z M-425.8-427.7l0.74,0.43
				c0.83,0.48,1.9,0.19,2.38-0.64l0.43-0.74l-0.74-0.43c-0.83-0.48-1.9-0.19-2.38,0.64L-425.8-427.7z"/>
		</g>
		<g id="g1660_00000048479989540723339140000017279296796556177837_" transform="translate(468.4448,291.4702)">
			<path id="path1662_00000118363465110051626820000008733551218622146434_" class="st0" d="M-427.47-270.3l-0.43-1.6
				c-0.36-1.36-1.76-2.16-3.12-1.8l-1.6,0.43l0.43,1.6c0.36,1.36,1.76,2.16,3.12,1.8L-427.47-270.3z"/>
		</g>
		<g id="g1664_00000021836901513670991000000014307199198115714749_" transform="translate(468.4448,291.4702)">
			<path d="M-429.73-268.99c-1.48,0-2.83-0.99-3.23-2.48l-0.43-1.6c-0.11-0.43,0.14-0.86,0.57-0.98l1.6-0.43
				c1.77-0.47,3.62,0.58,4.1,2.36l0.43,1.6c0.11,0.43-0.14,0.86-0.57,0.98l-1.6,0.43C-429.15-269.03-429.44-268.99-429.73-268.99z
				 M-431.64-272.71l0.22,0.83c0.25,0.93,1.21,1.49,2.14,1.23l0.83-0.22l-0.22-0.83c-0.25-0.93-1.21-1.49-2.14-1.23L-431.64-272.71z
				"/>
		</g>
		<g id="g1668_00000082339571110660865040000013574943666432200111_" transform="translate(118.2393,338.3843)">
			<path id="path1670_00000144334018423666638820000006426524429795895218_" class="st22" d="M-105.25-320.97L-105.25-320.97
				c1.42-0.88,3.22,0.25,3.06,1.91c1.27,1.07,0.76,3.14-0.87,3.5c-0.63,1.54-2.75,1.69-3.6,0.26c-1.66-0.12-2.46-2.1-1.35-3.34
				C-108.4-320.26-106.77-321.63-105.25-320.97"/>
		</g>
		<g id="g1672_00000096778816223895564120000010324641131858167947_" transform="translate(118.2393,338.3843)">
			<path d="M-104.92-313.51c-0.86,0-1.66-0.39-2.19-1.05c-0.9-0.2-1.64-0.82-1.99-1.69s-0.25-1.83,0.26-2.6
				c-0.09-0.91,0.27-1.81,0.99-2.42c0.72-0.61,1.67-0.8,2.55-0.56c0.84-0.37,1.81-0.31,2.61,0.19c0.8,0.5,1.28,1.34,1.32,2.26
				c0.61,0.69,0.85,1.62,0.62,2.54s-0.88,1.63-1.74,1.95c-0.46,0.79-1.28,1.31-2.22,1.38
				C-104.78-313.51-104.85-313.51-104.92-313.51z M-106.06-320.34c-0.28,0-0.55,0.1-0.77,0.29c-0.36,0.3-0.51,0.76-0.4,1.22
				c0.06,0.26,0,0.52-0.18,0.72c-0.31,0.35-0.4,0.82-0.22,1.26c0.18,0.44,0.56,0.72,1.03,0.75c0.26,0.02,0.5,0.17,0.63,0.39
				c0.24,0.41,0.64,0.64,1.13,0.6c0.47-0.03,0.86-0.31,1.03-0.75c0.1-0.24,0.31-0.42,0.57-0.48c0.46-0.1,0.8-0.43,0.92-0.89
				c0.11-0.46-0.03-0.91-0.39-1.22c-0.2-0.17-0.31-0.43-0.28-0.69c0.05-0.47-0.16-0.9-0.57-1.15c-0.4-0.25-0.88-0.25-1.28,0
				c-0.22,0.14-0.5,0.16-0.74,0.05C-105.73-320.3-105.89-320.34-106.06-320.34z"/>
		</g>
		<g id="g1676_00000166636851636527135750000010234000220867035047_" transform="translate(121.0327,300.0273)">
			<path d="M-107.82-278.75c-0.11,0-0.2-0.02-0.31-0.06c-0.09-0.03-0.19-0.09-0.25-0.17c-0.08-0.08-0.14-0.16-0.17-0.26
				c-0.05-0.09-0.06-0.2-0.06-0.3c0-0.11,0.02-0.22,0.06-0.31c0.03-0.09,0.09-0.19,0.17-0.26c0.08-0.06,0.16-0.12,0.25-0.17
				c0.2-0.08,0.42-0.08,0.62,0c0.09,0.05,0.19,0.11,0.25,0.17c0.16,0.16,0.23,0.36,0.23,0.58c0,0.09-0.02,0.2-0.06,0.3
				c-0.03,0.11-0.09,0.19-0.17,0.26c-0.06,0.08-0.16,0.14-0.25,0.17C-107.61-278.76-107.71-278.75-107.82-278.75z"/>
		</g>
		<g id="g1680_00000080203369230928442380000002018779091481687999_" transform="translate(135.2744,343.6245)">
			<path id="path1682_00000078743760404106212390000014788799581511530155_" class="st22" d="M-120.92-326.62L-120.92-326.62
				c-1.58,0.53-3.08-0.98-2.54-2.55c-0.99-1.34-0.02-3.23,1.64-3.21c0.97-1.36,3.07-1.02,3.56,0.57c1.59,0.5,1.92,2.6,0.56,3.56
				C-117.69-326.59-119.59-325.63-120.92-326.62"/>
		</g>
		<g id="g1684_00000016044245241991618190000008455299542672673205_" transform="translate(135.2744,343.6245)">
			<path d="M-119.72-325.42c-0.46,0-0.92-0.12-1.34-0.35c-0.9,0.17-1.83-0.11-2.49-0.78c-0.66-0.67-0.94-1.59-0.77-2.5
				c-0.44-0.81-0.45-1.78-0.02-2.61c0.43-0.84,1.23-1.39,2.14-1.5c0.63-0.66,1.54-0.98,2.48-0.83c0.93,0.15,1.7,0.74,2.09,1.57
				c0.83,0.4,1.41,1.17,1.56,2.1s-0.18,1.84-0.85,2.47c-0.12,0.91-0.68,1.71-1.52,2.13C-118.85-325.52-119.28-325.42-119.72-325.42z
				 M-120.92-327.43c0.17,0,0.34,0.05,0.48,0.16c0.38,0.28,0.85,0.33,1.27,0.11c0.42-0.21,0.67-0.62,0.66-1.09
				c0-0.26,0.12-0.51,0.34-0.66c0.38-0.27,0.57-0.71,0.5-1.18c-0.07-0.47-0.38-0.83-0.83-0.97c-0.25-0.08-0.45-0.28-0.52-0.53
				c-0.14-0.45-0.5-0.76-0.97-0.84c-0.47-0.07-0.9,0.11-1.18,0.5c-0.15,0.21-0.42,0.32-0.66,0.34c-0.01,0-0.01,0-0.02,0
				c-0.46,0-0.86,0.24-1.07,0.66c-0.22,0.42-0.18,0.9,0.1,1.28c0.16,0.21,0.2,0.48,0.11,0.73c-0.15,0.45-0.04,0.91,0.29,1.24
				c0.33,0.33,0.8,0.44,1.24,0.29C-121.09-327.41-121-327.43-120.92-327.43z"/>
		</g>
		<g id="g1688_00000131354251579829332220000004630853678819342215_" transform="translate(141.3242,381.604)">
			<path d="M-126.49-366.84c-0.11,0-0.2-0.02-0.29-0.06c-0.11-0.03-0.19-0.09-0.26-0.17c-0.08-0.06-0.14-0.16-0.17-0.25
				c-0.05-0.11-0.06-0.2-0.06-0.31c0-0.11,0.02-0.2,0.06-0.31c0.03-0.09,0.09-0.17,0.17-0.25c0.08-0.08,0.16-0.14,0.26-0.17
				c0.19-0.09,0.4-0.09,0.61,0c0.09,0.03,0.19,0.09,0.26,0.17c0.06,0.08,0.12,0.16,0.17,0.25c0.03,0.11,0.06,0.2,0.06,0.31
				c0,0.11-0.03,0.2-0.06,0.31c-0.05,0.09-0.11,0.19-0.17,0.25C-126.07-366.92-126.27-366.84-126.49-366.84z"/>
		</g>
		<g id="g1692_00000016763294133185331220000007270171171849276307_" transform="translate(50.418,231.7856)">
			<path id="path1694_00000156574579664497442800000010337032012680077971_" class="st0" d="M-42.84-205.85l1.43,0.83
				c1.22,0.7,2.77,0.29,3.48-0.93l0.83-1.43l-1.43-0.83c-1.22-0.7-2.77-0.29-3.48,0.93L-42.84-205.85z"/>
		</g>
		<g id="g1696_00000168801168790179529470000001263169382986182070_" transform="translate(50.418,231.7856)">
			<path d="M-40.14-203.88c-0.58,0-1.15-0.15-1.67-0.45l-1.43-0.83c-0.18-0.1-0.32-0.28-0.37-0.48c-0.05-0.21-0.03-0.42,0.08-0.61
				l0.83-1.43c0.45-0.77,1.17-1.33,2.03-1.56c0.86-0.23,1.76-0.11,2.54,0.33l1.43,0.83c0.38,0.22,0.51,0.71,0.29,1.09l-0.83,1.43
				c-0.45,0.77-1.17,1.33-2.03,1.56C-39.56-203.92-39.85-203.88-40.14-203.88z M-41.75-206.14l0.74,0.43
				c0.4,0.23,0.87,0.29,1.32,0.17c0.45-0.12,0.83-0.41,1.06-0.81l0.43-0.74l-0.74-0.43c-0.4-0.23-0.87-0.3-1.32-0.17
				c-0.45,0.12-0.83,0.41-1.06,0.81L-41.75-206.14z"/>
		</g>
		<g id="g1700_00000152945043881798068650000014442089430927324829_" transform="translate(43.5552,378.6909)">
			<path id="path1702_00000018917190362240335730000009161268796779725466_" class="st0" d="M-36.53-364.49l0.43,1.6
				c0.36,1.36,1.76,2.16,3.12,1.8l1.6-0.43l-0.43-1.6c-0.36-1.36-1.76-2.16-3.12-1.8L-36.53-364.49z"/>
		</g>
		<g id="g1704_00000045597083004730535640000014615673804115922100_" transform="translate(43.5552,378.6909)">
			<path d="M-33.64-360.21c-1.48,0-2.83-0.99-3.23-2.48l-0.43-1.6c-0.05-0.21-0.03-0.42,0.08-0.61c0.11-0.18,0.28-0.32,0.48-0.37
				l1.6-0.43c0.86-0.23,1.76-0.11,2.54,0.33c0.77,0.45,1.33,1.17,1.56,2.03l0.43,1.6c0.11,0.43-0.14,0.86-0.57,0.98l-1.6,0.43
				C-33.07-360.25-33.36-360.21-33.64-360.21z M-35.55-363.93l0.22,0.83c0.25,0.93,1.21,1.49,2.14,1.23l0.83-0.22l-0.22-0.83
				c-0.12-0.45-0.41-0.83-0.81-1.06c-0.4-0.23-0.87-0.3-1.32-0.17L-35.55-363.93z"/>
		</g>
		<g id="g1708_00000056404223101339985180000014260114619213414039_" transform="translate(199.4409,238.3018)">
			<path d="M-177.37-206.48c-0.27,0-0.55-0.03-0.82-0.08c-0.95-0.19-1.81-0.71-2.42-1.45c-0.95,0.09-1.93-0.15-2.74-0.69
				c-0.14-0.1-0.27-0.19-0.4-0.3c-0.34-0.29-0.38-0.79-0.09-1.13c0.29-0.34,0.79-0.37,1.13-0.09c0.08,0.07,0.17,0.13,0.25,0.19
				c0.59,0.39,1.34,0.53,2.03,0.37c0.33-0.08,0.67,0.07,0.85,0.35c0.38,0.61,1,1.03,1.7,1.17c0.71,0.15,1.45-0.02,2.02-0.43
				c0.28-0.2,0.65-0.2,0.92,0c0.59,0.42,1.32,0.57,2.02,0.43c0.7-0.14,1.32-0.57,1.7-1.17c0.18-0.29,0.53-0.43,0.85-0.35
				c0.69,0.15,1.44,0.02,2.03-0.38c0.59-0.4,1-1.03,1.12-1.73c0.06-0.33,0.32-0.6,0.65-0.65c0.71-0.12,1.34-0.53,1.73-1.12
				c0.23-0.35,0.38-0.75,0.43-1.17c0.05-0.44,0.47-0.78,0.88-0.71c0.44,0.05,0.76,0.44,0.71,0.88c-0.07,0.67-0.31,1.32-0.68,1.88
				c-0.54,0.81-1.35,1.4-2.27,1.68c-0.28,0.92-0.88,1.73-1.68,2.27c-0.81,0.54-1.79,0.78-2.74,0.69c-0.62,0.74-1.47,1.26-2.43,1.45
				c-0.95,0.19-1.94,0.04-2.79-0.41C-176-206.65-176.67-206.48-177.37-206.48z M-177.22-210.64c-0.25,0-0.5-0.12-0.65-0.34
				c-0.48-0.68-1.27-1.09-2.11-1.11c-0.44-0.01-0.79-0.37-0.78-0.81c0.01-0.44,0.36-0.79,0.8-0.79c0,0,0.01,0,0.01,0
				c1.11,0.02,2.16,0.47,2.93,1.24c1.04-0.43,2.21-0.43,3.25,0c0.79-0.79,1.88-1.24,3-1.24c0,0,0,0,0.01,0
				c0.31-0.75,0.82-1.39,1.5-1.86c0.36-0.25,0.86-0.16,1.11,0.2c0.25,0.36,0.16,0.86-0.2,1.11c-0.54,0.38-0.92,0.94-1.06,1.57
				c-0.1,0.41-0.49,0.68-0.92,0.61c-0.98-0.17-2,0.25-2.58,1.07c-0.25,0.35-0.72,0.44-1.08,0.21c-0.85-0.54-1.95-0.54-2.8,0
				C-176.92-210.68-177.07-210.64-177.22-210.64z M-182.02-225.52c-0.26,0-0.51-0.12-0.66-0.35c-0.25-0.37-0.15-0.86,0.22-1.11
				c0.56-0.38,0.95-0.95,1.1-1.6c0.09-0.41,0.5-0.68,0.92-0.61c1,0.18,2.01-0.25,2.59-1.07c0.24-0.35,0.72-0.44,1.08-0.21
				c0.85,0.54,1.95,0.53,2.8,0c0.36-0.23,0.83-0.14,1.08,0.21c0.48,0.68,1.27,1.09,2.11,1.11c0.44,0.01,0.79,0.37,0.78,0.81
				c-0.01,0.44-0.36,0.79-0.8,0.79c0,0-0.01,0-0.01,0c-1.11-0.02-2.16-0.47-2.93-1.24c-1.04,0.43-2.21,0.43-3.25,0
				c-0.79,0.79-1.88,1.24-3,1.24c0,0,0,0,0,0c-0.31,0.76-0.85,1.42-1.55,1.9C-181.71-225.56-181.87-225.52-182.02-225.52z
				 M-187.18-225.89c-0.04,0-0.07,0-0.11-0.01c-0.44-0.06-0.74-0.46-0.69-0.9c0.09-0.64,0.32-1.25,0.67-1.78
				c0.54-0.8,1.35-1.4,2.27-1.68c0.28-0.92,0.88-1.73,1.68-2.27c0.81-0.54,1.79-0.78,2.74-0.69c0.62-0.74,1.47-1.26,2.43-1.45
				c0.95-0.19,1.94-0.04,2.79,0.41c0.85-0.45,1.84-0.6,2.8-0.41c0.95,0.19,1.81,0.71,2.43,1.45c0.95-0.09,1.93,0.15,2.74,0.69
				c0.14,0.09,0.27,0.19,0.4,0.3c0.34,0.29,0.38,0.79,0.09,1.13c-0.29,0.34-0.79,0.37-1.13,0.09c-0.08-0.07-0.16-0.13-0.25-0.19
				c-0.6-0.4-1.34-0.53-2.04-0.38c-0.33,0.08-0.67-0.07-0.85-0.35c-0.38-0.61-1-1.04-1.7-1.18c-0.7-0.14-1.44,0.02-2.02,0.43
				c-0.28,0.2-0.65,0.19-0.92,0c-0.58-0.41-1.32-0.57-2.02-0.43c-0.7,0.14-1.32,0.57-1.7,1.17c-0.18,0.29-0.52,0.43-0.85,0.35
				c-0.7-0.16-1.44-0.02-2.03,0.38s-1,1.03-1.12,1.73c-0.06,0.33-0.32,0.6-0.65,0.65c-0.71,0.12-1.34,0.53-1.73,1.12
				c-0.22,0.33-0.36,0.71-0.42,1.11C-186.45-226.19-186.79-225.89-187.18-225.89z"/>
		</g>
		<g id="g1712_00000137103483624471072080000016619979342842796457_" transform="translate(256,294.8618)">
			<path d="M-232-267.69c-0.44,0-0.8-0.36-0.8-0.8v-5.48c0-0.44,0.36-0.8,0.8-0.8s0.8,0.36,0.8,0.8v5.48
				C-231.2-268.05-231.56-267.69-232-267.69z"/>
		</g>
		<g id="g1716_00000140698952993833522660000016182990568344009868_" transform="translate(256,443.3838)">
			<path d="M-232-428.07c-0.44,0-0.8-0.36-0.8-0.8v-5.49c0-0.44,0.36-0.8,0.8-0.8s0.8,0.36,0.8,0.8v5.49
				C-231.2-428.42-231.56-428.07-232-428.07z"/>
		</g>
	</g>
</g>
<path class="st0" d="M13.02,39.6c-0.01,0.03-0.02,0.06-0.03,0.09h0.06C13.04,39.66,13.03,39.63,13.02,39.6z"/>
</svg>
