<?xml version="1.0" encoding="utf-8"?>
<!-- Generator: Adobe Illustrator 28.1.0, SVG Export Plug-In . SVG Version: 6.00 Build 0)  -->
<svg version="1.1" id="Layer_1" xmlns="http://www.w3.org/2000/svg" xmlns:xlink="http://www.w3.org/1999/xlink" x="0px" y="0px"
	 viewBox="0 0 48 48" style="enable-background:new 0 0 48 48;" xml:space="preserve">
<style type="text/css">
	.st0{fill:#800080;}
	.st1{fill-rule:evenodd;clip-rule:evenodd;}
	.st2{fill-rule:evenodd;clip-rule:evenodd;fill:#800080;}
	.st3{fill-rule:evenodd;clip-rule:evenodd;fill:#762E82;}
	.st4{fill:#762E82;}
	.st5{fill:#0066AD;}
	.st6{fill:#F4A033;}
	.st7{fill-rule:evenodd;clip-rule:evenodd;fill:#004669;}
	.st8{fill-rule:evenodd;clip-rule:evenodd;fill:#F6C40B;}
	.st9{fill:#004669;}
	.st10{fill-rule:evenodd;clip-rule:evenodd;fill:#E71C24;}
	.st11{fill-rule:evenodd;clip-rule:evenodd;fill:#224094;}
	.st12{fill:#204391;}
	.st13{fill:#E61F29;}
	.st14{fill:#3BB53F;}
	.st15{fill:#020202;}
	.st16{fill:#DB7031;}
	.st17{fill:#D82C32;}
	.st18{fill:#1A171B;}
	.st19{fill:#E38833;}
	.st20{clip-path:url(#SVGID_00000008850140449383625940000015130043249428030117_);}
	.st21{clip-path:url(#SVGID_00000148620180555655079250000002812613275344270723_);}
	.st22{fill:#FFFFFF;}
	.st23{fill:#2DB674;}
	.st24{fill:none;}
	.st25{fill:url(#SVGID_00000118375052770628700000000007884683399027331997_);}
	.st26{fill:url(#SVGID_00000024716665971012064510000014362241856890530179_);}
	.st27{fill:url(#SVGID_00000150082411108831771830000013368168304839950758_);}
	.st28{fill:url(#SVGID_00000029003269001731397590000001479256073759515785_);}
	.st29{fill:url(#SVGID_00000015336744980445083240000009768938646104062897_);}
	.st30{fill:url(#SVGID_00000114051861668142113080000012832576060064208785_);}
	.st31{fill:url(#SVGID_00000167376981871439813470000002391764526988519573_);}
	.st32{fill:url(#SVGID_00000001645451258391184830000004545787360060481963_);}
	.st33{fill:url(#SVGID_00000108305553033432259010000011546550412805961877_);}
	.st34{fill:url(#SVGID_00000140727061247224295480000008744209588587563908_);}
	.st35{fill:url(#SVGID_00000128477166248136244930000003297446654912448932_);}
	.st36{fill:url(#SVGID_00000059298013170772568370000010692701260255724931_);}
	.st37{fill:#1A2E35;}
	.st38{fill:#C27460;}
	.st39{fill:#7C4235;}
	.st40{fill:#FF735D;}
	.st41{fill:#762E86;}
	.st42{fill:none;stroke:#000000;stroke-width:0.1613;stroke-linecap:round;stroke-miterlimit:10;}
	.st43{fill:#375A64;}
	.st44{opacity:0.3;}
	.st45{fill:none;stroke:#FFC7BF;stroke-width:0.1122;stroke-miterlimit:10;}
	.st46{fill:none;stroke:#44555B;stroke-width:5.608974e-03;stroke-miterlimit:10;}
	.st47{fill:#FFFFFF;stroke:#000000;stroke-width:0.1637;stroke-miterlimit:10;}
	.st48{fill:#E1E1E1;}
	.st49{fill:#578DF3;}
	.st50{fill:#B72516;}
</style>
<g>
	<path d="M19.07,39.35l-0.7,0l-0.11-4.32c-0.04-1.73-0.72-3.2-2.01-4.37l-3.61-3.27l-0.06-2.51c-0.01-0.6-0.26-1.15-0.69-1.56
		c-0.42-0.4-0.98-0.62-1.56-0.62l-0.03-1.31c-0.03-1.23-1.06-2.21-2.29-2.18c-0.59,0.01-1.15,0.26-1.56,0.7
		c-0.41,0.43-0.63,1-0.61,1.59L6.1,32.19c0.03,1.31,0.54,2.41,1.51,3.28l1.58,1.43c0.7,0.64,1.07,1.45,1.1,2.4l0,0.06l-0.65,0
		c-0.57,0-1.04,0.47-1.04,1.04l0,2.42c0,0.57,0.47,1.04,1.04,1.04l9.44-0.01c0.57,0,1.04-0.47,1.04-1.04l0-2.42
		C20.11,39.82,19.64,39.35,19.07,39.35L19.07,39.35z M11.03,24.23c0.19,0.18,0.3,0.43,0.31,0.69l0.04,1.47
		c-0.3-0.14-0.63-0.21-0.97-0.21l-0.06-2.23C10.61,23.96,10.85,24.05,11.03,24.23z M11.52,39.27c-0.03-1.3-0.54-2.41-1.51-3.28
		l-1.58-1.43c-0.71-0.64-1.08-1.44-1.1-2.39L7.07,21.48c-0.01-0.26,0.09-0.52,0.27-0.71c0.18-0.19,0.43-0.3,0.69-0.31
		c0.55-0.01,1,0.42,1.02,0.97l0.05,2.02c0,0.01,0,0.03,0,0.04l0.08,3.08c-0.15,0.1-0.28,0.22-0.4,0.35c-0.4,0.44-0.6,1.01-0.57,1.61
		c0.03,0.6,0.29,1.15,0.73,1.54c0.61,0.55,1.22,1.11,1.83,1.66c0.61,0.55,1.22,1.11,1.83,1.66c0.12,0.11,0.27,0.16,0.42,0.16
		c0.17,0,0.34-0.07,0.46-0.2c0.23-0.25,0.21-0.65-0.04-0.88c-0.61-0.55-1.22-1.11-1.83-1.66c-0.61-0.55-1.22-1.11-1.83-1.66
		c-0.19-0.18-0.31-0.42-0.32-0.69c-0.01-0.27,0.08-0.52,0.25-0.72c0.09-0.1,0.22-0.19,0.35-0.25c0.35-0.15,0.77-0.08,1.05,0.18
		l4.32,3.91c1.03,0.93,1.56,2.1,1.6,3.48l0.11,4.29l-5.6,0.01L11.52,39.27z M40,19.22c-0.6-0.01-1.16,0.2-1.59,0.62
		c-0.43,0.41-0.68,0.97-0.7,1.56l-0.03,1.31c-0.59-0.01-1.14,0.21-1.56,0.62c-0.43,0.41-0.68,0.97-0.69,1.56l-0.06,2.51l-3.61,3.27
		c-1.29,1.16-1.96,2.63-2.01,4.37l-0.11,4.32l-0.7,0c-0.57,0-1.04,0.47-1.04,1.04l0,2.42c0,0.57,0.47,1.04,1.04,1.04l9.44,0.01
		c0.57,0,1.04-0.47,1.04-1.04l0-2.42c0-0.57-0.47-1.04-1.04-1.04l-0.65,0l0-0.06c0.02-0.95,0.39-1.76,1.1-2.4l1.58-1.43
		c0.97-0.87,1.48-1.98,1.51-3.28l0.27-10.68C42.2,20.28,41.23,19.26,40,19.22L40,19.22z M36.97,24.23c0.19-0.18,0.43-0.27,0.68-0.27
		l-0.06,2.23c-0.01,0-0.02,0-0.02,0c-0.33,0-0.65,0.07-0.94,0.21l0.04-1.47C36.67,24.66,36.77,24.41,36.97,24.23L36.97,24.23z
		 M40.66,32.16c-0.02,0.95-0.39,1.76-1.1,2.4l-1.58,1.43c-0.97,0.88-1.47,1.98-1.51,3.28l0,0.09l-5.6-0.01l0.11-4.29
		c0.03-1.38,0.57-2.55,1.6-3.48l4.32-3.91c0.28-0.26,0.7-0.33,1.05-0.18c0.14,0.06,0.26,0.15,0.35,0.25
		c0.37,0.41,0.34,1.03-0.07,1.4c-0.61,0.55-1.22,1.11-1.83,1.66c-0.61,0.55-1.22,1.11-1.83,1.66c-0.25,0.23-0.27,0.62-0.04,0.88
		c0.12,0.14,0.29,0.2,0.46,0.2c0.15,0,0.3-0.05,0.42-0.16c0.61-0.55,1.22-1.11,1.83-1.66c0.61-0.55,1.22-1.11,1.83-1.66
		c0.91-0.82,0.98-2.24,0.16-3.15c-0.12-0.13-0.25-0.25-0.4-0.35l0.08-3.08c0-0.01,0-0.03,0-0.04l0.05-2.02
		c0.01-0.26,0.12-0.51,0.31-0.69c0.19-0.18,0.45-0.28,0.71-0.28c0.55,0.01,0.98,0.47,0.97,1.02L40.66,32.16z M34.37,24.36
		c1.95-3.3,3.32-7.43,4.17-12.63c0.03-0.17-0.02-0.34-0.12-0.48c-0.1-0.14-0.26-0.22-0.43-0.24c-3.31-0.34-5.93-2.99-6.22-6.31
		c-0.03-0.32-0.3-0.57-0.62-0.57H16.86c-0.32,0-0.59,0.25-0.62,0.57c-0.29,3.32-2.91,5.97-6.22,6.31c-0.17,0.02-0.33,0.1-0.43,0.24
		c-0.1,0.14-0.15,0.31-0.12,0.48c0.85,5.2,2.22,9.33,4.17,12.63c2.44,4.12,5.86,6.96,10.17,8.42c0.06,0.02,0.13,0.03,0.2,0.03
		s0.14-0.01,0.2-0.03C28.51,31.32,31.93,28.49,34.37,24.36z M24,31.54c-7.03-2.48-11.35-8.82-13.2-19.39
		c3.41-0.63,6.07-3.35,6.61-6.78H30.6c0.54,3.43,3.2,6.15,6.61,6.78C35.35,22.72,31.03,29.06,24,31.54z"/>
	<path class="st2" d="M30.6,5.38H17.4c-0.54,3.43-3.2,6.15-6.61,6.78c1.85,10.56,6.18,16.91,13.2,19.39
		c7.03-2.48,11.35-8.82,13.2-19.39C33.8,11.53,31.14,8.8,30.6,5.38z M24.12,12.04c1.38,0,2.5,1.12,2.5,2.5
		c0,1.38-1.12,2.51-2.5,2.51c-1.38,0-2.51-1.13-2.51-2.51C21.61,13.16,22.75,12.04,24.12,12.04z M31.24,15.93
		c-1.42,2.47-2.3,3.99-3.72,6.46c-0.19,0.32-0.29,0.71-0.29,1.08v1.05c0,0.21-0.17,0.39-0.39,0.39h-5.67
		c-0.21,0-0.39-0.17-0.39-0.39v-1.05c0-0.37-0.11-0.75-0.29-1.08c-1.42-2.46-2.3-3.99-3.72-6.46c-0.35-0.6-0.15-1.38,0.45-1.72
		c0.61-0.35,1.39-0.13,1.74,0.47l1.79,3.11c0.25,0.44,0.72,0.71,1.23,0.71h4.07c0.52,0,0.96-0.25,1.23-0.71l1.79-3.11
		c0.35-0.6,1.12-0.81,1.74-0.47C31.39,14.56,31.59,15.33,31.24,15.93z"/>
</g>
</svg>
