<?xml version="1.0" encoding="utf-8"?>
<!-- Generator: Adobe Illustrator 28.1.0, SVG Export Plug-In . SVG Version: 6.00 Build 0)  -->
<svg version="1.1" id="Layer_1" xmlns="http://www.w3.org/2000/svg" xmlns:xlink="http://www.w3.org/1999/xlink" x="0px" y="0px"
	 viewBox="0 0 48 48" style="enable-background:new 0 0 48 48;" xml:space="preserve">
<style type="text/css">
	.st0{fill:#800080;}
	.st1{fill-rule:evenodd;clip-rule:evenodd;}
	.st2{fill-rule:evenodd;clip-rule:evenodd;fill:#800080;}
	.st3{fill-rule:evenodd;clip-rule:evenodd;fill:#762E82;}
	.st4{fill:#762E82;}
	.st5{fill:#0066AD;}
	.st6{fill:#F4A033;}
	.st7{fill-rule:evenodd;clip-rule:evenodd;fill:#004669;}
	.st8{fill-rule:evenodd;clip-rule:evenodd;fill:#F6C40B;}
	.st9{fill:#004669;}
	.st10{fill-rule:evenodd;clip-rule:evenodd;fill:#E71C24;}
	.st11{fill-rule:evenodd;clip-rule:evenodd;fill:#224094;}
	.st12{fill:#204391;}
	.st13{fill:#E61F29;}
	.st14{fill:#3BB53F;}
	.st15{fill:#020202;}
	.st16{fill:#DB7031;}
	.st17{fill:#D82C32;}
	.st18{fill:#1A171B;}
	.st19{fill:#E38833;}
	.st20{clip-path:url(#SVGID_00000045581930789690114920000009103857211098382765_);}
	.st21{clip-path:url(#SVGID_00000110467359228754548510000014461827396097811871_);}
	.st22{fill:#FFFFFF;}
	.st23{fill:#2DB674;}
	.st24{fill:none;}
	.st25{fill:url(#SVGID_00000021831680122095790730000001277217339903531928_);}
	.st26{fill:url(#SVGID_00000064320541936976447430000004128807848750111364_);}
	.st27{fill:url(#SVGID_00000017499450939184616890000015018671815377928618_);}
	.st28{fill:url(#SVGID_00000109015415709629742930000011485957914003684765_);}
	.st29{fill:url(#SVGID_00000175283856243095158050000001799110905658655394_);}
	.st30{fill:url(#SVGID_00000156547149743467181500000001650983292178611620_);}
	.st31{fill:url(#SVGID_00000039840117618118287260000012975417512092682679_);}
	.st32{fill:url(#SVGID_00000124127160560364270080000004275379616167257743_);}
	.st33{fill:url(#SVGID_00000178919973133610718540000013272233372483718546_);}
	.st34{fill:url(#SVGID_00000155838744631620321300000004373671658511546260_);}
	.st35{fill:url(#SVGID_00000039851460463882577530000016207546445171989130_);}
	.st36{fill:url(#SVGID_00000089574107944021068470000010467873156891554487_);}
	.st37{fill:#1A2E35;}
	.st38{fill:#C27460;}
	.st39{fill:#7C4235;}
	.st40{fill:#FF735D;}
	.st41{fill:#762E86;}
	.st42{fill:none;stroke:#000000;stroke-width:0.1613;stroke-linecap:round;stroke-miterlimit:10;}
	.st43{fill:#375A64;}
	.st44{opacity:0.3;}
	.st45{fill:none;stroke:#FFC7BF;stroke-width:0.1122;stroke-miterlimit:10;}
	.st46{fill:none;stroke:#44555B;stroke-width:5.608974e-03;stroke-miterlimit:10;}
	.st47{fill:#FFFFFF;stroke:#000000;stroke-width:0.1637;stroke-miterlimit:10;}
	.st48{fill:#E1E1E1;}
	.st49{fill:#578DF3;}
	.st50{fill:#B72516;}
</style>
<g>
	<path class="st0" d="M2.63,33.72v8.23h22.39c-0.06-0.04-0.13-0.07-0.19-0.11c-1.49-0.97-2.5-2.51-2.5-4.62
		c0-2.03,0.94-4.34,2.3-6.14c0.39-0.51,0.82-0.99,1.29-1.42l-3.28-1.07v3.81c0,0.38-0.22,0.72-0.56,0.88
		c-0.13,0.06-0.27,0.09-0.4,0.09c-0.23,0-0.45-0.08-0.63-0.25l-1.52-1.34l-1.86,3.79c-0.16,0.34-0.5,0.55-0.88,0.55
		c-0.37,0-0.71-0.21-0.87-0.55l-1.86-3.8l-1.52,1.35c-0.29,0.26-0.69,0.31-1.03,0.16c-0.35-0.16-0.56-0.5-0.56-0.88v-3.81
		l-6.03,1.97C3.55,31.01,2.63,32.28,2.63,33.72z"/>
	<g>
		<path class="st1" d="M32.07,24.1c0.12,0.31,0.42,0.51,0.75,0.51h3.23c0.33,0,0.63-0.2,0.75-0.51l1.61-4.03
			c0.11-0.28,0.06-0.6-0.14-0.83c-0.2-0.23-0.51-0.33-0.8-0.25l-3.03,0.76l-3.03-0.76c-0.29-0.07-0.6,0.02-0.8,0.25
			c-0.2,0.23-0.25,0.55-0.14,0.83L32.07,24.1z"/>
		<path class="st1" d="M25.75,23.28c-0.2,0.23-0.25,0.55-0.13,0.83l1.01,2.42c0.13,0.3,0.42,0.5,0.74,0.5h1.13
			c0.64-0.64,1.35-1.22,2.13-1.69l0.32-0.77l-0.01-0.02L30.33,23c-0.04,0-0.08,0.01-0.11,0.02l-1.83,0.44l-1.83-0.44
			C26.26,22.94,25.95,23.04,25.75,23.28z"/>
		<path class="st1" d="M24.35,36.31c0-2.49,1.06-5.21,2.58-7.38c0.03-0.04,0.07-0.07,0.1-0.11l-4.37-1.46v-1.11
			c0-0.31-0.15-0.6-0.4-0.78l-0.92-0.68c1.38-0.83,2.37-2.22,2.69-3.85h0.21c1.62,0,2.94-1.32,2.94-2.94v-0.7
			c0-0.95-0.46-1.81-1.16-2.34V10.9c0-3.34-2.72-6.07-6.06-6.07h-6.29c-3.34,0-6.07,2.72-6.07,6.07c0,0.02,0,0.04,0,0.06
			c0,0.02,0,0.04,0,0.06v3.95c-0.7,0.54-1.16,1.39-1.16,2.34v0.7c0,1.62,1.32,2.94,2.94,2.94h0.21c0.31,1.63,1.31,3.02,2.69,3.85
			l-0.55,0.4c-0.48,0.35-0.77,0.92-0.77,1.52v0.64l-6.4,2.09c-1.84,0.6-3.08,2.32-3.08,4.26v8.82c0,0.32,0.26,0.58,0.58,0.58h23.77
			h1.54h1.25c-0.28-0.15-0.56-0.31-0.83-0.48C25.76,41.32,24.35,39.19,24.35,36.31z M21.48,26.36v0.62v0.12v0.7v0.42v3.73
			l-1.41-1.25l-0.46-0.41l-0.45-0.4l-0.83-0.74l1.58-1.45l0.36-0.33c0.04-0.04,0.08-0.08,0.11-0.13c0.13-0.16,0.19-0.35,0.2-0.55
			v-0.97L21.48,26.36z M14.47,26.82l-0.29-0.27V26.3v-0.77c0.34,0.06,0.7,0.1,1.06,0.1h1h1.12h1c0.36,0,0.71-0.03,1.06-0.1v0.77
			v0.26l-0.29,0.27l-0.49,0.45l-1.19,1.09L17,28.77l-0.21,0.19l-0.21-0.19l-0.43-0.4l-1.19-1.09v0L14.47,26.82z M16.15,29.95
			c0.18,0.17,0.42,0.26,0.65,0.26c0.23,0,0.47-0.09,0.65-0.26l0.01-0.01l1.17,1.03l-1.83,3.73l-1.82-3.73L16.15,29.95L16.15,29.95z
			 M25.99,17.31v0.7c0,0.98-0.79,1.77-1.77,1.77h-0.11v-4.17v-0.08h0.11c0.43,0,0.84,0.16,1.14,0.42
			C25.75,16.28,25.99,16.77,25.99,17.31z M9.47,15.62v4.17H9.36c-0.97,0-1.77-0.79-1.77-1.77v-0.7c0-0.54,0.24-1.03,0.62-1.36
			c0.31-0.26,0.71-0.42,1.14-0.42h0.11V15.62z M9.47,14.23v0.13H9.36c-0.21,0-0.41,0.02-0.61,0.06v-3.4c0-0.02,0-0.04,0-0.06
			c0-0.02,0-0.04,0-0.06c0-2.7,2.19-4.89,4.89-4.89h6.29c2.7,0,4.89,2.2,4.89,4.89v3.52c-0.2-0.04-0.4-0.06-0.61-0.06h-0.11v-0.13
			c0-1.72-1.4-3.12-3.12-3.12h-0.16c-0.66,0-1.32,0.18-1.93,0.54c-0.37,0.21-0.78,0.32-1.2,0.32h-1.81c-0.42,0-0.84-0.11-1.2-0.32
			c-0.61-0.35-1.28-0.54-1.94-0.54h-0.16C10.87,11.11,9.47,12.51,9.47,14.23z M10.77,20.96c-0.09-0.35-0.13-0.71-0.13-1.09v-0.09
			v-4.17v-0.08v-1.09v-0.08v-0.13c0-1.07,0.87-1.95,1.95-1.95h0.16c0.45,0,0.92,0.13,1.35,0.38c0.54,0.31,1.16,0.48,1.79,0.48h1.81
			c0.63,0,1.25-0.16,1.79-0.48c0.43-0.25,0.9-0.38,1.35-0.38H21c1.08,0,1.95,0.88,1.95,1.95v0.13v0.08v1.09v0.08v4.17v0.09
			c0,0.38-0.04,0.74-0.13,1.09c-0.34,1.39-1.32,2.54-2.61,3.11c-0.04,0.02-0.08,0.03-0.12,0.05c0,0,0,0,0,0
			c-0.54,0.22-1.12,0.34-1.73,0.34h-3.12c-0.61,0-1.2-0.12-1.73-0.34h0c-0.04-0.01-0.08-0.03-0.12-0.05
			C12.09,23.5,11.11,22.35,10.77,20.96z M12.11,28.21V27.8v-0.7v-0.12v-0.26c0-0.22,0.11-0.44,0.29-0.57l0.6-0.44v0.97
			c0.01,0.2,0.08,0.39,0.2,0.55c0.03,0.04,0.07,0.09,0.11,0.13l0.37,0.33l1.58,1.45l-0.84,0.74l-0.45,0.4l-0.45,0.41l-1.41,1.25
			V28.21z M2.63,41.95v-8.23c0-1.44,0.92-2.7,2.28-3.15l6.03-1.97v3.81c0,0.38,0.22,0.72,0.56,0.88c0.35,0.15,0.74,0.1,1.03-0.16
			l1.52-1.35l1.86,3.8c0.16,0.34,0.5,0.55,0.87,0.55c0.38,0,0.71-0.21,0.88-0.55l1.86-3.79l1.52,1.34c0.18,0.16,0.41,0.25,0.63,0.25
			c0.14,0,0.27-0.03,0.4-0.09c0.35-0.16,0.56-0.5,0.56-0.88v-3.81l3.28,1.07c-0.47,0.43-0.91,0.91-1.29,1.42
			c-1.36,1.79-2.3,4.1-2.3,6.14c0,2.11,1.02,3.65,2.5,4.62c0.06,0.04,0.12,0.08,0.19,0.11H2.63z"/>
		<path class="st1" d="M44.23,31.08c-0.66-0.87-1.47-1.67-2.37-2.26c1.56,2.18,2.65,4.94,2.65,7.47c0,2.88-1.41,5-3.43,6.32
			c-0.27,0.17-0.54,0.33-0.83,0.48c1.36-0.16,2.69-0.57,3.77-1.28c1.49-0.97,2.5-2.5,2.5-4.61C46.54,35.17,45.59,32.87,44.23,31.08z
			"/>
		<path class="st1" d="M37.91,24.57l0.32,0.77c0.78,0.47,1.49,1.05,2.13,1.69h1.13c0.33,0,0.62-0.2,0.74-0.5l1.01-2.42
			c0.12-0.28,0.07-0.6-0.13-0.83c-0.2-0.23-0.51-0.33-0.8-0.26l-1.83,0.44l-1.83-0.44C38.62,23.01,38.58,23,38.54,23l-0.62,1.55
			L37.91,24.57z"/>
		<path class="st1" d="M32.81,33.64c-0.22,0.31-0.33,0.67-0.33,1.08c0,0.41,0.11,0.77,0.33,1.08c0.22,0.31,0.5,0.51,0.84,0.62v-3.4
			C33.31,33.12,33.03,33.33,32.81,33.64z"/>
		<path class="st1" d="M43.31,36.29c0-2.34-1.09-5.03-2.68-7.11c-1.57-2.07-3.8-3.76-6.2-3.76c-2.4,0-4.62,1.69-6.2,3.76
			c-1.59,2.09-2.68,4.77-2.68,7.11c0,2.42,1.17,4.18,2.88,5.3c1.68,1.1,3.87,1.58,6,1.58c2.13,0,4.32-0.48,6-1.58
			C42.14,40.47,43.31,38.71,43.31,36.29z M35.85,35.82l1.03,1.11c-0.58,0.68-1.3,1.08-2.16,1.2v1.28h-1.07v-1.28
			c-0.83-0.13-1.52-0.52-2.07-1.17c-0.55-0.64-0.82-1.39-0.82-2.25s0.27-1.6,0.82-2.25c0.55-0.64,1.24-1.03,2.07-1.17v-1.32h1.07
			v1.32c0.86,0.12,1.58,0.52,2.16,1.2l-1.03,1.11c-0.37-0.34-0.75-0.55-1.13-0.63v3.48C35.1,36.38,35.48,36.17,35.85,35.82z"/>
	</g>
</g>
</svg>
